<svg width="1437" height="643" viewBox="0 0 1437 643" fill="none" xmlns="http://www.w3.org/2000/svg">
<path d="M41.855 640.462C41.855 640.462 -62.4113 415.529 58.1898 275.369C157.333 160.13 292.088 137.476 396.777 206.886C441.364 236.446 565.889 229.432 715.909 88.8006C910.734 -93.8378 1399.15 7.41532 1304.84 372.573C1259.2 549.297 1454.62 464.215 1360.62 640.852L41.855 640.462Z" fill="#E1EEC7" fill-opacity="0.42"/>
<path d="M1435.04 638.233H11.8228C10.8547 638.233 10.0699 639.017 10.0699 639.984V640.261C10.0699 641.228 10.8547 642.012 11.8228 642.012H1435.04C1436.01 642.012 1436.79 641.228 1436.79 640.261V639.984C1436.79 639.017 1436.01 638.233 1435.04 638.233Z" fill="#3C512E" fill-opacity="0.38"/>
<path d="M202.767 377.988L197.997 430.133L205.09 431.239L225.169 384.846L202.767 377.988Z" fill="#FFB27D"/>
<path d="M206.012 425.866C206.012 425.866 204.384 431.325 205.394 435.391C206.083 438.102 201.861 441.831 197.194 446.976C196.721 447.518 195.848 446.976 195.951 446.282C196.022 445.839 196.149 445.407 196.331 444.997C197.177 443.035 199.587 439.636 199.587 439.636C199.391 438.877 194.42 441.555 191.615 443.43C189.987 444.515 185.265 449.6 184.017 448.851C182.769 448.103 184.793 443.197 186.975 439.587C189.156 435.977 197.009 432.935 197.991 430.165C198.974 427.395 206.012 425.866 206.012 425.866Z" fill="#FFB27D"/>
<path d="M228.935 188.883L280.909 166.743L328.828 189.577L280.909 213.868L228.935 188.883Z" fill="#61B136"/>
<path d="M237.347 214.329L238.085 213.342C227.617 205.476 229.652 192.33 230.281 189.322C230.32 189.133 230.304 188.938 230.233 188.759C230.163 188.58 230.042 188.425 229.885 188.313C229.812 188.255 229.725 188.216 229.633 188.2C229.541 188.185 229.446 188.194 229.358 188.226C229.27 188.258 229.192 188.313 229.131 188.384C229.07 188.455 229.029 188.541 229.012 188.633C228.344 192.157 226.428 206.121 237.347 214.329Z" fill="#EFCBAB"/>
<path d="M238.085 213.342L239.648 213.928L238.34 215.597L237.347 214.323L238.085 213.342Z" fill="#D8A987"/>
<path d="M239.648 213.928C239.648 213.928 241.591 215.332 242.269 214.903C242.269 214.903 241.634 216.747 240.69 216.936C240.69 216.936 238.932 216.351 238.34 215.597L239.648 213.928Z" fill="#EFCBAB"/>
<path d="M262.522 584.588L259 599.403L254.317 619.054H239.697L238.829 600.232L238.156 585.71L262.522 584.588Z" fill="#FFB27D"/>
<path d="M233.895 640.64C233.895 640.64 233.895 633.49 234.916 631.11C235.936 628.731 239.675 619.054 239.675 619.054H254.295C254.295 619.054 257.008 627.885 257.187 630.774C257.366 633.664 257.187 640.64 257.187 640.64H233.895Z" fill="#468920"/>
<path d="M326.755 640.64C326.755 640.64 326.755 633.49 325.734 631.11C324.714 628.731 320.975 619.054 320.975 619.054H306.322C306.322 619.054 303.609 627.885 303.435 630.774C303.262 633.664 303.435 640.64 303.435 640.64H326.755Z" fill="#468920"/>
<path d="M268.177 239.303C268.177 239.303 267.661 255.225 265.621 262.359L249.47 297.123L285.206 346.541L310.257 282.698L295.761 262.689C295.761 262.689 291.382 241.342 293.677 233.443C295.973 225.545 268.177 239.303 268.177 239.303Z" fill="#FFB27D"/>
<path d="M268.085 241.504C268.085 241.504 272.893 253.062 281.945 252.807C290.997 252.552 293.049 242.301 293.049 242.301L268.085 241.504Z" fill="#ED985F"/>
<path d="M262.685 232.142C262.685 232.142 259.76 217.565 257.72 213.169C255.679 208.772 253.981 189.056 276.589 188.037C276.589 188.037 285.272 189.056 290.02 186.167C290.02 186.167 290.02 189.056 288.832 190.075C288.832 190.075 294.72 186.373 300.842 193.165C306.963 199.958 298.671 225.567 299.214 231.172L262.685 232.142Z" fill="#2E4213"/>
<path d="M280.908 248.34C274.347 248.221 262.272 239.498 262.272 228.694V211.83C262.272 207.883 265.029 204.658 268.394 204.658H293.423C296.787 204.658 299.544 207.883 299.544 211.83V227.74C299.56 239.049 288.43 248.47 280.908 248.34Z" fill="#FFB27D"/>
<path d="M262.273 220.834C262.273 220.834 262.311 210.702 270.343 209.146C278.375 207.591 296.354 214.085 298.904 206.696C301.455 199.307 264.172 199.437 262.273 204.148C260.374 208.859 262.273 220.834 262.273 220.834Z" fill="#2E4213"/>
<path d="M265.621 262.359L280.567 265.709L295.681 262.071L299.561 285.241L282.602 342.92L264.042 273.808L265.621 262.359Z" fill="white"/>
<path d="M264.888 267.097L276.768 275.954L280.654 269.59L284.257 275.954L296.912 264.95L294.416 262.071L280.572 265.709L265.621 265.037L264.888 267.097Z" fill="#D2E3FC"/>
<path d="M327.102 392.88L291.523 395.097C291.317 394.766 291.089 394.766 290.834 395.141L280.366 395.796L235.752 393.005C235.752 393.005 224.529 444.173 228.935 512.348C230.341 534.102 233.489 598.514 236.479 621.309L267.059 621.635C271.026 595.869 275.612 531.581 278.076 520.544C279.194 515.532 280.236 510.564 281.202 505.642C282.086 511.242 282.656 515.785 282.645 518.62C282.645 523.152 283.948 530.362 285.782 539.051C288.354 551.292 295.919 607.724 298.171 622.459H330.26C330.646 602.162 332.388 533.213 332.757 512.364C333.75 456.755 327.102 392.88 327.102 392.88Z" fill="#EE9849"/>
<path d="M351.658 572.629C335.302 581.194 223.904 591.342 203.934 567.809C200.542 563.809 248.005 265.709 248.005 265.709C248.005 265.709 251.06 264.825 256.221 263.855C258.853 263.361 262.028 262.846 265.621 262.413C265.664 263.53 273.354 311.939 283.817 330.82C283.817 330.82 295.685 304.762 295.756 262.684C295.744 262.479 295.72 262.274 295.685 262.071C297.927 262.315 300.201 262.613 302.485 263.015C303.451 263.183 304.417 263.361 305.383 263.557C309.117 264.298 312.801 265.266 316.416 266.457C316.416 266.457 355.072 570.845 351.658 572.629Z" fill="#61B136"/>
<path d="M260.927 262.971C260.927 262.971 243.881 393.763 237.341 403.564C234.628 407.668 230.601 408.34 225.885 407.419C224.99 407.251 224.056 407.018 223.112 406.741L210.017 401.738H209.963C207.846 400.892 205.708 400.111 203.575 399.428C190.144 395.276 191.186 383.984 194.8 368.588C198.414 353.193 222.097 279.061 230.075 273.829C244.206 264.57 260.927 262.971 260.927 262.971Z" fill="#61B136"/>
<path d="M295.685 262.071C285.684 261.068 275.602 261.182 265.626 262.413C265.625 262.395 265.625 262.377 265.626 262.359C265.626 262.359 293.444 245.169 295.685 262.071Z" fill="#FFB27D"/>
<path d="M285.89 342.914C268.676 330.256 256.227 263.855 256.227 263.855C258.859 263.361 262.034 262.846 265.626 262.413C265.67 263.53 272.931 309.277 283.394 328.153C283.394 328.153 295.691 304.762 295.762 262.684C295.749 262.479 295.726 262.274 295.691 262.071C297.932 262.315 300.206 262.613 302.491 263.015C303.457 263.183 304.423 263.361 305.389 263.557C305.416 298.999 285.89 342.914 285.89 342.914Z" fill="#BC3F3F"/>
<path d="M275.102 235.839C275.102 235.839 282.949 235.059 286.591 235.942C286.591 235.942 284.621 239.103 281.44 239.076C278.26 239.049 275.856 237.867 275.102 235.839Z" fill="#FFF0E6"/>
<path d="M256.145 196.602L256.612 204.235C256.612 204.235 274.222 192.482 303.109 203.275L302.708 192.233C302.498 191.169 302.063 190.162 301.431 189.28C300.799 188.398 299.985 187.662 299.045 187.121C293.618 184.004 280.941 178.23 260.894 187.901C258.088 189.257 256.33 193.512 256.145 196.602Z" fill="#468920"/>
<path d="M266.934 255.333L260.926 262.971L276.811 273.808L280.572 265.709L266.934 255.333Z" fill="white"/>
<path d="M294.465 255.333L280.572 265.709L284.561 273.808L298.231 262.375L294.465 255.333Z" fill="white"/>
<path d="M280.127 283.609C280.279 283.459 280.473 283.357 280.683 283.317C280.893 283.276 281.11 283.299 281.308 283.382C281.505 283.464 281.674 283.603 281.792 283.781C281.911 283.959 281.974 284.168 281.974 284.382C281.974 284.595 281.911 284.804 281.792 284.982C281.674 285.16 281.505 285.299 281.308 285.382C281.11 285.464 280.893 285.487 280.683 285.446C280.473 285.406 280.279 285.304 280.127 285.154C280.024 285.053 279.943 284.933 279.887 284.8C279.832 284.668 279.803 284.525 279.803 284.382C279.803 284.238 279.832 284.095 279.887 283.963C279.943 283.83 280.024 283.71 280.127 283.609Z" fill="#D2E3FC"/>
<path d="M280.898 297.259C281.503 297.259 281.994 296.769 281.994 296.164C281.994 295.559 281.503 295.069 280.898 295.069C280.292 295.069 279.801 295.559 279.801 296.164C279.801 296.769 280.292 297.259 280.898 297.259Z" fill="#D2E3FC"/>
<path d="M280.127 307.515C280.279 307.365 280.473 307.264 280.683 307.223C280.893 307.183 281.11 307.205 281.308 307.288C281.505 307.37 281.674 307.509 281.792 307.687C281.911 307.865 281.974 308.074 281.974 308.288C281.974 308.502 281.911 308.711 281.792 308.889C281.674 309.067 281.505 309.205 281.308 309.288C281.11 309.371 280.893 309.393 280.683 309.353C280.473 309.312 280.279 309.21 280.127 309.06C280.024 308.96 279.943 308.839 279.887 308.707C279.832 308.574 279.803 308.432 279.803 308.288C279.803 308.144 279.832 308.002 279.887 307.869C279.943 307.737 280.024 307.616 280.127 307.515Z" fill="#D2E3FC"/>
<path d="M316.422 266.462C316.422 266.462 327.129 270.907 332.849 284.01C338.569 297.113 362.338 332.891 361.649 349.636C360.96 366.382 357.731 381.62 341.76 382.162C330.797 382.52 319.64 371.803 319.64 355.778C319.64 339.754 316.422 266.462 316.422 266.462Z" fill="#61B136"/>
<path d="M350.427 372.779C349.998 377.3 348.305 380.948 344.256 381.957C331.454 385.16 325.805 372.811 328.48 360.717C328.573 360.316 328.676 359.926 328.79 359.557C331.503 350.721 341.358 349.36 344.989 349.165C345.841 349.116 346.351 349.132 346.351 349.132C346.351 349.132 346.427 349.333 346.557 349.707C347.474 352.418 351.251 364.181 350.427 372.779Z" fill="#468920"/>
<path d="M350.427 372.779C350.427 372.779 313.095 355.974 298.329 336.724C297.243 335.298 300.033 333.563 300.033 333.563L345 349.165L346.568 349.707C347.474 352.418 351.251 364.181 350.427 372.779Z" fill="#FFB27D"/>
<path d="M306.507 334.474H257.182V399.407H306.507V334.474Z" fill="#FCECDB"/>
<path d="M277.451 380.243L271.905 389.502L275.416 389.004L276.919 391.79L281.63 383.279L277.451 380.243Z" fill="#932424"/>
<path d="M284.805 379.674L290.351 388.928L286.84 388.429L285.337 391.221L280.626 382.704L284.805 379.674Z" fill="#932424"/>
<path d="M275.497 378.205C276.121 374.156 278.292 372.567 281.657 372.058C286.047 371.391 287.811 374.812 287.811 378.205C287.805 379.833 287.153 381.392 285.999 382.54C284.844 383.688 283.281 384.332 281.651 384.331C278.254 384.331 274.982 381.561 275.497 378.205Z" fill="#BC3F3F"/>
<path d="M281.652 383.1C280.904 383.094 280.167 382.93 279.486 382.621C278.806 382.312 278.198 381.864 277.701 381.306C277.325 380.88 277.046 380.377 276.885 379.832C276.723 379.287 276.683 378.713 276.768 378.151V378.151C277.213 375.235 278.716 373.733 281.652 373.272C282.239 373.149 282.846 373.158 283.429 373.299C284.012 373.44 284.556 373.708 285.022 374.085C285.561 374.617 285.98 375.257 286.254 375.962C286.527 376.668 286.647 377.423 286.606 378.178C286.608 378.827 286.481 379.47 286.232 380.07C285.983 380.669 285.618 381.214 285.157 381.672C284.696 382.129 284.149 382.491 283.547 382.737C282.946 382.982 282.302 383.105 281.652 383.1V383.1ZM282.46 373.798C282.204 373.797 281.948 373.817 281.695 373.858C279.031 374.259 277.723 375.571 277.31 378.238C277.24 378.722 277.277 379.217 277.42 379.685C277.562 380.154 277.807 380.585 278.135 380.948C278.577 381.446 279.118 381.845 279.723 382.121C280.329 382.396 280.986 382.542 281.652 382.548C282.803 382.548 283.907 382.091 284.722 381.277C285.536 380.464 285.993 379.361 285.993 378.211C285.993 376.644 285.489 375.31 284.609 374.552C284.009 374.044 283.242 373.775 282.455 373.798H282.46Z" fill="#932424"/>
<path d="M288.707 342.291H274.977C274.867 342.291 274.763 342.248 274.685 342.17C274.608 342.093 274.564 341.988 274.564 341.879V341.879C274.564 341.77 274.608 341.665 274.685 341.588C274.763 341.511 274.867 341.467 274.977 341.467H288.707C288.816 341.467 288.921 341.511 288.998 341.588C289.076 341.665 289.119 341.77 289.119 341.879V341.879C289.119 341.988 289.076 342.093 288.998 342.17C288.921 342.248 288.816 342.291 288.707 342.291V342.291Z" fill="#1C468A"/>
<path d="M291.377 344.021H272.317C272.209 344.019 272.104 343.975 272.027 343.898C271.95 343.821 271.906 343.717 271.905 343.609V343.609C271.906 343.5 271.95 343.396 272.027 343.319C272.104 343.242 272.209 343.198 272.317 343.197H291.377C291.486 343.197 291.591 343.24 291.668 343.317C291.746 343.395 291.789 343.499 291.789 343.609V343.609C291.789 343.718 291.746 343.823 291.668 343.9C291.591 343.977 291.486 344.021 291.377 344.021V344.021Z" fill="#1C468A"/>
<path d="M295.903 358.353H267.792C267.666 358.353 267.546 358.304 267.458 358.215C267.369 358.127 267.319 358.007 267.319 357.882C267.319 357.757 267.369 357.637 267.458 357.548C267.546 357.46 267.666 357.41 267.792 357.41H295.903C296.028 357.41 296.148 357.46 296.237 357.548C296.325 357.637 296.375 357.757 296.375 357.882C296.375 358.007 296.325 358.127 296.237 358.215C296.148 358.304 296.028 358.353 295.903 358.353Z" fill="#1C468A"/>
<path d="M295.903 360.717H267.792C267.666 360.717 267.546 360.667 267.458 360.579C267.369 360.49 267.319 360.37 267.319 360.245C267.319 360.12 267.369 360 267.458 359.912C267.546 359.823 267.666 359.774 267.792 359.774H295.903C296.028 359.774 296.148 359.823 296.237 359.912C296.325 360 296.375 360.12 296.375 360.245C296.375 360.37 296.325 360.49 296.237 360.579C296.148 360.667 296.028 360.717 295.903 360.717Z" fill="#1C468A"/>
<path d="M295.903 362.777H267.792C267.666 362.777 267.546 362.727 267.458 362.639C267.369 362.55 267.319 362.431 267.319 362.305C267.319 362.18 267.369 362.06 267.458 361.972C267.546 361.884 267.666 361.834 267.792 361.834H295.903C296.028 361.834 296.148 361.884 296.237 361.972C296.325 362.06 296.375 362.18 296.375 362.305C296.375 362.431 296.325 362.55 296.237 362.639C296.148 362.727 296.028 362.777 295.903 362.777Z" fill="#1C468A"/>
<path d="M295.903 365.038H267.792C267.666 365.038 267.546 364.988 267.458 364.899C267.369 364.811 267.319 364.691 267.319 364.566C267.319 364.441 267.369 364.321 267.458 364.232C267.546 364.144 267.666 364.094 267.792 364.094H295.903C296.028 364.094 296.148 364.144 296.237 364.232C296.325 364.321 296.375 364.441 296.375 364.566C296.375 364.691 296.325 364.811 296.237 364.899C296.148 364.988 296.028 365.038 295.903 365.038Z" fill="#1C468A"/>
<path d="M298.269 378.438C297.384 379.157 296.436 379.794 295.436 380.341C295.53 380.092 295.578 379.827 295.577 379.56C295.577 379.224 295.289 379.073 295.034 378.932L294.839 378.829C294.896 378.781 294.937 378.716 294.954 378.644C294.97 378.571 294.962 378.495 294.931 378.427C294.909 378.374 294.871 378.328 294.823 378.295C294.775 378.263 294.718 378.245 294.66 378.245C294.601 378.245 294.545 378.263 294.496 378.295C294.448 378.328 294.41 378.374 294.388 378.427C294.371 378.469 294.358 378.513 294.35 378.558C294.31 378.536 294.275 378.507 294.247 378.471C294.41 378.167 294.567 377.853 294.709 377.538C294.722 377.503 294.723 377.463 294.711 377.427C294.7 377.39 294.676 377.359 294.643 377.338C294.53 377.254 294.388 377.218 294.248 377.238C294.108 377.257 293.981 377.33 293.894 377.441C293.803 377.584 293.749 377.748 293.738 377.918C293.728 378.088 293.761 378.258 293.835 378.411V378.476C293.629 378.85 293.401 379.219 293.156 379.56L293.086 379.49C293.014 379.421 292.951 379.345 292.896 379.262C293.011 378.969 293.082 378.66 293.108 378.346C293.11 378.316 293.104 378.285 293.09 378.258C293.077 378.23 293.057 378.207 293.031 378.19C293.006 378.173 292.977 378.163 292.946 378.161C292.916 378.159 292.885 378.165 292.858 378.178C292.701 378.238 292.57 378.35 292.486 378.495C292.402 378.64 292.371 378.809 292.397 378.975C292.409 379.093 292.444 379.207 292.5 379.311C292.428 379.473 292.341 379.627 292.239 379.772C292.225 379.791 292.215 379.812 292.21 379.836C292.205 379.859 292.206 379.883 292.212 379.905C292.217 379.928 292.228 379.95 292.243 379.968C292.258 379.986 292.277 380.001 292.299 380.01C292.21 380.371 292.039 380.707 291.8 380.992C291.594 381.203 291.219 381.366 290.975 381.116C290.84 380.933 290.772 380.709 290.779 380.482C290.719 379.962 290.694 379.439 290.704 378.915C290.707 378.669 290.747 378.424 290.823 378.189C290.877 378.043 290.948 377.826 291.018 378.07C291.043 378.215 291.043 378.363 291.018 378.509C291.018 378.726 291.344 378.753 291.366 378.509C291.387 378.265 291.507 377.701 291.214 377.538C290.921 377.376 290.747 377.598 290.633 377.799C290.226 378.53 290.389 379.528 290.448 380.319C290.497 380.954 290.736 381.729 291.534 381.528C292.332 381.328 292.576 380.379 292.749 379.723C292.761 379.688 292.761 379.65 292.749 379.615L292.842 379.707C292.888 379.746 292.931 379.787 292.972 379.832L292.728 380.162C292.704 380.191 292.691 380.228 292.691 380.265C292.691 380.303 292.704 380.339 292.728 380.368C292.783 380.433 292.858 380.479 292.941 380.498C293.024 380.518 293.111 380.511 293.19 380.478C293.269 380.444 293.335 380.387 293.378 380.314C293.422 380.24 293.441 380.155 293.433 380.07C293.428 379.989 293.408 379.91 293.374 379.837C293.612 379.49 293.84 379.138 294.046 378.753C294.099 378.808 294.164 378.852 294.235 378.881C294.306 378.91 294.382 378.924 294.459 378.921H294.497C294.583 379.014 294.684 379.092 294.795 379.154C294.899 379.198 294.999 379.25 295.094 379.311C295.257 379.447 295.208 379.598 295.175 379.788C295.143 379.978 295.045 380.287 294.974 380.531C294.605 380.702 294.315 381.009 294.166 381.387C294.108 381.56 294.106 381.747 294.161 381.922C294.215 382.096 294.323 382.248 294.47 382.358C294.491 382.372 294.516 382.382 294.542 382.386C294.568 382.389 294.594 382.387 294.619 382.378C294.644 382.37 294.666 382.356 294.685 382.337C294.703 382.318 294.717 382.296 294.725 382.271C294.926 381.789 295.099 381.301 295.268 380.807V380.758C295.571 380.585 295.897 380.428 296.195 380.249C297.003 379.771 297.769 379.227 298.486 378.623C298.67 378.552 298.442 378.292 298.269 378.438ZM294.079 377.978C294.079 377.837 294.144 377.587 294.307 377.587L294.084 378.053C294.08 378.028 294.078 378.003 294.079 377.978V377.978ZM294.513 381.962C294.372 381.691 294.578 381.355 294.817 381.133C294.719 381.409 294.622 381.686 294.513 381.962V381.962Z" fill="#1C468A"/>
<path d="M304.575 397.553H259.467V336.724H304.575V397.553ZM259.983 397.038H304.054V337.239H259.983V397.038Z" fill="#1C468A"/>
<path d="M289.124 329.536C289.124 329.536 280.023 337.336 283.312 338.507C286.601 339.678 295.36 334.474 297.086 334.474H302.767C302.767 334.474 297.151 327.969 294.193 328.159C292.426 328.258 290.699 328.727 289.124 329.536V329.536Z" fill="#FFB27D"/>
<path d="M237.342 315.685L225.885 407.419C224.99 407.251 224.057 407.018 223.112 406.741L210.017 401.738H209.963C209.963 401.738 213.99 397.574 219.455 383.128C224.919 368.681 237.342 315.685 237.342 315.685Z" fill="#468920"/>
<path d="M520.401 419.22C520.401 419.22 525.22 429.623 524.965 432.458C524.71 435.293 520.401 444.325 520.401 444.325L515.197 420.429L520.401 419.22Z" fill="#FFB27D"/>
<path d="M516.613 374.492L520.401 419.22L515.197 420.429L501.462 379.864L516.613 374.492Z" fill="#FFB27D"/>
<path d="M404.684 230.83L456.392 200.343L491.916 225.203L442.71 253.864L404.684 230.83Z" fill="#61B136"/>
<path d="M431.249 244.882C431.249 244.882 429.925 252.395 422.696 256.266C415.468 260.136 409.265 261.275 410.811 273.743C412.358 286.211 403.838 289.041 402.286 297.297C400.734 305.553 400.929 320.64 421.66 316.13C442.39 311.619 489.854 314.839 495.009 308.134C500.165 301.428 496.55 287.496 487.77 276.92C478.989 266.343 490.613 259.421 486.478 250.113C482.343 240.805 474.42 231.221 474.42 231.221C474.42 231.221 440.317 224.732 431.249 244.882Z" fill="#2E4213"/>
<path d="M441.044 587.965L448.04 617.39L458.513 617.33L458.899 587.965H441.044Z" fill="#FFB27D"/>
<path d="M529.166 589.217L549.066 617.39L556.821 607.442L544.844 585.346L529.166 589.217Z" fill="#FFB27D"/>
<path d="M468.559 291.421C468.635 291.453 467.278 324.18 461.667 324.239C460.489 324.239 451.806 301.325 450.699 301.021C444.691 299.395 443.845 284.704 443.926 284.688C446.471 284.184 447.182 280.693 447.15 265.687L448.3 265.915L467.636 269.737C467.636 269.737 467.191 275.814 467.18 281.544C467.169 286.347 467.457 290.906 468.559 291.421Z" fill="#FFB27D"/>
<path d="M390.46 258.564L389.831 257.247C403.903 250.557 404.657 234.755 404.636 231.101C404.636 230.872 404.702 230.647 404.828 230.455C404.953 230.263 405.131 230.111 405.341 230.017C405.44 229.974 405.549 229.956 405.657 229.965C405.765 229.974 405.869 230.01 405.959 230.07C406.049 230.13 406.123 230.212 406.173 230.308C406.224 230.404 406.249 230.511 406.247 230.619C406.22 234.885 405.135 251.614 390.46 258.564Z" fill="#EFCBAB"/>
<path d="M389.831 257.268L387.872 257.577L389.001 259.833L390.461 258.586L389.831 257.268Z" fill="#D8A987"/>
<path d="M387.872 257.578C387.872 257.578 385.278 258.754 384.589 258.093C384.589 258.093 384.887 260.386 385.946 260.841C385.946 260.841 388.116 260.57 389.001 259.833L387.872 257.578Z" fill="#EFCBAB"/>
<path d="M467.636 269.737C467.636 269.737 467.191 275.814 467.18 281.544C456.364 281.235 450.644 271.379 448.3 265.915L467.636 269.737Z" fill="#EF9E67"/>
<path d="M444.322 266.593C444.322 266.593 436.99 258.938 434.146 251.707C432.111 246.54 430.836 226.141 451.382 224.981C455.516 224.729 459.653 225.407 463.489 226.965C468.417 229.014 475.971 234.072 472.449 252.802L471.809 259.019L444.322 266.593Z" fill="#2E4213"/>
<path d="M554.96 601.008C554.96 601.008 549.821 601.891 545.598 602.217C544.665 602.287 543.775 602.325 542.994 602.325C540.964 602.325 537.306 601.561 534.853 600.991L534.669 600.948C533.583 600.693 532.764 600.487 532.46 600.406L532.33 600.373C532.33 600.373 506.699 571.897 492.328 526.198C491.992 525.114 491.63 524.03 491.243 522.945C483.374 500.031 467.072 471.273 458.476 445.241C457.108 441.099 455.882 437.196 454.78 433.499C454.418 432.317 454.076 431.156 453.754 430.014C447.421 408.031 445.614 393.601 443.904 378.183L495.568 391.313C495.568 391.313 517.281 485.275 554.96 601.008Z" fill="#F99746"/>
<path d="M471.017 272.794C471.017 272.794 446.01 278.258 442.829 262.646C439.649 247.034 434.309 237.232 450.145 233.085C465.98 228.938 470.3 234.262 472.623 239.217C474.946 244.171 477.442 270.967 471.017 272.794Z" fill="#FFB27D"/>
<path d="M461.498 230.375C461.498 230.375 458.323 250.075 448.327 254.91C438.331 259.746 433.186 257.838 433.186 257.838C437.466 252.225 439.66 245.302 439.394 238.252C439.394 238.252 454.552 222.721 461.498 230.375Z" fill="#2E4213"/>
<path d="M460.093 232.229C460.093 232.229 466.062 235.286 468.103 239.005C470.143 242.724 474.425 244.052 474.702 250.042C474.702 250.042 477.366 236.549 470.127 230.678C462.453 224.455 460.093 232.229 460.093 232.229Z" fill="#2E4213"/>
<path d="M447.714 615.747C448.145 619.817 447.689 623.932 446.379 627.809C446.379 627.809 444.664 635.615 452.348 635.761C460.033 635.908 461.927 635.181 461.031 630.395C460.136 625.608 458.502 617.33 458.502 617.33L447.714 615.747Z" fill="#FFB27D"/>
<path d="M446.351 627.809C446.351 627.809 444.924 635.181 445.809 639.095C445.809 639.095 448.131 640.836 453.721 640.836C459.018 640.836 461.78 639.095 461.78 639.095C461.78 639.095 461.943 631.018 460.526 627.614C460.515 627.614 455.061 635.789 446.351 627.809Z" fill="#468920"/>
<path d="M575.364 631.175C575.364 631.175 561.179 615.454 556.821 607.442L546.276 612.863L569.856 634.986L575.37 634.26L575.364 631.175Z" fill="#FFB27D"/>
<path d="M584.373 640.396C584.373 640.396 569.129 640.396 566.519 640.103C563.908 639.811 561.803 636.043 558.97 630.389C557.814 628.074 555.209 626.8 552.545 626.096V639.198H548.518L544.719 625.277C542.206 620.664 544.518 616.484 546.287 612.841C548.339 612.841 553.885 614.24 564.353 626.036C567.794 629.907 571.598 631.294 575.375 631.175C575.426 631.206 575.478 631.234 575.533 631.256C584.232 635.176 584.373 640.396 584.373 640.396Z" fill="#468920"/>
<path d="M545.598 602.217C544.665 602.287 543.775 602.325 542.993 602.325C540.963 602.325 537.306 601.561 534.853 600.992L534.668 600.948L532.46 600.406L532.329 600.374C532.329 600.374 506.698 571.897 492.328 526.198C491.991 525.114 491.63 524.03 491.243 522.946C483.374 500.031 467.071 471.273 458.475 445.241C457.108 441.1 455.881 437.197 454.779 433.499C454.418 432.318 454.076 431.156 453.754 430.014L462.909 423.113C462.909 423.113 490.347 467.489 498.835 509.252C505.884 543.865 536.172 588.746 545.598 602.217Z" fill="#EF7E29"/>
<path d="M463.87 513.144C464.027 533.451 462.996 580.142 460.353 599.474C460.353 599.474 457.841 601.691 451.61 601.718C445.234 601.718 442.385 599.398 442.385 599.398C435.742 565.788 431.016 537.978 427.575 514.012C424.753 494.35 422.246 477.485 420.319 462.973C418.604 450.115 429.409 415.268 429.409 415.268L469.964 411.333C469.291 446.922 463.783 501.343 463.87 513.144Z" fill="#F99746"/>
<path d="M451.61 601.712C448.37 601.9 445.15 601.09 442.385 599.392C435.742 565.782 431.016 537.972 427.575 514.006C424.753 494.344 422.246 477.479 420.319 462.967C418.604 450.109 429.409 415.263 429.409 415.263L443.161 424.045C443.161 424.045 423.657 441.793 428.449 475.289C433.241 508.786 444.946 596.974 451.61 601.712Z" fill="#EF7E29"/>
<path d="M515.49 387.231C512.81 388.06 510.063 388.649 507.279 388.993C502.785 389.649 498.395 390.077 495.589 391.34C487.308 395.097 467.207 284.254 467.207 284.254C467.207 284.254 481.859 284.395 488.551 294.966C495.242 305.537 521.394 357.768 523.722 374.492C524.775 382.016 520.857 385.415 515.49 387.231Z" fill="#61B136"/>
<path d="M545.598 536.72C545.598 536.72 544.258 540.071 540.567 544.776C538.351 547.59 535.885 550.197 533.198 552.566C524.981 559.83 511.881 567.69 491.655 571.594C490.57 571.8 489.484 571.995 488.399 572.179C482.299 573.187 476.46 573.908 470.865 574.402C460.818 575.287 450.723 575.503 440.648 575.047C434.711 574.77 429.49 574.282 425.105 573.735C415.196 572.499 409.547 570.976 409.547 570.976C409.547 570.976 409.547 470.812 417.812 411.333C422.386 378.395 437.734 284.71 437.734 284.71L445.331 283.539L463.625 324.239L467.202 284.254L475.521 286.921C477.528 287.57 479.338 288.716 480.781 290.253C482.225 291.79 483.255 293.667 483.775 295.709L545.598 536.72Z" fill="#61B136"/>
<path d="M486.641 382.862L444.208 378.563L451.084 317.143L493.522 321.442L486.641 382.862Z" fill="#BC3F3F"/>
<path d="M451.084 317.143L448.365 316.937L441.967 378.308L444.208 378.563L451.084 317.143Z" fill="#9B2323"/>
<path d="M415.489 348.796C415.489 348.796 445.282 357.893 473.762 361.959C473.762 361.959 483.156 366.019 478.744 367.13C477.615 367.417 420.59 379.837 412.135 371.776L415.489 348.796Z" fill="#FFB27D"/>
<path d="M445.267 283.539C445.267 283.539 422.973 286.249 419.218 290.727C407.36 304.946 396.61 365.645 405.906 379.664C417.009 396.404 434.125 370.128 439.476 354.651C442.287 346.623 446.792 298.137 445.267 283.539Z" fill="#61B136"/>
<path d="M470.957 361.563C470.957 361.563 474.457 361.237 475.119 360.121C476.449 357.887 478.549 357.914 480.302 357.622C482.055 357.329 484.02 355.41 484.367 355.795C484.714 356.18 483.075 358.294 482.164 359.08C483.226 359.139 484.288 358.977 485.284 358.603C486.527 358.012 490.895 353.03 490.912 355.177C490.961 360.337 490.564 361.14 486.141 364.804C482.505 367.802 470.176 368.913 470.176 368.913L470.957 361.563Z" fill="#FFB27D"/>
<path d="M445.207 347.468L444.338 356.191C442.679 355.817 441.055 355.306 439.481 354.662C427.255 349.783 432.079 325.497 432.079 325.497C433.984 335.201 440.116 342.698 445.207 347.468Z" fill="#468920"/>
<path d="M474.424 231.204C474.424 231.204 456.348 224.347 431.248 244.881L431.791 240.192C432.012 238.116 432.66 236.109 433.694 234.295C434.729 232.481 436.128 230.901 437.804 229.654C441.603 226.819 447.724 223.691 456.885 222.406C459.972 221.969 463.121 222.387 465.987 223.614C468.853 224.842 471.326 226.832 473.138 229.367L474.424 231.204Z" fill="#468920"/>
<path d="M515.49 387.231C512.81 388.06 510.063 388.649 507.279 388.993L495.551 337.288C495.551 337.288 515.283 377.034 515.49 387.231Z" fill="#468920"/>
<path d="M462.057 264.213C462.057 264.213 463.213 266.435 464.906 266.446C466.599 266.457 470.914 266.023 471.223 265.633C471.666 264.745 472.045 263.827 472.357 262.885C472.357 262.885 465.259 262.754 462.057 264.213Z" fill="white"/>
<path d="M1043.62 329.958C1042.47 328.371 1041.13 326.934 1039.62 325.681C1037.48 324.055 1035.23 320.954 1035.89 319.957C1036.56 318.959 1042.95 314.254 1042.95 314.254L1046.37 322.694L1043.62 329.958Z" fill="#FFB27D"/>
<path d="M1098.95 231.443L1154.77 209.341L1185.99 239.417L1132.93 260.092L1098.95 231.443Z" fill="#61B136"/>
<path d="M1068.49 350.585L1046.24 322.076L1043.59 329.958C1043.59 329.958 1066.39 381.675 1076.79 376.861C1081.67 374.622 1068.49 350.585 1068.49 350.585Z" fill="#FFB27D"/>
<path d="M1137.96 257.599C1137.96 257.599 1127.11 263.98 1133.77 276.345C1133.77 276.345 1124.28 274.61 1122.23 271.78C1122.35 272.394 1122.55 272.989 1122.82 273.553C1122.82 273.553 1111.7 272.144 1109.64 267.997C1105.41 259.459 1115.67 259.99 1120.11 251.127C1125.9 239.542 1134.99 230.435 1147.85 236.831C1147.85 236.831 1165.82 235.85 1157.69 258.857C1149.56 281.863 1157.25 283.902 1157.25 283.902C1157.25 283.902 1154.83 284.384 1153.8 284.113C1153.8 284.113 1152.45 283.143 1152.37 282.232C1152.33 282.875 1152.41 283.519 1152.6 284.135C1152.6 284.135 1144.1 282.725 1140.79 278.508C1137.48 274.29 1135.5 262.137 1137.96 257.599Z" fill="#C94C43"/>
<path d="M1148.66 287.062C1148.98 289.919 1149.36 292.483 1149.53 293.697C1149.65 294.57 1151.63 310.128 1148.01 310.286C1144.38 310.443 1135.44 328.88 1131.42 328.717C1126.9 328.549 1122.9 294.635 1122.31 294.635C1123.46 294.131 1126.98 282.975 1128.1 278.725C1129.45 273.564 1130.51 267.986 1130.51 267.986L1148.83 269.14L1149.92 269.211C1149.29 271.531 1148.79 273.883 1148.42 276.258C1148.38 276.551 1148.34 276.849 1148.3 277.136C1147.97 279.57 1148.27 283.544 1148.66 287.062Z" fill="#FFB27D"/>
<path d="M1127.98 266.153C1127.98 266.153 1125.01 256.737 1125.61 249.522C1126.04 244.372 1134.26 229.757 1151.91 237.238C1151.91 237.238 1156.26 236.208 1160.34 240.913C1163.6 244.654 1167.83 251.977 1157.18 266.191L1154.08 271.13L1127.98 266.153Z" fill="#C94C43"/>
<path d="M1148.66 287.062C1135.85 283.311 1130.4 268.522 1130.4 268.522C1135.83 268.679 1142.88 272.442 1148.43 276.263C1148.39 276.556 1148.34 276.854 1148.31 277.142C1147.97 279.57 1148.27 283.544 1148.66 287.062Z" fill="#ED975D"/>
<path d="M1149.57 281.874C1149.57 281.874 1126.41 276.155 1130.2 261.817C1133.98 247.478 1133.54 237.064 1148.49 240.133C1163.44 243.201 1164.86 249.408 1164.77 254.504C1164.68 259.599 1155.69 282.986 1149.57 281.874Z" fill="#FFB27D"/>
<path d="M1159.09 242.512C1159.09 242.512 1148.31 257.691 1137.96 257.599C1127.61 257.507 1124.1 253.804 1124.1 253.804C1129.99 250.874 1134.68 245.989 1137.37 239.986C1137.37 239.986 1156.46 233.243 1159.09 242.512Z" fill="#C94C43"/>
<path d="M1157.16 243.466C1157.16 243.466 1160.88 248.47 1161.06 252.427C1161.24 256.385 1159.77 264.045 1162.03 264.354C1162.03 264.354 1169.82 254.173 1166.19 246.285C1162.34 237.964 1157.16 243.466 1157.16 243.466Z" fill="#C94C43"/>
<path d="M1157.88 244.263C1157.88 244.263 1148.71 260.7 1134.99 263.112C1134.99 263.112 1150.09 255.523 1154.21 244.139C1158.33 232.755 1157.88 244.263 1157.88 244.263Z" fill="#C94C43"/>
<path d="M1145.96 272.659C1145.96 272.659 1146.24 274.827 1147.64 275.369C1149.03 275.911 1152.74 276.822 1153.11 276.589C1153.75 275.986 1154.34 275.339 1154.88 274.654C1154.88 274.654 1149.04 272.42 1145.96 272.659Z" fill="white"/>
<path d="M1137.31 492.208C1137.01 493.434 1136.72 494.648 1136.43 495.851C1134.68 503.099 1133.06 509.821 1132.04 515.448C1130.71 522.767 1130.41 528.209 1132.13 530.497C1136.64 536.4 1135.5 567.988 1134.02 590.74C1133.14 604.293 1132.13 614.674 1132.13 614.674L1123.95 623.098C1123.95 623.098 1121.36 609.66 1118.09 593.359C1113.7 571.447 1108.08 544.358 1105.86 537.728C1104.1 532.465 1101.52 510.016 1099.29 487.091C1099.18 485.947 1099.06 484.803 1098.95 483.649C1098.56 479.643 1098.19 475.647 1097.83 471.723C1095.8 450.039 1098.73 429.618 1098.73 429.618C1098.73 429.618 1109.38 420.863 1123.09 419.681C1131.17 418.982 1138.77 421.551 1142.52 431.466C1147.99 445.924 1142.45 470.834 1137.31 492.208Z" fill="#FFB27D"/>
<path d="M1137.31 492.209C1126.09 484.121 1110.31 469.722 1104.59 446.13C1103.5 434.399 1112.73 423.248 1123.09 419.725C1131.17 419.025 1138.77 421.59 1142.52 431.51C1147.99 445.924 1142.45 470.834 1137.31 492.209Z" fill="#ED975D"/>
<path d="M1178.21 349.636L1233.32 363.856V370.285C1233.32 370.285 1178.47 369.694 1174.91 363.563C1171.35 357.432 1178.21 349.636 1178.21 349.636Z" fill="#FFB27D"/>
<path d="M1233.32 561.554L1230.75 572.179C1230.75 572.179 1219.35 566.302 1204.91 558.708C1182.39 546.857 1152.42 530.828 1146.54 526.323C1142.67 523.357 1137.56 507.235 1132.81 489.01C1125.76 461.829 1119.53 429.954 1119.53 429.954C1119.53 429.954 1129.98 389.801 1157.96 414.374C1174.7 429.081 1172.07 457.422 1170.26 479.464C1169.04 494.252 1168.16 506.205 1173.72 509.279C1181.69 513.724 1201.01 529.966 1214.67 545.86C1219.56 551.557 1223.73 557.211 1226.39 562.264L1233.32 561.554Z" fill="#FFB27D"/>
<path d="M1233.32 363.878C1233.32 363.878 1243.43 358.907 1247.43 358.424C1251.43 357.942 1258.21 357.779 1258.21 358.424C1258.21 359.069 1250.97 363.552 1249.04 363.878C1247.11 364.203 1243.41 366.935 1244.54 367.255C1245.67 367.575 1251.6 366.214 1251.69 367.255C1251.79 368.296 1248.08 368.941 1247.43 369.748C1246.79 370.556 1244.54 371.516 1240.92 371.033C1237.3 370.551 1233.32 370.307 1233.32 370.307V363.878Z" fill="#FFB27D"/>
<path d="M1233.32 515.248C1197.73 566.438 1105.91 572.168 1105.91 572.168C1091 517.817 1097.11 380.39 1100.52 329.308C1100.32 320.391 1100.66 312.845 1102.12 309.944C1104.41 305.423 1116.82 297.574 1121.27 293.681C1121.89 293.438 1122.54 293.274 1123.2 293.193C1123.87 295.535 1132.14 323.583 1132.97 323.009C1133.8 322.434 1147.75 295.785 1149.22 292.651C1150.72 292.695 1151.74 292.727 1152.03 292.749C1154.5 292.863 1167.77 295.519 1168.89 297.66C1169.28 298.408 1173.09 308.502 1177.88 321.865V321.898C1186.85 346.926 1200.02 342.237 1205.26 349.637C1208.54 354.299 1207.13 362.999 1201.03 370.518C1200.51 371.158 1199.97 371.785 1199.4 372.399C1194.76 377.305 1188.46 380.206 1178.24 378.699C1175.69 378.325 1170.53 375.869 1166.33 372.237C1176.38 410.075 1233.32 515.248 1233.32 515.248Z" fill="#61B136"/>
<path d="M1123.81 291.892L1119 294.646C1119 294.646 1132.15 331.818 1132.8 331.655C1133.44 331.493 1153.21 292.857 1153.21 292.857L1149.17 291.177L1132.95 323.003L1123.81 291.892Z" fill="#F99746"/>
<path d="M1164.84 243.96C1164.84 243.96 1147.97 234.511 1120.11 251.126L1121.31 246.556C1121.84 244.537 1122.78 242.649 1124.07 241.008C1125.36 239.367 1126.97 238.01 1128.81 237.021C1133.02 234.787 1139.51 232.592 1148.76 232.684C1151.88 232.707 1154.93 233.585 1157.58 235.222C1160.24 236.86 1162.39 239.194 1163.8 241.97L1164.84 243.96Z" fill="#468920"/>
<path d="M1080.8 256.076L1080.38 254.672C1095.31 250.248 1098.51 234.755 1099.06 231.145C1099.1 230.918 1099.2 230.707 1099.35 230.536C1099.5 230.366 1099.7 230.244 1099.93 230.185V230.185C1100.03 230.157 1100.14 230.155 1100.25 230.179C1100.35 230.204 1100.45 230.255 1100.53 230.328C1100.61 230.4 1100.67 230.491 1100.71 230.593C1100.74 230.695 1100.75 230.805 1100.73 230.912C1100.02 235.107 1096.37 251.463 1080.8 256.076Z" fill="#EFCBAB"/>
<path d="M1080.38 254.672H1078.39L1079.15 257.079L1080.8 256.076L1080.38 254.672Z" fill="#D8A987"/>
<path d="M1078.39 254.672C1078.39 254.672 1075.65 255.436 1075.06 254.672C1075.06 254.672 1075.01 256.987 1075.98 257.599C1075.98 257.599 1078.19 257.675 1079.15 257.057L1078.39 254.672Z" fill="#EFCBAB"/>
<path d="M1124.8 295.237C1124.8 295.237 1129.2 303.331 1146.74 295.958L1132.96 323.003L1124.8 295.237Z" fill="white"/>
<path d="M1119.02 294.641C1119.02 294.641 1116.73 371.619 1097.73 386.516C1096.47 387.529 1095.01 388.267 1093.45 388.684C1083.85 391.134 1076.87 385.431 1072.16 377.506C1065.59 366.512 1063.37 351.268 1064.49 347.756C1066.6 341.071 1071.49 352.895 1081.73 349.647C1091.98 346.4 1094.76 305.157 1101.91 299.14C1103.76 297.595 1119.02 294.641 1119.02 294.641Z" fill="#61B136"/>
<path d="M1026.27 349.403C1024.33 348.339 1022.47 347.161 1020.68 345.874C1019.46 345.008 1018.33 344.028 1017.3 342.947C1016.83 342.45 1016.44 341.888 1016.13 341.277C1016.13 341.277 1039.33 313.386 1041.17 310.107C1043.02 306.827 1060.52 279.749 1060.52 279.749C1062.14 280.54 1063.72 281.431 1065.23 282.416C1066.19 283.04 1067.21 283.755 1068.19 284.541C1070 285.915 1071.55 287.614 1072.75 289.55C1072.75 289.55 1047.24 315.343 1045.47 319.067C1043.69 322.792 1026.27 349.403 1026.27 349.403Z" fill="#EFCBAB"/>
<path d="M1020.68 345.874C1019.46 345.008 1018.33 344.028 1017.3 342.947C1016.83 342.45 1016.44 341.888 1016.13 341.277C1016.13 341.277 1039.33 313.386 1041.17 310.107C1043.02 306.827 1060.52 279.749 1060.52 279.749C1062.14 280.54 1063.72 281.431 1065.23 282.416C1066.19 283.04 1067.21 283.755 1068.19 284.541C1061.04 291.832 1041.72 311.717 1040.07 315.126C1038.47 318.46 1025.89 337.873 1020.68 345.874Z" fill="#DDB08E"/>
<path d="M1044.54 304.642C1044.54 304.642 1037.7 311.272 1036.91 315.793L1044.07 321.529C1044.07 321.529 1050.33 315.403 1052.32 310.871L1044.54 304.642Z" fill="#C94C43"/>
<path d="M1046.3 322.076C1046.3 322.076 1046.79 317.577 1045.75 315.994C1044.72 314.411 1044.62 310.031 1043.65 310.508C1042.69 310.985 1043.31 314.546 1042.7 316.276C1042.09 318.005 1041.2 326.033 1043.65 327.567C1046.11 329.102 1046.3 322.076 1046.3 322.076Z" fill="#FFB27D"/>
<path d="M1039.33 310.784C1039.33 310.784 1036.48 310.345 1035.44 312.232C1034.41 314.118 1033.12 317.192 1035.08 318.406C1037.04 319.62 1039.33 310.784 1039.33 310.784Z" fill="#FFB27D"/>
<path d="M1134.02 590.746C1133.14 604.298 1132.13 614.679 1132.13 614.679L1123.95 623.103C1123.95 623.103 1121.36 609.665 1118.09 593.364C1118.09 593.364 1127.27 596.551 1134.02 590.746Z" fill="white"/>
<path d="M1140.37 626.85L1135.95 629.24C1134.32 629.782 1133.02 629.967 1131.4 630.59C1128.93 631.533 1127.19 633.393 1127.11 633.724C1125.86 638.787 1124.09 638.461 1124.09 638.461L1106.35 638.63C1105.52 638.212 1106.93 634.634 1107.61 633.967C1109.29 632.341 1114.31 633.143 1116.14 627.956C1117.17 625.039 1122.26 615.97 1122.26 615.97H1122.3C1122.47 615.878 1123.39 615.688 1128.54 616.756C1131.19 617.298 1132.29 611.931 1132.29 611.931C1132.93 612.091 1133.53 612.373 1134.05 612.761C1134.98 613.413 1135.66 614.344 1136.01 615.417C1136.65 617.26 1139.27 619.905 1141.13 621.64C1142.26 622.692 1143.12 623.402 1143.12 623.402C1143.12 623.402 1143.9 624.318 1140.37 626.85Z" fill="#468920"/>
<path d="M1233.32 561.554L1230.74 572.179C1230.74 572.179 1219.35 566.302 1204.91 558.708C1210.53 555.146 1213.31 549.866 1214.68 545.882C1219.56 551.579 1223.74 557.233 1226.39 562.286L1233.32 561.554Z" fill="white"/>
<path d="M1248.06 565.679H1247.99C1247.66 565.598 1246.12 565.094 1245.11 562.654C1244.44 561.028 1244.24 559.732 1243.62 558.149L1241.11 553.813C1238.47 550.349 1237.55 551.162 1237.55 551.162C1237.55 551.162 1236.86 552.04 1235.85 553.206C1234.16 555.125 1231.59 557.797 1229.77 558.486C1228.7 558.869 1227.79 559.583 1227.16 560.524C1226.79 561.063 1226.53 561.668 1226.38 562.307C1226.38 562.307 1231.81 563.251 1231.32 565.912C1230.4 571.062 1230.62 571.995 1230.71 572.168L1230.75 572.201C1230.75 572.201 1239.97 577.02 1242.91 577.968C1248.16 579.644 1250.9 583.211 1252.6 584.837C1252.94 585.162 1253.35 585.405 1253.8 585.546C1254.24 585.687 1254.72 585.722 1255.18 585.65C1256.57 585.433 1258.36 584.989 1258.75 584.138L1248.06 565.679Z" fill="#468920"/>
<path d="M1129.33 346.747C1129.33 346.221 1129.48 345.706 1129.78 345.268C1130.07 344.831 1130.49 344.489 1130.97 344.288C1131.46 344.086 1132 344.034 1132.51 344.136C1133.03 344.239 1133.5 344.493 1133.88 344.865C1134.25 345.237 1134.5 345.711 1134.61 346.228C1134.71 346.744 1134.66 347.279 1134.45 347.766C1134.25 348.252 1133.91 348.668 1133.47 348.96C1133.03 349.253 1132.52 349.409 1131.99 349.409C1131.29 349.409 1130.61 349.128 1130.11 348.629C1129.61 348.13 1129.33 347.453 1129.33 346.747Z" fill="#233862"/>
<path d="M1129.33 366.496C1129.33 365.969 1129.48 365.454 1129.77 365.016C1130.07 364.577 1130.48 364.235 1130.97 364.033C1131.46 363.83 1131.99 363.777 1132.51 363.879C1133.03 363.981 1133.5 364.234 1133.87 364.606C1134.25 364.978 1134.5 365.453 1134.61 365.969C1134.71 366.486 1134.66 367.021 1134.45 367.508C1134.25 367.994 1133.91 368.41 1133.47 368.703C1133.03 368.996 1132.52 369.152 1131.99 369.152C1131.29 369.152 1130.61 368.872 1130.11 368.374C1129.61 367.876 1129.33 367.201 1129.33 366.496V366.496Z" fill="#233862"/>
<path d="M1201.03 370.54C1200.51 371.179 1199.97 371.807 1199.4 372.421C1194.76 377.327 1188.46 380.227 1178.23 378.72C1175.69 378.346 1170.53 375.89 1166.33 372.258C1166.33 372.258 1157.88 349.208 1159.02 345.956C1160.16 342.703 1176.43 367.976 1189.96 369.152C1195.18 369.613 1198.76 370.046 1201.03 370.54Z" fill="#468920"/>
<path d="M1101.73 352.618L1097.71 386.499C1096.45 387.512 1094.99 388.251 1093.43 388.668C1083.83 391.118 1076.85 385.415 1072.13 377.49C1077.05 378.173 1088.98 379.235 1091.59 374.042C1094.89 367.488 1101.73 352.618 1101.73 352.618Z" fill="#468920"/>
<path d="M868.702 168.034C868.702 168.034 873.484 163.724 874.672 160.705C875.86 157.685 875.703 152.611 875.703 149.32C875.514 149.248 875.311 149.22 875.109 149.238C874.908 149.256 874.713 149.319 874.54 149.424C874.366 149.528 874.219 149.671 874.11 149.841C874 150.011 873.931 150.204 873.907 150.405C873.554 151.971 872.914 155.603 871.584 156.335C870.255 157.067 867.281 156.98 866.597 160.726C865.913 164.472 868.702 168.034 868.702 168.034Z" fill="#B56F40"/>
<path d="M857.757 168.744C857.757 168.744 853.415 159.848 854.289 156.953C855.163 154.058 868.535 150.882 870.293 152.248C872.051 153.614 870.293 170.229 870.293 170.229L857.757 168.744Z" fill="#B56F40"/>
<path d="M998.378 436.697C998.378 436.697 997.743 444.037 1000.3 447.539C1002.86 451.041 1004.24 454.245 1005.09 452.646C1005.94 451.047 1003.71 445.517 1004.45 445.626C1005.19 445.734 1007.27 452.223 1008.31 454.245C1009.35 456.267 1011.57 459.46 1013.08 457.861C1014.59 456.262 1011.7 441.154 1010.52 439.24C1009.35 437.326 1006.9 433.065 1006.9 433.065L998.378 436.697Z" fill="#B56F40"/>
<path d="M906.495 215.359L957.361 186.779L991.534 229.079L944.966 251.647L906.495 215.359Z" fill="#61B136"/>
<path d="M927.856 228.835C927.856 228.835 926.771 233.4 923.807 235.015C920.844 236.631 925.512 241.022 924.35 244.231C923.189 247.44 927.91 251.625 927.91 251.625L960.764 255.42C962.225 254.695 963.473 253.606 964.386 252.257C965.3 250.908 965.849 249.346 965.98 247.722C966.403 242.084 966.908 235.037 966.908 235.037L952.554 224.097L931.888 225.073L927.856 228.835Z" fill="#8E482D"/>
<path d="M817.473 174.116C816.468 171.69 815.608 169.206 814.895 166.678C814.406 164.968 814.084 163.214 813.935 161.442C813.864 160.633 813.916 159.818 814.087 159.024C814.087 159.024 856.416 150.285 860.59 148.599C864.763 146.914 901.172 134.722 901.172 134.722C902.093 136.658 902.894 138.65 903.57 140.685C904.031 142.054 904.422 143.445 904.743 144.854C905.35 147.564 905.671 150.421 905.258 152.904C905.258 152.904 862.348 157.994 857.909 160.124C853.47 162.255 817.473 174.116 817.473 174.116Z" fill="#EFCBAB"/>
<path d="M814.895 166.678C814.406 164.968 814.084 163.214 813.935 161.442C813.864 160.633 813.916 159.818 814.087 159.024C814.087 159.024 856.416 150.285 860.59 148.599C864.763 146.914 901.172 134.722 901.172 134.722C902.093 136.658 902.894 138.65 903.57 140.685C904.031 142.054 904.423 143.445 904.743 144.854C892.657 146.328 859.884 150.502 855.814 152.443C851.858 154.367 825.7 163.101 814.895 166.678Z" fill="#DDB08E"/>
<path d="M867.753 146.03C867.753 146.03 856.454 147.114 852.357 150.752L854.75 161.398C854.75 161.398 865.137 160.347 870.353 157.604L867.753 146.03Z" fill="#C94C43"/>
<path d="M878.064 638.629C878.064 638.629 878.064 631.837 879.035 629.576C880.007 627.315 883.556 618.121 883.556 618.121H897.449C897.449 618.121 900.032 626.513 900.195 629.256C900.357 631.999 900.195 638.629 900.195 638.629H878.064Z" fill="#468920"/>
<path d="M966.245 638.629C966.245 638.629 966.245 631.837 965.279 629.576C964.313 627.315 960.753 618.121 960.753 618.121H946.866C946.866 618.121 944.277 626.513 944.12 629.256C943.963 631.999 944.12 638.629 944.12 638.629H966.245Z" fill="#468920"/>
<path d="M931.497 256.206C931.497 256.206 928.713 271.086 925.767 277.489L908.998 285.723L932.496 332.127L964.737 303.016L954.04 282.151C954.04 282.151 953.02 261.47 956.314 254.384C959.608 247.299 931.497 256.206 931.497 256.206Z" fill="#B56F40"/>
<path d="M931.096 258.261C931.096 258.261 933.939 269.807 942.492 270.875C951.045 271.943 954.431 262.635 954.431 262.635L931.096 258.261Z" fill="#99592E"/>
<path d="M942.15 266.533C936.007 265.476 925.929 255.539 927.497 245.391L929.94 229.556C930.509 225.854 933.559 223.219 936.723 223.707L960.221 227.317C963.385 227.805 965.502 231.231 964.932 234.939L962.625 249.89C960.986 260.516 949.194 267.742 942.15 266.533Z" fill="#B56F40"/>
<path d="M879.785 403.364C879.741 401.515 882.205 476.965 878.58 519.801C875.004 562.085 878.58 620.973 878.58 620.973C878.58 620.973 890.204 627.375 902.805 620.973C902.805 620.973 916.622 539.252 916.535 519.801C916.443 499.088 931.573 406.595 931.573 406.595L879.785 403.364Z" fill="#F99746"/>
<path d="M965.746 620.968C965.746 620.968 954.122 627.375 941.526 620.968C941.526 620.968 927.709 539.252 927.796 519.801C927.834 511.052 925.159 489.498 922.055 467.521C917.805 437.457 912.753 406.595 912.753 406.595L966.577 403.239C966.577 403.239 962.137 477.507 965.773 519.791C969.409 562.074 965.746 620.968 965.746 620.968Z" fill="#F99746"/>
<path d="M937.108 246.464C934.813 246.112 930.303 244.898 930.113 240.789C930.06 240.236 930.135 239.678 930.332 239.158C930.528 238.639 930.842 238.171 931.247 237.791C931.739 237.385 932.315 237.093 932.934 236.937C933.552 236.78 934.198 236.763 934.824 236.886L941.878 237.97C943.219 238.176 944.098 238.702 944.489 239.542C945.14 240.951 944.19 242.767 943.756 243.488C942.253 245.939 940.554 246.931 938.405 246.605C938.302 246.6 937.814 246.573 937.108 246.464ZM934.753 237.346C934.195 237.236 933.62 237.25 933.068 237.388C932.516 237.525 932.002 237.783 931.562 238.143C931.209 238.477 930.937 238.887 930.767 239.342C930.597 239.796 930.533 240.284 930.58 240.767C930.677 242.876 932.012 244.415 934.552 245.353C935.804 245.796 937.112 246.059 938.438 246.134V246.134C940.381 246.432 941.933 245.51 943.322 243.234C943.631 242.729 944.603 240.973 944.027 239.732C943.707 239.049 942.942 238.604 941.775 238.425L934.753 237.346Z" fill="#2C3A64"/>
<path d="M953.378 248.963C952.667 248.855 952.19 248.73 952.097 248.709C949.927 248.373 948.63 246.92 947.935 244.128C947.734 243.315 947.392 241.293 948.423 240.144C949.048 239.466 950.051 239.222 951.387 239.428L958.441 240.512C959.075 240.586 959.684 240.798 960.227 241.133C960.769 241.469 961.23 241.919 961.578 242.453C961.85 242.938 962.008 243.479 962.039 244.034C962.07 244.589 961.974 245.144 961.757 245.657C960.341 249.516 955.668 249.316 953.378 248.963ZM951.327 239.894C950.155 239.71 949.297 239.894 948.787 240.463C947.864 241.472 948.244 243.434 948.407 244.014C949.053 246.605 950.258 247.95 952.206 248.248H952.233C953.52 248.571 954.847 248.712 956.173 248.665C958.887 248.535 960.612 247.467 961.339 245.489C961.531 245.041 961.618 244.556 961.592 244.07C961.567 243.584 961.43 243.111 961.193 242.686C960.882 242.21 960.469 241.81 959.983 241.514C959.498 241.217 958.953 241.033 958.387 240.973L951.327 239.894Z" fill="#2C3A64"/>
<path d="M943.605 241.569C943.544 241.557 943.489 241.525 943.449 241.479C943.408 241.433 943.383 241.374 943.379 241.313C943.375 241.251 943.391 241.19 943.425 241.138C943.458 241.087 943.508 241.048 943.567 241.027C943.691 240.989 946.649 240.176 948.901 241.851C948.934 241.872 948.963 241.899 948.985 241.931C949.007 241.964 949.023 242 949.03 242.038C949.037 242.077 949.036 242.116 949.028 242.154C949.019 242.193 949.002 242.228 948.979 242.26C948.955 242.291 948.926 242.317 948.892 242.336C948.857 242.356 948.82 242.368 948.781 242.372C948.742 242.375 948.703 242.371 948.665 242.359C948.628 242.347 948.594 242.327 948.565 242.301C946.535 240.794 943.751 241.559 943.724 241.564C943.685 241.574 943.644 241.575 943.605 241.569V241.569Z" fill="#2C3A64"/>
<path d="M937.391 285.669L921.479 278.811C921.479 278.811 913.258 344.113 924.231 348.157C924.231 348.157 955.544 292.608 953.411 285.479L937.391 285.669Z" fill="white"/>
<path d="M927.329 274.675C927.329 274.675 922.852 275.439 920.508 277.673C920.508 277.673 923.916 288.743 932.99 292.044L936.881 285.69C936.881 285.69 929.468 282.205 927.329 274.675Z" fill="#D2E3FC"/>
<path d="M936.859 285.669C936.859 285.669 951.669 285.127 953.878 277.971C955.789 280.227 956.803 283.105 956.727 286.059C956.727 286.059 952.038 293.107 940.321 293.215L936.859 285.669Z" fill="#D2E3FC"/>
<path d="M938.091 255.431C938.091 255.431 945.97 255.777 949.449 257.176C949.449 257.176 947.045 260.022 943.897 259.54C940.75 259.057 938.552 257.539 938.091 255.431Z" fill="#FFF0E6"/>
<path d="M882.286 232.234C875.139 236.734 865.376 242.832 857.409 247.652C857.05 246.46 856.767 245.247 856.563 244.02C853.92 227.187 857.757 168.744 857.757 168.744C859.465 167.922 861.299 167.393 863.183 167.177C868.371 166.754 870.32 170.229 870.32 170.229C870.32 170.229 879.328 221.647 882.286 232.234Z" fill="#B56F40"/>
<path d="M1008.85 435.516L1003.46 437.755C994.839 440.818 985.554 436.671 982.721 427.997C978.922 416.277 978.531 403.651 977.126 393.259C976.431 388.153 975.633 377.614 972.535 369.407L977.961 551.08C896.792 556.821 857.192 510.217 857.192 510.217C855.092 461.038 874.77 350.211 881.939 311.809C878.476 304.008 853.925 281.614 849.822 259.621C847.918 249.414 853.887 242.187 861.137 237.314C870.265 231.166 881.418 228.743 881.418 228.743L907.651 263.779C908.491 264.652 909.23 265.615 909.854 266.652C911.879 270.767 922.385 277.597 922.385 277.597C922.352 277.814 923.514 336.686 925.641 338.54C928.729 337.369 949.427 295.974 954.002 282.162C961.247 284.171 968.336 286.707 975.21 289.751C975.21 289.751 989.412 297.34 991.426 330.338C993.13 358.337 1010.26 394.072 1014.14 426.539C1014.36 428.406 1013.96 430.293 1013 431.913C1012.05 433.533 1010.59 434.798 1008.85 435.516Z" fill="#61B136"/>
<path d="M919.444 275.543C919.444 275.543 921.36 332.599 923.785 346.883L960.216 283.999L955.191 282.145L926.401 334.247L923.563 277.565L919.444 275.543Z" fill="#F99746"/>
<path d="M927.329 273.325C927.329 273.325 922.852 274.095 920.508 276.329C920.508 276.329 923.916 287.393 932.99 290.694L936.881 285.691C936.881 285.691 929.468 280.855 927.329 273.325Z" fill="white"/>
<path d="M936.859 285.669C936.859 285.669 951.669 283.756 953.878 276.627C955.79 278.882 956.804 281.761 956.727 284.715C956.727 284.715 952.038 291.762 940.321 291.865L936.859 285.669Z" fill="white"/>
<path d="M917.816 355.665C919.303 355.665 920.508 354.461 920.508 352.976C920.508 351.491 919.303 350.287 917.816 350.287C916.329 350.287 915.124 351.491 915.124 352.976C915.124 354.461 916.329 355.665 917.816 355.665Z" fill="#233862"/>
<path d="M910.083 377.181C910.083 376.645 910.242 376.121 910.54 375.675C910.838 375.229 911.262 374.882 911.758 374.677C912.253 374.471 912.799 374.418 913.325 374.522C913.852 374.627 914.335 374.885 914.715 375.264C915.094 375.643 915.353 376.126 915.457 376.652C915.562 377.178 915.508 377.723 915.303 378.218C915.097 378.713 914.75 379.137 914.303 379.434C913.857 379.732 913.333 379.891 912.796 379.891C912.076 379.891 911.386 379.606 910.877 379.097C910.368 378.589 910.083 377.9 910.083 377.181V377.181Z" fill="#233862"/>
<path d="M910.174 242.139L911.07 241.293C902.056 231.801 906.245 219.17 907.369 216.313C907.443 216.13 907.461 215.929 907.42 215.736C907.38 215.543 907.282 215.366 907.141 215.229V215.229C907.076 215.165 906.997 215.119 906.91 215.093C906.823 215.068 906.731 215.065 906.643 215.085C906.554 215.104 906.472 215.145 906.404 215.205C906.335 215.264 906.283 215.339 906.251 215.424C904.986 218.785 900.775 232.234 910.174 242.139Z" fill="#EFCBAB"/>
<path d="M911.07 241.293L912.514 242.128L910.945 243.559L910.175 242.139L911.07 241.293Z" fill="#D8A987"/>
<path d="M912.514 242.128C912.514 242.128 914.196 243.835 914.934 243.526C914.934 243.526 914.006 245.234 913.04 245.272C913.04 245.272 911.412 244.399 910.946 243.559L912.514 242.128Z" fill="#EFCBAB"/>
<path d="M928.681 232.273C928.681 232.273 934.992 232.695 936.859 229.502C936.859 229.502 941.982 230.782 944.239 228.868C944.239 228.868 952.146 230.462 952.38 227.242C952.38 227.242 958.42 239.32 965.041 236.794C971.661 234.267 954.453 222.027 954.453 222.027L931.926 225.025L928.681 232.273Z" fill="#8E482D"/>
<path d="M929.147 223.225L927.855 228.836C927.855 228.836 945.449 222.596 966.929 235.015L966.679 225.979C966.657 225.106 966.447 224.248 966.064 223.464C965.681 222.679 965.134 221.985 964.459 221.43C960.579 218.237 951.283 211.96 934.069 216.958C931.671 217.657 929.706 220.785 929.147 223.225Z" fill="#468920"/>
<path d="M852.26 154.037C852.195 153.695 851.039 151.277 852.623 149.033C854.208 146.789 864.633 143.352 865.604 145.168C866.576 146.984 865.962 153.299 862.614 154.676C859.266 156.053 852.515 155.446 852.26 154.037Z" fill="#B56F40"/>
<path d="M881.939 311.782C878.476 303.981 853.925 281.587 849.822 259.594C847.918 249.386 853.887 242.16 861.137 237.287C861.137 237.287 857.74 252.731 867.384 266.663C877.027 280.595 881.939 311.782 881.939 311.782Z" fill="#468920"/>
<path d="M1003.48 437.754C994.855 440.817 985.57 436.67 982.737 427.997C978.938 416.276 978.548 403.651 977.142 393.259C976.447 388.152 975.65 377.614 972.551 369.407C972.839 369.862 982.184 384.585 990.568 408.481C999.083 432.718 996.435 436.258 1003.48 437.754Z" fill="#468920"/>
<path d="M1332.94 638.234H1287.16C1284.7 636.152 1288.86 631.43 1293.19 631.116C1295.08 630.975 1297.46 631.365 1300.18 631.94C1300.81 623.581 1304.41 586.008 1317.97 587.52C1333.22 589.206 1317.97 604.065 1313.66 612.863C1310.47 619.369 1307.1 628.72 1305.56 633.127C1306.8 633.398 1308.08 633.669 1309.39 633.902C1311.41 627.701 1318.93 606.857 1328.49 608.071C1339.72 609.491 1335.2 617.829 1327.25 622.811C1321.41 626.459 1314.22 631.647 1310.83 634.152C1313.79 634.666 1316.79 634.905 1319.78 634.867C1327.63 634.683 1331.46 636.992 1332.94 638.234Z" fill="#82B378"/>
<path d="M171.769 638.233C171.769 638.233 150.653 580.316 135.832 585.249C121.011 590.182 171.769 638.233 171.769 638.233Z" fill="#82B378"/>
<path d="M163.683 638.234C161.886 638.234 128.197 603.306 125.95 612.451C123.703 621.597 163.683 638.234 163.683 638.234Z" fill="#82B378"/>
<path d="M199.62 638.234C199.62 638.234 185.683 625.473 168.046 628.796C150.409 632.119 142.871 635.751 131.789 633.236C120.708 630.72 115.047 638.234 115.047 638.234H199.62Z" fill="#82B378"/>
<path d="M685.324 493.938C688.58 488.858 661.196 432.627 675.892 401.315C677.721 397.417 711.834 403.245 711.834 403.245C711.834 403.245 718.813 482.31 714.895 503.235C712.127 518.013 706.7 561.635 703.759 585.97C703.759 586.046 703.759 586.122 703.759 586.203C703.059 591.987 702.5 596.666 702.131 599.571C701.865 601.769 702.123 603.998 702.885 606.076C705.056 612.04 709.782 624.345 712.143 626.042C712.143 626.042 699.238 629.728 696.758 628.281C694.278 626.833 687.977 604.109 687.977 604.109C689.062 601.991 689.442 599.583 689.063 597.235C688.574 594.139 687.831 589.288 686.995 583.314C675.892 538.287 677.563 506.086 685.324 493.938Z" fill="#FFB27D"/>
<path d="M612.408 594.838C614.183 593.251 615.401 591.136 615.881 588.805C616.522 585.736 617.542 580.933 618.877 575.052C624.38 529.022 637.328 499.472 648.898 490.848C653.734 487.237 648.019 424.972 672.842 400.859C675.93 397.856 705.783 415.349 705.783 415.349C705.783 415.349 684.341 491.785 673.276 509.967C665.456 522.82 644.953 561.711 633.589 583.438C630.832 588.696 628.618 592.952 627.251 595.586C626.228 597.546 625.682 599.719 625.655 601.929C625.59 608.271 624.733 625.239 627.234 626.719C628.679 627.566 630.03 628.562 631.267 629.69C631.267 629.69 619.49 628.681 618.052 628.606C616.614 628.53 607.606 600.313 607.432 599.777C609.244 597.814 611.062 596.036 612.408 594.838Z" fill="#FFB27D"/>
<path d="M601.587 610.153L598.63 627.451L600.198 628.611L609.462 615.254L601.587 610.153Z" fill="#386D15"/>
<path d="M601.907 611.47C612.023 616.761 613.515 634.417 615.127 638.217L633.578 638.277C636.368 637.334 635.271 633.398 631.255 629.696C631.255 629.696 619.479 628.687 618.041 628.611C616.603 628.535 607.594 600.319 607.421 599.782C603.188 604.379 599.08 609.996 601.907 611.47Z" fill="#468920"/>
<path d="M618.057 552.962C618.877 575.052 662.867 570.807 662.867 570.807L668.685 542.71L672.543 524.062L673.824 517.882L671.892 516.966L643.906 503.696L635.141 499.532L634.783 500.617L619.696 547.817L618.057 552.962Z" fill="#F99746"/>
<path d="M619.691 547.86C632.401 534.801 668.685 542.71 668.685 542.71L672.544 524.062L671.892 516.966L643.906 503.696L634.783 500.644L619.697 547.844L619.691 547.86Z" fill="#EF7E29"/>
<path d="M684.634 621.732L687.044 638.223H689.714L690.973 625.44L684.634 621.732Z" fill="#386D15"/>
<path d="M684.634 621.732C690.245 624.318 696.383 635.241 699.238 638.223L722.573 638.391C725.488 636.006 715.296 628.297 712.17 626.036C712.17 626.036 699.265 629.723 696.785 628.275C694.305 626.828 688.004 604.103 688.004 604.103C685.215 609.432 680.526 619.824 684.634 621.732Z" fill="#468920"/>
<path d="M673.824 509.735L679.609 573.16C690.365 586.778 718.77 578.413 718.77 578.413C718.77 578.413 720.94 525.998 722.026 523.932L717.912 522.724L673.824 509.735Z" fill="#F99746"/>
<path d="M673.824 509.735L679.609 573.16C679.913 541.935 720.343 545.074 720.343 545.074L717.912 522.724L673.824 509.735Z" fill="#EF7E29"/>
<path d="M723.355 211.7L664.034 188.216L630.854 220.173L687.239 242.144L723.355 211.7Z" fill="#61B136"/>
<path d="M695.57 222.515C695.57 222.515 695.694 229.562 700.888 231.774C711.628 236.322 701.431 241.602 711.937 249.045C714.363 250.758 716.116 261.399 699.336 262.988C682.556 264.576 680.472 265.996 680.472 265.996C680.472 265.996 668.023 273.97 654.228 265.769C646.239 261.02 656.301 247.782 652.632 244.415C647.694 239.878 647.037 225.014 654.228 218.877C661.418 212.74 672.929 209.179 672.929 209.179L695.57 222.515Z" fill="#8E482D"/>
<path d="M742.642 237.872L743.087 236.381C727.214 231.681 723.811 215.24 723.23 211.38C723.194 211.139 723.088 210.914 722.925 210.732C722.762 210.551 722.549 210.422 722.313 210.361C722.202 210.331 722.085 210.33 721.974 210.357C721.862 210.384 721.759 210.439 721.674 210.516C721.588 210.593 721.524 210.69 721.486 210.798C721.448 210.906 721.437 211.023 721.456 211.136C722.188 215.592 726.112 232.966 742.642 237.872Z" fill="#EFCBAB"/>
<path d="M743.088 236.382H745.199L744.39 238.94L742.643 237.872L743.088 236.382Z" fill="#D8A987"/>
<path d="M745.198 236.382C745.198 236.382 748.112 237.189 748.731 236.382C748.731 236.382 748.796 238.843 747.76 239.488C747.76 239.488 745.415 239.569 744.39 238.946L745.198 236.382Z" fill="#EFCBAB"/>
<path d="M699.205 267.362C698.028 267.211 694.468 264.37 692.856 260.022C690.913 254.791 689.242 249.099 689.242 249.099L684.086 249.945L670.313 252.194L669.184 252.379C670.201 255.041 671.044 257.766 671.707 260.537C672.649 264.227 673.082 268.028 672.994 271.835C672.858 274.762 671.322 275.543 670.492 276.128C670.107 276.372 685.02 325.215 692.199 322.781C698.462 320.672 699.813 267.194 699.205 267.362Z" fill="#FFB27D"/>
<path d="M672.994 271.835C681.27 268.49 689.242 249.099 689.242 249.099C687.48 248.942 685.706 249.233 684.087 249.945C679.523 251.771 674.861 256.141 671.708 260.537C672.647 264.227 673.08 268.028 672.994 271.835V271.835Z" fill="#ED975D"/>
<path d="M667.708 263.942C667.708 263.942 692.302 259.963 689.583 244.697C686.864 229.432 688.21 218.649 672.391 220.547C656.572 222.444 654.569 228.808 654.238 234.099C653.907 239.39 661.239 264.587 667.708 263.942Z" fill="#FFB27D"/>
<path d="M665.521 278.118C665.521 278.118 624.027 265.649 621.075 262.174C618.123 258.7 610.954 212.648 610.948 206.018L604.908 206.886C604.908 206.886 600.431 259.274 605.619 271.157C610.807 283.04 663.144 301.758 663.144 301.758L665.521 278.118Z" fill="#FFB27D"/>
<path d="M697.957 266.777C697.957 266.777 692.862 282.644 672.929 272.659L693.882 318.699L699.336 277.538L697.957 266.777Z" fill="#F99746"/>
<path d="M714.917 271.45C714.917 271.45 712.404 279.706 760.454 305.867L795.896 281.625L800.151 285.186C800.151 285.186 766.168 326.104 760.844 325.242C755.52 324.38 719.057 300.365 719.057 300.365L714.917 271.45Z" fill="#FFB27D"/>
<path d="M584.287 476.086C585.475 479.53 586.902 482.886 588.558 486.132C593.675 496.339 603.72 511.973 620.516 521.368C639.57 532.009 701.295 552.354 743.706 542.51C743.706 542.51 739.685 408.487 730.779 353.382C730.579 352.103 730.367 350.873 730.155 349.68C732.738 359.579 746.002 362.837 751.445 361.004C763.384 356.993 767.546 347.718 768.111 337.9C768.985 322.792 761.349 306.383 760.47 305.916C740.884 294.809 737.248 277.185 727.735 270.875C719.242 265.254 698.973 266.728 697.974 266.826L693.535 310.86L672.929 272.659C672.929 272.659 639.679 269.764 621.097 262.174C621.097 262.174 565.521 338.979 634.339 337.971C634.339 355.659 626.063 371.738 618.058 395.65C610.146 419.361 584.287 476.086 584.287 476.086Z" fill="#61B136"/>
<path d="M673.058 252.823C673.058 252.823 672.782 255.312 671.213 255.93C669.645 256.548 665.461 257.702 665.032 257.447C664.298 256.774 663.612 256.05 662.981 255.279C662.981 255.279 669.553 252.601 673.058 252.823Z" fill="white"/>
<path d="M611.062 206.051C611.062 206.051 613.607 204.284 612.267 199.432C611.366 196.179 611.974 193.556 611.285 193.632C610.596 193.707 609.982 197.93 609.554 198.966C609.19 199.844 603.671 189.409 602.254 190.227C600.838 191.046 598.087 195.166 604.686 209.428L611.062 206.051Z" fill="#FFB27D"/>
<path d="M795.896 281.625C795.896 281.625 799.695 272.68 800.932 270.837C803.418 267.189 810.511 264.907 810.972 266.5C811.433 268.094 806.424 270.496 806.207 274.214C806.147 275.244 808.264 273.239 809.572 272.463C810.359 271.992 810.825 272.382 810.418 272.978C808.334 276.009 807.2 279.12 805.203 280.27C803.206 281.419 800.151 285.149 800.151 285.149L795.896 281.625Z" fill="#FFB27D"/>
<path d="M697.957 266.777L693.518 310.812L672.994 271.835L665.521 271.862L695.721 326.749L703.471 266.538L697.957 266.777Z" fill="#AA443E"/>
<path d="M657.56 221.105C657.56 221.105 650.348 229.584 673.059 233.736C680.353 235.07 684.016 242.117 682.03 248.064C679.078 256.889 686.534 266.392 697.502 262.972C706.239 260.261 692.01 219.495 684.26 218.877C676.511 218.259 657.56 221.105 657.56 221.105Z" fill="#8E482D"/>
<path d="M665.521 223.056C665.521 223.056 658.227 228.288 657.608 232.483C656.99 236.679 655.286 242.664 652.496 238.447C649.707 234.229 649.24 228.488 652.496 224.618C655.752 220.747 663.03 219.007 664.582 220.346C666.134 221.685 665.521 223.056 665.521 223.056Z" fill="#8E482D"/>
<path d="M652.632 220.617C652.632 220.617 666.574 208.626 696.177 226.277L696.574 218.98C695.434 214.643 694.045 214.681 690.061 212.572C685.595 210.193 678.698 207.867 668.864 207.943C662.113 207.997 658.173 207.13 655.102 213.142L652.632 220.617Z" fill="#468920"/>
<path d="M837.146 304.377C838.905 302.427 840.547 300.374 842.062 298.229C843.095 296.78 843.987 295.235 844.727 293.616C845.061 292.876 845.286 292.09 845.394 291.285C845.394 291.285 808.41 268.902 805.057 265.926C801.703 262.95 771.459 239.292 771.459 239.292C769.939 240.817 768.512 242.431 767.188 244.128C766.358 245.212 765.489 246.399 764.692 247.668C763.216 250.01 761.978 252.601 761.506 255.084C761.506 255.084 800.243 274.214 803.716 277.706C807.189 281.197 837.146 304.377 837.146 304.377Z" fill="#EFCBAB"/>
<path d="M842.062 298.229C843.094 296.78 843.987 295.235 844.726 293.616C845.061 292.876 845.286 292.09 845.394 291.285C845.394 291.285 808.41 268.902 805.056 265.926C801.702 262.95 771.458 239.292 771.458 239.292C769.938 240.817 768.512 242.431 767.187 244.128C766.357 245.212 765.489 246.399 764.691 247.668C775.583 253.089 805.072 267.975 808.258 271.168C811.351 274.285 833.08 291.247 842.062 298.229Z" fill="#DDB08E"/>
<path d="M799.141 261.106C799.141 261.106 809.452 265.909 812.074 270.696L806.251 279.912C806.251 279.912 796.819 275.45 792.819 271.119L799.141 261.106Z" fill="#C94C43"/>
<path d="M805.203 280.291C806.793 279.607 808.212 278.582 809.36 277.288C810.912 275.347 813.034 272.209 810.418 273C807.803 273.791 803.157 277.066 801.399 277.369C799.641 277.673 800.276 279.034 800.151 279.424C800.026 279.814 805.203 280.291 805.203 280.291Z" fill="#FFB27D"/>
<path d="M584.287 476.086C585.475 479.53 586.902 482.886 588.558 486.131C599.699 474.362 615.22 455.617 626.035 433.076C644.699 394.192 634.317 337.97 634.317 337.97C634.317 355.659 626.041 371.738 618.036 395.65C610.146 419.361 584.287 476.086 584.287 476.086Z" fill="#468920"/>
<path d="M699.336 342.633C699.336 342.266 699.227 341.908 699.023 341.603C698.819 341.298 698.53 341.06 698.19 340.92C697.851 340.779 697.478 340.743 697.118 340.814C696.758 340.886 696.427 341.062 696.168 341.322C695.908 341.581 695.731 341.911 695.66 342.271C695.588 342.631 695.625 343.003 695.765 343.342C695.906 343.681 696.144 343.97 696.449 344.174C696.754 344.378 697.113 344.487 697.48 344.487C697.972 344.487 698.444 344.291 698.792 343.944C699.141 343.596 699.336 343.124 699.336 342.633V342.633Z" fill="#233862"/>
<path d="M699.336 376.357C699.336 375.99 699.227 375.632 699.023 375.327C698.819 375.022 698.53 374.784 698.19 374.644C697.851 374.503 697.478 374.467 697.118 374.538C696.758 374.61 696.427 374.786 696.168 375.046C695.908 375.305 695.731 375.635 695.66 375.995C695.588 376.355 695.625 376.727 695.765 377.066C695.906 377.405 696.144 377.694 696.449 377.898C696.754 378.102 697.113 378.211 697.48 378.211C697.972 378.209 698.443 378.013 698.791 377.666C699.139 377.319 699.335 376.848 699.336 376.357V376.357Z" fill="#233862"/>
<path d="M730.763 353.361C730.562 352.081 730.35 350.851 730.139 349.658C732.722 359.557 745.985 362.815 751.428 360.983C763.367 356.971 767.53 347.696 768.094 337.878C766.808 338.551 747.423 348.449 738.404 342.633C729.216 336.708 723.534 323.296 723.355 322.884L730.763 353.361Z" fill="#468920"/>
<path d="M1121.37 172.37C1121.37 172.37 1115.92 176.469 1109.63 176.127C1104.96 175.872 1100.18 171.79 1099.98 171.508L1096.58 178.117C1096.58 178.117 1105.27 182.855 1112.49 181.114C1114.69 180.572 1118.2 178.203 1119.75 176.474C1120.77 175.346 1121.35 173.888 1121.37 172.37V172.37Z" fill="#6BB7BF"/>
<path d="M1120.6 158.975L1129.72 154.687C1129.72 154.687 1129.35 174.078 1113.63 180.708C1113.63 180.724 1123.12 167.026 1120.6 158.975Z" fill="#86D1CD"/>
<path d="M152.992 348.764C152.992 348.764 147.538 352.862 141.242 352.521C136.575 352.271 131.794 348.184 131.604 347.907L128.196 354.515C128.196 354.515 136.912 359.259 144.108 357.513C146.311 356.971 149.817 354.602 151.369 352.873C152.39 351.744 152.966 350.284 152.992 348.764V348.764Z" fill="#6BB7BF"/>
<path d="M152.216 335.369L161.344 331.086C161.344 331.086 160.964 350.472 145.253 357.107C145.253 357.118 154.734 343.419 152.216 335.369Z" fill="#86D1CD"/>
<path d="M887.491 46.2296C887.491 46.2296 900.759 37.0139 910.718 50.7507L921.658 46.0615C921.658 46.0615 916.231 37.5398 895.066 41.3182C881.179 43.7793 887.491 46.2296 887.491 46.2296Z" fill="#5685D8"/>
<path d="M874.428 55.234C874.428 55.234 878.037 40.3425 905.247 40.3425C905.247 40.3425 895.055 41.3075 887.083 54.5292L874.428 55.234Z" fill="#739AF0"/>
<path d="M800.509 106.061C800.509 106.061 793.183 101.437 792.412 95.8477C792.412 95.8477 785.276 96.2325 783.729 98.5581C783.729 98.5581 786.985 107.801 790.86 109.536C790.865 109.525 799.543 110.105 800.509 106.061Z" fill="#ED7D2B"/>
<path d="M1286.33 495.569C1286.33 495.569 1279 490.945 1278.22 485.356C1278.22 485.356 1271.09 485.741 1269.54 488.067C1269.54 488.067 1272.8 497.282 1276.67 499.044C1276.68 499.033 1285.36 499.614 1286.33 495.569Z" fill="#ED7D2B"/>
<path d="M90.1541 482.635C90.1541 482.635 82.8279 478.011 82.0572 472.422C82.0572 472.422 74.9209 472.807 73.3743 475.132C73.3743 475.132 76.6304 484.348 80.5106 486.11C80.516 486.099 89.1936 486.679 90.1541 482.635Z" fill="#ED7D2B"/>
</svg>
