<?xml version="1.0" standalone="no"?>
<!DOCTYPE svg PUBLIC "-//W3C//DTD SVG 1.1//EN" "http://www.w3.org/Graphics/SVG/1.1/DTD/svg11.dtd" >
<svg xmlns="http://www.w3.org/2000/svg" xmlns:xlink="http://www.w3.org/1999/xlink" version="1.1">
<metadata>
Created by FontForge 20200427 at Wed Sep 28 02:29:47 2016
 By www
Copyright (c) 2016 by Antonio Mejia Lechuga. All rights reserved.
</metadata>
<defs>
<font id="GabrielaStencil-Black" horiz-adv-x="0" >
  <font-face 
    font-family="Gabriela Stencil Black"
    font-weight="900"
    font-stretch="normal"
    units-per-em="1000"
    panose-1="0 0 10 0 0 0 0 0 0 0"
    ascent="749"
    descent="-251"
    x-height="500"
    cap-height="680"
    bbox="-761 -310 1486 969"
    underline-thickness="50"
    underline-position="-100"
    unicode-range="U+0020-FB02"
  />
<missing-glyph horiz-adv-x="501" 
d="M451 0h-401v680h401v-680zM402 645h-303l152 -278zM90 607v-534l146 267zM411 607l-145 -267l145 -267v534zM251 313l-152 -278h303z" />
    <glyph glyph-name="fi" unicode="fi" horiz-adv-x="696" 
d="M216 589q0 -49 34.5 -80.5t91.5 -34.5l-4 -15h-75v-402q0 -51 75 -51v-6h-315v6q75 0 75 51v402h-65l11 15h54v45q0 96 72.5 153t159.5 63v-6q-40 -7 -78 -45q-36 -38 -36 -95zM456 644q0 35 -25.5 58.5t-60.5 26.5v6q109 0 173.5 -31.5t64.5 -85.5q0 -34 -25.5 -56.5
t-69.5 -22.5q-73 0 -99 47q18 0 30 17t12 41zM603 510v-453q0 -51 75 -51v-6h-315v6q75 0 75 51v349q0 28 -12 40.5t-42 12.5l4 15q130 0 215 36z" />
    <glyph glyph-name="fl" unicode="fl" horiz-adv-x="696" 
d="M372 474l-11 -15h-98v-402q0 -52 75 -52v-5h-315v5q75 0 75 52v402h-65l11 15h54v45q0 95 52 149t141 67v-6q-39 -10 -62.5 -40.5t-23.5 -72.5q0 -63 42 -102.5t125 -39.5zM603 735v-678q0 -51 75 -51v-6h-315v5q75 0 75 52v528q0 60 -30 99.5t-77 44.5v6q117 -7 176 -39
q55 14 96 39z" />
    <glyph glyph-name=".notdef" horiz-adv-x="501" 
d="M451 0h-401v680h401v-680zM402 645h-303l152 -278zM90 607v-534l146 267zM411 607l-145 -267l145 -267v534zM251 313l-152 -278h303z" />
    <glyph glyph-name=".null" 
 />
    <glyph glyph-name="nonmarkingreturn" horiz-adv-x="333" 
 />
    <glyph glyph-name="space" unicode=" " horiz-adv-x="254" 
 />
    <glyph glyph-name="exclam" unicode="!" horiz-adv-x="336" 
d="M173 180h-10q2 51 -27 126.5t-58 144t-27 103.5q0 60 31 98t86 38t86 -38t31 -98q2 -35 -27 -103.5t-58 -144t-27 -126.5zM61 24q0 41 29.5 66t77.5 25t77.5 -25t29.5 -66q0 -42 -29.5 -67t-77.5 -25t-77.5 25t-29.5 67z" />
    <glyph glyph-name="quotedbl" unicode="&#x22;" horiz-adv-x="413" 
d="M127 430h-34q-39 182 -39 295q24 14 56 14t56 -14q0 -113 -39 -295zM320 430h-34q-39 182 -39 295q24 14 56 14t56 -14q0 -113 -39 -295z" />
    <glyph glyph-name="numbersign" unicode="#" horiz-adv-x="658" 
d="M624 462v-25h-181l-34 -142h177v-25h-183l-66 -270h-29l66 270h-150l-66 -270h-29l66 270h-161v25h167l34 142h-163v25h169l53 218h29l-53 -218h150l53 218h29l-53 -218h175zM230 295h150l34 142h-150z" />
    <glyph glyph-name="dollar" unicode="$" horiz-adv-x="641" 
d="M565 467h-8q-24 81 -84 139q-59 60 -132 78v95h20v-90q99 -8 160 -52l36 53h8v-223zM592 195q0 -90 -60.5 -143t-170.5 -61v-90h-20v95q52 9 79 31q30 23 30 71t-40 87q-18 19 -46 38.5t-46 29.5t-61 33t-54 29q-135 74 -135 177q0 86 63 139q63 51 167 59v-6
q-40 -7 -64 -30.5t-24 -61.5q0 -86 135 -158q118 -62 157 -91q91 -68 90 -148zM63 234h8q52 -179 227 -238v-6q-120 3 -194 49l-33 -49h-8v244z" />
    <glyph glyph-name="percent" unicode="%" horiz-adv-x="749" 
d="M146 -30h-28l488 740h28zM271 387q-37 -45 -99 -45q-61 0 -100 45q-38 46 -38 129t38 129q39 45 100 45q62 0 99 -45q38 -46 38 -129t-38 -129zM172 349q29 0 42 34q14 36 14 133q0 96 -14 132q-14 35 -42 35q-29 0 -43 -35q-14 -36 -14 -132q0 -97 14 -133
q13 -34 43 -34zM677 35q-37 -45 -99 -45q-61 0 -100 45q-38 46 -38 129t38 129q39 45 100 45q62 0 99 -45q38 -46 38 -129t-38 -129zM578 -3q29 0 42 34q14 36 14 133q0 96 -14 132q-14 35 -42 35q-29 0 -43 -35q-14 -36 -14 -132q0 -97 14 -133q13 -34 43 -34z" />
    <glyph glyph-name="ampersand" unicode="&#x26;" horiz-adv-x="792" 
d="M628 -10q-62 0 -135 41q-69 40 -132 104q-91 93 -157.5 206.5t-64.5 174.5q0 94 64 133q58 34 146 41v-6q-50 -5 -50 -120q0 -64 48 -156q50 -92 115 -169q69 -80 135 -133q70 -55 110 -55t60 29h6q-15 -49 -46.5 -69.5t-98.5 -20.5zM407 386l-2 3q48 57 48 170
q0 121 -64 125v6q194 -17 194 -150q0 -57 -50 -101q-50 -43 -126 -53zM587 140l-2 2q47 45 47 103q0 26 -20 43t-52 17q0 31 24.5 55.5t58.5 24.5q37 0 61 -22.5t24 -60.5q0 -49 -40 -93.5t-101 -68.5zM223 -10q-86 0 -138.5 41t-52.5 114q0 71 46 114t111 54l2 -3
q-29 -29 -29 -92q0 -77 49 -127q49 -51 122 -51q47 0 77 13l3 -3q-65 -60 -190 -60z" />
    <glyph glyph-name="quotesingle" unicode="'" horiz-adv-x="220" 
d="M127 430h-34q-39 182 -39 295q24 14 56 14t56 -14q0 -113 -39 -295z" />
    <glyph glyph-name="parenleft" unicode="(" horiz-adv-x="364" 
d="M361 -245v-6q-152 39 -234 169t-82 321q0 194 82 324q83 132 234 172v-6q-82 -31 -124 -163q-42 -130 -42 -327q0 -195 42 -324q42 -130 124 -160z" />
    <glyph glyph-name="parenright" unicode=")" horiz-adv-x="364" 
d="M3 -251v6q82 30 124 160q42 129 42 324q0 197 -42 327q-42 132 -124 163v6q150 -40 233 -172q83 -131 83 -324q0 -190 -83 -321q-82 -130 -233 -169z" />
    <glyph glyph-name="asterisk" unicode="*" horiz-adv-x="591" 
d="M301 559h-10q-3 36 -37 79q-34 44 -34 66q0 35 21.5 57.5t55.5 22.5t55.5 -22.5t21.5 -57.5q0 -21 -36 -66t-37 -79zM264 538l-2 -10q-36 9 -90 -9t-73 -11q-34 12 -48 38t-3 59q10 31 37 45t61 4q15 -4 33 -28.5t40 -52t45 -35.5zM331 528l-4 10q34 14 66 58
q33 46 54 52q33 11 60.5 -1.5t38.5 -44.5q10 -33 -4 -60t-49 -38q-20 -8 -74 12q-53 20 -88 12zM139 314q-27 20 -31.5 50t15.5 58q13 18 67 34q56 16 78 42l10 -6q-19 -29 -19 -87q2 -56 -12 -71q-21 -28 -51 -33.5t-57 13.5zM447 312q-26 -20 -56.5 -15t-51.5 34
q-13 17 -11 74t-17 86l9 7q23 -27 76 -44q53 -16 66 -34q21 -29 16.5 -58.5t-31.5 -49.5z" />
    <glyph glyph-name="plus" unicode="+" horiz-adv-x="492" 
d="M260 302h194v-25h-194v-196h-27v196h-195v25h195v195h27v-195z" />
    <glyph glyph-name="comma" unicode="," horiz-adv-x="314" 
d="M161 184q43 0 71 -28.5t28 -77.5q0 -55 -55 -116q-54 -61 -142 -97l-4 10q30 24 50 56.5t20 62.5q0 38 -23 58.5t-60 21.5q7 53 37 81.5t78 28.5z" />
    <glyph glyph-name="hyphen" unicode="-" horiz-adv-x="632" 
d="M565 277h-498v25h498v-25z" />
    <glyph glyph-name="period" unicode="." horiz-adv-x="319" 
d="M159 -10q-48 0 -77.5 27t-29.5 71q0 43 30 69.5t77 26.5q48 0 78 -26.5t30 -69.5q0 -44 -30 -71t-78 -27z" />
    <glyph glyph-name="slash" unicode="/" horiz-adv-x="458" 
d="M53 -30h-28l380 740h28z" />
    <glyph glyph-name="zero" unicode="0" horiz-adv-x="660" 
d="M311 -4v-6q-89 0 -169 78q-40 41 -64.5 114t-24.5 163q0 91 24 161.5t65 109.5q77 74 169 74v-6q-29 -4 -48 -33q-45 -67 -45 -306q0 -335 93 -349zM349 -10v6q93 14 93 349q0 127 -13 201q-14 78 -32 105q-19 29 -48 33v6q92 0 169 -74q41 -39 65 -109.5t24 -161.5
t-24.5 -163.5t-65.5 -113.5q-78 -78 -168 -78z" />
    <glyph glyph-name="one" unicode="1" horiz-adv-x="403" 
d="M365 0h-315v6q75 0 75 51v475q0 36 -22.5 49t-71.5 8v8q60 9 137 36q78 27 122 57v-633q0 -51 75 -51v-6z" />
    <glyph glyph-name="two" unicode="2" horiz-adv-x="587" 
d="M145 430q-45 0 -72 27.5t-27 78.5q0 59 53 106q54 47 130 48v-6q-70 -15 -70 -99q0 -35 23 -57t57 -22q-6 -37 -31.5 -56.5t-62.5 -19.5zM173 196h-20q193 197 193 371q0 102 -77 117v6q119 -2 185 -48t66 -130q0 -91 -92 -162q-46 -33 -85 -57l-94 -52q-47 -26 -76 -45z
M392 -10q-26 0 -112 26q-84 26 -122 26q-74 0 -99 -42h-6q3 85 29 124t81 39q47 0 131 -9q90 -8 110 -8q64 0 91 12.5t35 50.5h6q0 -117 -31.5 -168t-112.5 -51z" />
    <glyph glyph-name="three" unicode="3" horiz-adv-x="580" 
d="M151 468q-43 0 -71.5 26.5t-28.5 73.5q0 49 47 82.5t125 39.5v-6q-28 -7 -46 -29t-18 -50t24 -45t56 -17q0 -35 -24 -55t-64 -20zM291 355q91 -12 160 -57q70 -45 70 -122q0 -91 -72 -139q-71 -47 -185 -47v6q83 27 83 172q0 72 -38 123.5t-107 60.5v6q72 6 108 58
q37 52 37 124q0 56 -22.5 96.5t-60.5 47.5v6q64 0 120 -14q55 -13 96 -53q41 -39 41 -100q0 -54 -37.5 -92t-86 -54t-106.5 -22zM239 137q-32 0 -56 -17t-24 -45q0 -27 18 -49t46 -30v-6q-72 4 -123 40q-49 34 -49 86q0 45 29 70.5t72 25.5q37 0 62 -21t25 -54z" />
    <glyph glyph-name="four" unicode="4" horiz-adv-x="557" 
d="M54 211h-24q100 68 143 162q37 81 37 131q0 52 -28 80.5t-78 28.5q-12 0 -26 -3q20 36 62.5 58t92.5 22q61 0 101 -39.5t40 -102.5q0 -98 -99 -196q-99 -97 -221 -141zM540 182v-15h-115v-95q0 -35 16 -50.5t55 -15.5v-6h-297v6q71 0 71 48v113h-240v15h240v75
q99 81 150 168h5v-243h115z" />
    <glyph glyph-name="five" unicode="5" horiz-adv-x="583" 
d="M100 433h-6l2 234q48 23 112 23q36 0 93 -15q59 -15 92 -15q40 0 63.5 12.5t38.5 42.5q22 -37 22 -83q0 -56 -38 -88t-103 -32q-35 0 -94 8q-55 9 -80 9q-100 0 -102 -96zM259 -10v6q55 10 86 67t31 142q0 75 -44 131t-121 56q-59 0 -117 -16v7q90 26 187 26
q111 0 182 -60q71 -59 71 -152q0 -100 -73 -153.5t-202 -53.5zM223 -4v-6q-77 4 -129 50q-50 47 -50 111q0 48 32 81.5t75 33.5q44 0 71 -23.5t27 -64.5q-43 0 -69.5 -21.5t-26.5 -62.5q0 -39 19.5 -66t50.5 -32z" />
    <glyph glyph-name="six" unicode="6" horiz-adv-x="606" 
d="M290 -4v-6q-116 5 -178.5 82t-62.5 212q0 81 34.5 154.5t91 124.5t127 84.5t144.5 42.5v-6q-231 -45 -232 -400q-1 -142 16.5 -209.5t59.5 -78.5zM330 -10v6q42 14 65 71q24 57 24 130q0 74 -23 129t-70 55q-28 0 -64 -14l1 6q42 27 115 27q94 0 146.5 -53.5t52.5 -142.5
q0 -95 -63.5 -151.5t-183.5 -62.5z" />
    <glyph glyph-name="seven" unicode="7" horiz-adv-x="546" 
d="M45 422h-6q0 149 26 209q27 59 116 59q37 0 122 -24q87 -23 118 -23q81 0 106 37h6q0 -92 -22.5 -136t-81.5 -44q-49 0 -123 16q-79 17 -111 17q-53 0 -94 -17q-45 -19 -56 -94zM374 0h-264q0 70 33.5 145.5t89.5 138.5q109 124 223 189h10q-161 -193 -161 -416
q0 -51 69 -51v-6z" />
    <glyph glyph-name="eight" unicode="8" horiz-adv-x="628" 
d="M340 -10v6q98 12 98 105q0 30 -20 59t-51.5 53t-70 48.5t-77.5 51.5t-70.5 56t-51.5 67t-20 80q0 93 73 133q63 35 143 41v-6q-76 -21 -76 -86q0 -67 127 -144q40 -23 65 -39t61 -44.5t57 -54t36.5 -60.5t14.5 -71q0 -41 -13.5 -74t-36 -54.5t-54 -36.5t-64.5 -21.5
t-70 -8.5zM385 463l-6 4q46 42 46 119q0 88 -91 98v6q89 0 153 -32q64 -31 64 -90q0 -52 -44.5 -78.5t-121.5 -26.5zM298 -4v-6q-250 0 -250 155q0 61 54 95q56 36 122 39l7 -3q-30 -24 -42 -53.5t-12 -79.5q0 -60 32 -98.5t89 -48.5z" />
    <glyph glyph-name="nine" unicode="9" horiz-adv-x="606" 
d="M228 280q-94 0 -146.5 53.5t-52.5 142.5q0 95 63.5 151.5t183.5 62.5v-6q-42 -13 -66 -71q-23 -58 -23 -130q0 -74 23 -129t70 -55q28 0 64 14l-1 -6q-42 -27 -115 -27zM160 -10v6q231 45 232 400q1 142 -16.5 209.5t-59.5 78.5v6q116 -5 178.5 -82t62.5 -212
q0 -81 -34.5 -154.5t-91 -124.5t-127 -84.5t-144.5 -42.5z" />
    <glyph glyph-name="colon" unicode=":" horiz-adv-x="341" 
d="M170 310q-48 0 -77.5 27t-29.5 71q0 43 30 69.5t77 26.5q48 0 78 -26.5t30 -69.5q0 -44 -30 -71t-78 -27zM170 -10q-48 0 -77.5 27t-29.5 71q0 43 30 69.5t77 26.5q48 0 78 -26.5t30 -69.5q0 -44 -30 -71t-78 -27z" />
    <glyph glyph-name="semicolon" unicode=";" horiz-adv-x="339" 
d="M168 310q-48 0 -77.5 27t-29.5 71q0 43 30 69.5t77 26.5q48 0 78 -26.5t30 -69.5q0 -44 -30 -71t-78 -27zM78 -135l-4 10q30 24 50 56.5t20 62.5q0 38 -23 58.5t-60 21.5q7 53 37 81.5t78 28.5q43 0 71 -28.5t28 -77.5q0 -55 -55 -116q-54 -61 -142 -97z" />
    <glyph glyph-name="less" unicode="&#x3c;" horiz-adv-x="437" 
d="M31 294l344 194v-28l-313 -175l313 -175v-28l-344 194v18z" />
    <glyph glyph-name="equal" unicode="=" horiz-adv-x="570" 
d="M500 337h-430v25h430v-25zM500 200h-430v25h430v-25z" />
    <glyph glyph-name="greater" unicode="&#x3e;" horiz-adv-x="437" 
d="M62 460v28l344 -194v-18l-344 -194v28l313 175z" />
    <glyph glyph-name="question" unicode="?" horiz-adv-x="568" 
d="M135 461q-45 0 -74.5 25t-29.5 69q0 61 66 96q66 36 145 39v-6q-33 -9 -52 -36.5t-19 -60.5q0 -63 56 -86q-28 -40 -92 -40zM353 200l-1 -6q-70 0 -108.5 30.5t-38.5 80.5q0 30 16.5 58t39.5 50t46.5 45t40 54t16.5 66q0 80 -72 106v6q242 -17 242 -165q0 -47 -34 -87
q-33 -38 -75 -65q-39 -23 -74 -55q-34 -31 -34 -60q0 -38 36 -58zM178 24q0 41 29.5 66t77.5 25t77.5 -25t29.5 -66q0 -42 -29.5 -67t-77.5 -25t-77.5 25t-29.5 67z" />
    <glyph glyph-name="at" unicode="@" horiz-adv-x="881" 
d="M461 -32q-193 0 -302 91q-110 92 -110 253q0 172 112 275t300 103q178 0 281 -85q104 -84 104 -230q0 -106 -58 -171q-57 -66 -150 -66q-136 0 -136 107q0 11 21 247q71 0 140 18q-21 -270 -21 -282q0 -70 40 -70q49 0 94 61q46 61 46 156q0 137 -96 215t-265 78
q-178 0 -283 -96t-105 -260q0 -152 102 -237q101 -85 286 -85q60 0 130 17q66 18 108 41l10 -18q-43 -24 -113 -43q-69 -19 -135 -19zM359 138q-52 0 -95 40t-43 118q0 97 52 153q52 58 123 58q66 0 90 -39l-1 -14q-20 29 -50 29q-31 0 -48 -56q-16 -54 -16 -131
q0 -70 8 -99.5t31 -29.5q32 0 58 53l-1 -14q-24 -68 -108 -68z" />
    <glyph glyph-name="A" unicode="A" horiz-adv-x="726" 
d="M368 690l296 -632q13 -29 33 -40.5t57 -11.5v-6h-361v6q40 0 59.5 23.5t2.5 58.5l-189 398l92 204h10zM332 206l3 -6l-185 -6q-14 -47 -14 -79q0 -51 39 -80q41 -29 86 -29v-6h-288v4q64 0 116 111l137 288l3 -9q-55 -119 -74 -182z" />
    <glyph glyph-name="B" unicode="B" horiz-adv-x="714" 
d="M43 674v6h245v-680h-245v6q75 0 75 51v566q0 51 -75 51zM411 344q255 -11 255 -162q0 -96 -78.5 -139t-249.5 -43v6q64 0 111 47t47 129q0 76 -44 117.5t-114 41.5v6q133 0 133 171q0 82 -32 119t-101 37v6q159 0 231 -37t72 -125q0 -74 -61 -120t-169 -54z" />
    <glyph glyph-name="C" unicode="C" horiz-adv-x="703" 
d="M460 30q118 0 191 89l4 -8q-38 -59 -101 -90t-140 -31q-131 0 -244 86q-56 43 -89 112t-33 151q0 88 32 158.5t85 110.5q104 77 225 82v-6q-146 -32 -146 -338q0 -316 216 -316zM621 644l30 46h8v-243h-8q-57 195 -211 237v6q118 -4 181 -46z" />
    <glyph glyph-name="D" unicode="D" horiz-adv-x="783" 
d="M288 680v-680h-245v6q75 0 75 51v565q0 52 -75 52v6h245zM338 674v6q190 0 292.5 -86.5t102.5 -250.5q0 -167 -102.5 -255t-292.5 -88v6q63 4 106.5 35t71 106.5t27.5 195.5q0 91 -15 155.5t-43.5 101t-64 54t-82.5 20.5z" />
    <glyph glyph-name="E" unicode="E" horiz-adv-x="673" 
d="M288 680v-680h-245v6q75 0 75 51v565q0 52 -75 52v6h245zM338 674v6h264v-185h-8q-32 96 -87 133q-55 38 -169 46zM393 344l-55 5v6l55 5q86 8 132 86h8v-186h-8q-43 76 -132 84zM623 0h-285v6q113 7 176 46q60 38 101 133h8v-185z" />
    <glyph glyph-name="F" unicode="F" horiz-adv-x="645" 
d="M363 0h-320v6q75 0 75 51v566q0 51 -75 51v6h245v-623q0 -51 75 -51v-6zM613 480h-8q-35 106 -92 145q-60 42 -175 49v6h275v-200zM533 250h-8q-43 76 -132 84l-55 5v6l55 5q86 8 132 86h8v-186z" />
    <glyph glyph-name="G" unicode="G" horiz-adv-x="773" 
d="M48 340q0 79 29.5 146.5t79.5 110.5q99 87 209 93v-6q-39 -4 -65 -34q-57 -67 -57 -304q1 -184 32 -264t90 -86v-6q-56 2 -110.5 25t-102 64.5t-76.5 109.5t-29 151zM659 447h-8q-19 89 -84 154t-152 83v6q139 -8 205 -47l31 47h8v-243zM448 281v6h306v-6q-74 0 -74 -59
v-232h-8l-36 60q-75 -54 -220 -60v6q107 8 107 122v104q0 32 -16.5 45.5t-58.5 13.5z" />
    <glyph glyph-name="H" unicode="H" horiz-adv-x="837" 
d="M288 333v-276q0 -51 74 -51v-6h-319v6q75 0 75 51v566q0 51 -75 51v6h319v-6q-74 0 -74 -51v-274l211 -5v-6zM794 680v-6q-75 0 -75 -51v-566q0 -51 75 -51v-6h-320v6q75 0 75 51v566q0 53 -75 51v6h320z" />
    <glyph glyph-name="I" unicode="I" horiz-adv-x="406" 
d="M363 0h-320v6q75 0 75 51v566q0 51 -75 51v6h320v-6q-75 0 -75 -51v-566q0 -51 75 -51v-6z" />
    <glyph glyph-name="J" unicode="J" horiz-adv-x="574" 
d="M471 622v-365q0 -123 -44 -188q-49 -73 -189 -79v6q40 6 55 93q3 14 5 54q2 46 2 55q1 13 1 59v365q0 52 -75 52v6h320v-6q-75 0 -75 -52zM13 127q0 52 29.5 81t75.5 29q35 0 60.5 -18t30.5 -45q-37 -4 -58.5 -27t-21.5 -58q0 -32 17 -58t42 -35v-6q-79 2 -127 39t-48 98
z" />
    <glyph glyph-name="K" unicode="K" horiz-adv-x="771" 
d="M288 622v-565q0 -51 74 -51v-6h-319v6q75 0 75 51v565q0 52 -75 52v6h319v-6q-74 0 -74 -52zM460 439l251 -383q33 -50 76 -50v-6h-328v6q23 0 38 10t15 25q0 22 -14 44l-157 240q184 184 184 293q0 26 -20 41t-47 15v6h294v-6q-29 0 -49 -11t-49 -39z" />
    <glyph glyph-name="L" unicode="L" horiz-adv-x="638" 
d="M288 623v-623h-245v6q75 0 75 51v566q0 51 -75 51v6h320v-6q-75 0 -75 -51zM612 0h-274v6q110 8 170 51q62 43 96 153h8v-210z" />
    <glyph glyph-name="M" unicode="M" horiz-adv-x="984" 
d="M502 228l154 319v-20l-225 -527h-14l-286 623q-24 51 -106 51v6h269zM941 680v-6q-75 0 -75 -51v-566q0 -51 75 -51v-6h-320v6q75 0 75 51v623h245zM139 504l8 -414q1 -37 26.5 -60.5t71.5 -23.5v-6h-220v6q45 0 71 24t27 60l8 432z" />
    <glyph glyph-name="N" unicode="N" horiz-adv-x="779" 
d="M293 680l368 -551v-129h-111l-418 623q-18 29 -42 40t-64 11v6h267zM663 590l-4 -360l-8 11l-12 349q-1 37 -26.5 60.5t-71.5 23.5v6h220v-6q-45 0 -71.5 -24.5t-26.5 -59.5zM123 90l8 432l8 -12l8 -420q1 -37 26.5 -60.5t71.5 -23.5v-6h-220v6q45 0 71 24t27 60z" />
    <glyph glyph-name="O" unicode="O" horiz-adv-x="818" 
d="M384 -4v-6q-115 0 -222 91q-52 44 -83 114.5t-31 150.5q0 79 30.5 146.5t82.5 109.5q105 88 223 88v-6q-140 -15 -140 -338q0 -120 20 -202q20 -75 49 -108.5t71 -39.5zM434 -10v6q39 4 69 37q32 34 51.5 115t19.5 198q0 323 -140 338v6q118 0 223 -88
q52 -42 82.5 -109.5t30.5 -146.5q0 -80 -31 -150.5t-83 -114.5q-107 -91 -222 -91z" />
    <glyph glyph-name="P" unicode="P" horiz-adv-x="667" 
d="M363 0h-320v6q75 0 75 51v566q0 51 -75 51v6h245v-623q0 -51 75 -51v-6zM338 260v6q65 0 99 57t34 155q0 94 -33.5 145t-99.5 51v6q157 0 230 -47t73 -155q0 -218 -303 -218z" />
    <glyph glyph-name="Q" unicode="Q" horiz-adv-x="819" 
d="M660 -45q63 0 104 59l6 -4q-3 -28 -12 -54t-26 -50t-47 -38.5t-69 -14.5q-48 0 -86 28.5t-61 73.5q-10 20 -35 79t-41.5 83.5t-36.5 24.5q-19 0 -30.5 -14.5t-11.5 -40.5q0 -30 21.5 -56.5t53.5 -34.5v-6q-117 0 -227 92q-52 46 -83 115t-31 147q0 79 30.5 147t82.5 111
q105 88 223 88v-6q-140 -17 -140 -334q0 -210 57 -295q-7 14 -7 36q0 44 26.5 72.5t70.5 28.5q62 0 110 -84q3 -5 20 -33t23 -37t22.5 -30t28 -29t29 -16t36.5 -8zM574 350q0 317 -140 334v6q76 0 152 -38q76 -37 130 -115q55 -77 55 -178q0 -97 -65 -182q-65 -83 -150 -119
l-3 5q21 75 21 287z" />
    <glyph glyph-name="R" unicode="R" horiz-adv-x="743" 
d="M288 680v-623q0 -51 76 -51v-6h-321v6q75 0 75 51v567q0 50 -75 50v6h245zM748 71h6q-12 -39 -51 -60t-97 -21q-154 0 -166 174q-5 68 -20 104q-18 45 -82 55v6q64 0 98.5 48.5t34.5 131.5q0 84 -32 124.5t-101 40.5v6q158 0 230.5 -40t72.5 -131q0 -81 -59 -128.5
t-170 -54.5q131 -6 175 -54q38 -42 45 -108q16 -138 66 -138q26 0 50 45z" />
    <glyph glyph-name="S" unicode="S" horiz-adv-x="643" 
d="M209 592q0 -86 135 -158q118 -62 157 -91q91 -68 90 -148q0 -94 -66 -147t-185 -58v6q48 9 78.5 35.5t30.5 66.5q0 86 -135 156q-5 3 -36 19t-39.5 21t-36 20.5t-37 24t-30.5 24.5t-29.5 28.5t-19.5 29.5t-15 34.5t-4 36.5q0 86 63 139q63 51 167 59v-6q-40 -7 -64 -30.5
t-24 -61.5zM564 467h-8q-24 81 -84 139q-58 60 -132 78v6q114 -5 180 -53l36 53h8v-223zM62 234h8q52 -179 227 -238v-6q-120 3 -194 49l-33 -49h-8v244z" />
    <glyph glyph-name="T" unicode="T" horiz-adv-x="672" 
d="M31 680h170v-6q-56 -14 -100 -74q-42 -56 -62 -142h-8v222zM421 680v-621q0 -53 75 -53v-6h-320v6q75 0 75 53v621h170zM471 674v6h170v-222h-8q-20 84 -63 142q-44 61 -99 74z" />
    <glyph glyph-name="U" unicode="U" horiz-adv-x="744" 
d="M103 190v433q0 51 -75 51v6h320v-6q-75 0 -75 -51v-436q0 -81 24.5 -133t70.5 -58v-6q-144 0 -205 57q-60 57 -60 143zM628 549v-359q0 -83 -53 -142q-52 -58 -157 -58v6q90 1 140 57t50 134v362q0 53 -27 89t-73 36v6h220v-6q-46 0 -73 -36t-27 -89z" />
    <glyph glyph-name="V" unicode="V" horiz-adv-x="723" 
d="M368 -10h-11l-296 632q-13 29 -33 40.5t-57 11.5v6h361v-6q-40 0 -59.5 -23.5t-2.5 -58.5l189 -398zM636 565l-136 -288l-3 9q71 165 71 279q0 51 -35 80t-79 29v6h288v-4q-31 0 -54.5 -25.5t-51.5 -85.5z" />
    <glyph glyph-name="W" unicode="W" horiz-adv-x="1037" 
d="M322 680v-6q-37 0 -53 -22.5t-1 -59.5l149 -366l-92 -236h-11l-253 632q-12 29 -32.5 40.5t-57.5 11.5v6h351zM721 680v-6q-37 0 -53 -22.5t-1 -59.5l149 -366l-92 -236h-11l-195 487l-68 -168l-4 9q52 138 52 191q0 15 -6 34l-32 79q-12 29 -32.5 40.5t-57.5 11.5v6h351
zM793 674v6h266v-4q-63 0 -106 -111l-104 -256l-4 9q19 50 28 102q8 45 10 76q2 34 2 69q0 52 -25 80.5t-67 28.5z" />
    <glyph glyph-name="X" unicode="X" horiz-adv-x="734" 
d="M750 0h-374v6q30 0 46 14t16 38q0 30 -22 64l-318 503q-31 49 -85 49v6h366v-6q-32 0 -49 -13.5t-17 -35.5q0 -19 20 -51l328 -519q31 -49 89 -49v-6zM631 596l-111 -167l-3 8q35 56 35 120q0 49 -29.5 83t-74.5 34v6h272v-6q-38 0 -89 -78zM297 0h-314v8q35 0 71.5 26
t61.5 67l109 173l4 -6q-24 -51 -24 -150q0 -47 25.5 -79.5t66.5 -32.5v-6z" />
    <glyph glyph-name="Y" unicode="Y" horiz-adv-x="690" 
d="M434 291v-234q0 -51 75 -51v-6h-320v6q75 0 75 51v183l-197 385q-13 26 -28.5 37.5t-41.5 11.5v6h313v-6q-46 0 -46 -35q0 -17 33 -81q11 -22 45 -87zM406 674v6h293v-6q-39 0 -67 -48l-149 -259l-4 7q21 40 31 64q27 58 27 121q0 51 -40 82q-41 33 -91 33z" />
    <glyph glyph-name="Z" unicode="Z" horiz-adv-x="669" 
d="M223 0h-190l396 680h191zM70 439h-8v241h302l-3 -6q-109 -6 -191 -73q-80 -67 -100 -162zM611 0h-323l3 6q116 10 199 80t113 187h8v-273z" />
    <glyph glyph-name="bracketleft" unicode="[" horiz-adv-x="336" 
d="M300 765v-6l-73 -13v-997l73 -13v-6l-208 30v975z" />
    <glyph glyph-name="backslash" unicode="\" horiz-adv-x="458" 
d="M433 -30h-28l-380 740h28z" />
    <glyph glyph-name="bracketright" unicode="]" horiz-adv-x="336" 
d="M36 759v6l208 -30v-975l-208 -30v6l73 13v997z" />
    <glyph glyph-name="asciicircum" unicode="^" horiz-adv-x="426" 
d="M222 680l156 -276h-28l-137 245l-137 -245h-28l156 276h18z" />
    <glyph glyph-name="underscore" unicode="_" horiz-adv-x="663" 
d="M0 -160v25h663v-25h-663z" />
    <glyph glyph-name="grave" unicode="`" horiz-adv-x="300" 
d="M247 576l-2 -5q-147 55 -218 176l105 60q34 -133 115 -231z" />
    <glyph glyph-name="a" unicode="a" horiz-adv-x="615" 
d="M159 322q-39 0 -63 22.5t-24 56.5q0 45 45.5 75t136.5 34v-6q-29 -4 -46.5 -24.5t-17.5 -48.5q0 -27 17.5 -43t47.5 -18q-11 -21 -38.5 -34.5t-57.5 -13.5zM478 -10q-62 0 -89 26t-27 87v306q0 84 -68 95v6q122 -4 177 -52t55 -148v-243q0 -41 28 -41q24 0 48 45h6
q-12 -39 -47 -60t-83 -21zM173 -10q-65 0 -103.5 34.5t-37.5 93.5q1 63 53 99.5t139 36.5h108v-6h-30q-51 0 -78.5 -29.5t-27.5 -79.5q0 -97 63 -97q35 0 73 35v-6q-70 -81 -159 -81z" />
    <glyph glyph-name="b" unicode="b" horiz-adv-x="674" 
d="M247 735v-609q0 -68 -43 -102t-122 -34v647q0 28 -17 40.5t-58 12.5v6q127 0 240 39zM422 510q39 0 73.5 -12.5t65.5 -40t49 -79.5t18 -123q0 -75 -18.5 -129t-49.5 -82.5t-65 -41t-73 -12.5q-42 0 -84 24q-41 24 -61 57v6q47 -35 83 -35q98 0 98 213q0 131 -31 170
q-25 34 -67 34q-49 0 -83 -37v8q20 33 61 56q42 24 84 24z" />
    <glyph glyph-name="c" unicode="c" horiz-adv-x="553" 
d="M298 510v-6q-46 -4 -66 -58q-19 -51 -19 -190q0 -105 46 -164q47 -59 116 -59q78 0 146 53v-6q-35 -45 -96 -68q-59 -22 -116 -22q-103 0 -186 71q-81 72 -81 191q0 81 40 140q79 116 216 118zM338 503v7q89 0 135.5 -31.5t46.5 -81.5q0 -42 -27.5 -69t-72.5 -27
q-34 0 -57.5 18.5t-29.5 44.5q20 8 34 30t14 43q0 59 -43 66z" />
    <glyph glyph-name="d" unicode="d" horiz-adv-x="689" 
d="M592 735v-668q0 -41 27 -41q24 0 48 45h6q-12 -39 -47 -60t-83 -21q-62 0 -89 26t-27 87v534q0 28 -16.5 40.5t-57.5 12.5v6q127 0 239 39zM252 510q42 0 84 -24q41 -23 61 -56v-8q-34 37 -83 37q-42 0 -67 -34q-31 -39 -31 -170q0 -213 98 -213q36 0 83 35v-6
q-20 -33 -61 -57q-42 -24 -84 -24q-39 0 -73 12.5t-65 41t-49.5 82.5t-18.5 129q0 71 18 123t49 79.5t65.5 40t73.5 12.5z" />
    <glyph glyph-name="e" unicode="e" horiz-adv-x="563" 
d="M299 -10q-103 0 -180 71t-77 191q0 118 74 187t171 71v-6q-43 -4 -60 -55q-15 -49 -15 -193q0 -104 41.5 -163.5t111.5 -59.5q78 0 146 53v-6q-35 -45 -96 -68q-59 -22 -116 -22zM518 288h-251v6q67 0 96 25t29 87q0 40 -17 67t-48 31v6q91 0 144 -53q52 -52 52 -117
q0 -24 -5 -52z" />
    <glyph glyph-name="f" unicode="f" horiz-adv-x="381" 
d="M205 623q0 -56 40 -102q41 -47 127 -47l-11 -15h-98v-402q0 -51 76 -51v-6h-316v6q75 0 75 51v402h-65l11 15h54v45q0 97 44 150.5t122 65.5v-6q-59 -23 -59 -106zM304 729v6q74 -3 113.5 -32.5t39.5 -75.5q0 -39 -25 -63.5t-62 -24.5q-74 0 -101 67q33 0 52 17t19 47
q0 21 -10 38t-26 21z" />
    <glyph glyph-name="g" unicode="g" horiz-adv-x="587" 
d="M372 525l-5 3q14 44 50 83q34 37 82 37q40 0 62.5 -20t22.5 -56q0 -34 -24.5 -56t-56.5 -22q0 31 -15 49t-39 18q-21 0 -43 -10.5t-34 -25.5zM271 158v-6q-56 0 -104 16q-52 19 -86 61t-34 100q0 89 67 134q68 45 157 47v-6q-63 -6 -63 -172q0 -90 15 -130.5t48 -43.5z
M313 152v6q37 3 53 43.5t16 130.5q0 87 -16.5 128t-52.5 44v6q43 -1 81.5 -11.5t72.5 -31t54.5 -56t20.5 -82.5q0 -89 -69 -133q-70 -44 -160 -44zM313 -250v6q64 8 98 37t34 65q0 65 -138 78q-39 2 -58.5 3.5t-55.5 6t-55.5 12t-41.5 19.5t-31.5 31t-9.5 44q0 60 67 102
l3 -5q-9 -6 -9 -19q0 -16 11 -27t38 -16.5t47.5 -8t65.5 -5t66 -4.5q48 -3 84 -10t71 -21.5t54 -41.5t19 -66q0 -79 -67 -126t-192 -54zM273 -244v-6q-59 2 -105 9q-49 9 -81 30.5t-32 50.5q0 77 152 77q-16 -7 -29.5 -27.5t-13.5 -43.5q0 -32 31.5 -57.5t77.5 -32.5z" />
    <glyph glyph-name="h" unicode="h" horiz-adv-x="695" 
d="M258 735v-678q0 -51 75 -51v-6h-315v6q75 0 75 51v580q0 28 -16.5 40.5t-57.5 12.5v6q145 0 239 39zM454 510q73 0 113.5 -35.5t40.5 -105.5v-312q0 -51 75 -51v-6h-314v6q74 0 74 51v312q0 85 -79 85q-42 0 -76 -31v6q23 34 68.5 57.5t97.5 23.5z" />
    <glyph glyph-name="i" unicode="i" horiz-adv-x="358" 
d="M77 660q0 39 28.5 63t73.5 24t73.5 -24t28.5 -63q0 -40 -28.5 -64t-73.5 -24t-73.5 24t-28.5 64zM26 466v6q144 0 239 39v-454q0 -51 75 -51v-6h-315v6q75 0 75 51v356q0 28 -16.5 40.5t-57.5 12.5z" />
    <glyph glyph-name="j" unicode="j" horiz-adv-x="337" 
d="M66 660q0 39 28.5 63t73.5 24t73.5 -24t28.5 -63q0 -40 -28.5 -64t-73.5 -24t-73.5 24t-28.5 64zM16 466v6q144 0 239 39v-541q0 -111 -67.5 -165.5t-188.5 -54.5v6q43 0 67 25.5t24 69.5v562q0 28 -16.5 40.5t-57.5 12.5z" />
    <glyph glyph-name="k" unicode="k" horiz-adv-x="657" 
d="M258 735v-678q0 -51 75 -51v-6h-315v6q75 0 75 51v580q0 28 -16.5 40.5t-57.5 12.5v6q145 0 239 39zM408 331l173 -268q17 -25 32 -37q3 -3 6 -5t6.5 -3.5t5.5 -3t6 -2.5t5.5 -1.5t6.5 -1t6.5 -1t8 -1.5t8.5 -1v-6q-33 -10 -100 -10q-61 0 -104.5 21t-76.5 76l-94 157
q69 59 111 114t42 90q0 46 -59 46v6h256v-6q-33 0 -56 -18z" />
    <glyph glyph-name="l" unicode="l" horiz-adv-x="351" 
d="M19 690v6q145 0 239 39v-678q0 -51 75 -51v-6h-315v6q75 0 75 51v580q0 28 -16.5 40.5t-57.5 12.5z" />
    <glyph glyph-name="m" unicode="m" horiz-adv-x="1014" 
d="M264 510v-453q0 -51 75 -51v-6h-315v6q75 0 75 51v355q0 28 -16.5 40.5t-57.5 12.5v6q145 0 239 39zM441 510q155 0 155 -141v-312q0 -51 74 -51v-6h-314v6q75 0 75 51v312q0 85 -70 85q-42 0 -66 -30v6q20 35 58.5 57.5t87.5 22.5zM772 510q155 0 155 -141v-312
q0 -51 75 -51v-6h-315v6q75 0 75 51v312q0 85 -70 85q-42 0 -66 -30v6q20 35 58.5 57.5t87.5 22.5z" />
    <glyph glyph-name="n" unicode="n" horiz-adv-x="702" 
d="M339 0h-315v6q75 0 75 51v355q0 28 -16.5 40.5t-57.5 12.5v6q145 0 239 39v-453q0 -51 75 -51v-6zM690 0h-314v6q74 0 74 51v312q0 85 -79 85q-42 0 -76 -31v6q23 34 68.5 57.5t97.5 23.5q73 0 113.5 -35.5t40.5 -105.5v-312q0 -51 75 -51v-6z" />
    <glyph glyph-name="o" unicode="o" horiz-adv-x="621" 
d="M291 510v-6q-46 -5 -62 -57q-17 -54 -17 -195t17 -196.5t62 -59.5v-6q-94 0 -172 72q-77 72 -77 190t76 187q75 69 173 71zM331 504v6q60 0 115 -28q58 -29 95.5 -90.5t37.5 -139.5q0 -118 -77 -190q-76 -72 -171 -72v6q45 5 61 60q17 57 17 196q0 99 -7.5 152t-23.5 75
t-47 25z" />
    <glyph glyph-name="p" unicode="p" horiz-adv-x="682" 
d="M255 511v-663q0 -28 16.5 -40.5t57.5 -12.5v-6q-127 0 -239 -39v663q0 28 -16.5 40.5t-57.5 12.5v6q126 0 239 39zM431 510q39 0 73.5 -12.5t65 -40t48.5 -79.5t18 -123q0 -148 -67 -212q-59 -53 -138 -53q-41 0 -85 24q-41 25 -61 57v6q47 -35 84 -35q97 0 97 213
q0 53 -5.5 91t-14 59.5t-21.5 34t-26 16t-30 3.5q-50 0 -84 -37v8q20 33 61 56q44 24 85 24z" />
    <glyph glyph-name="q" unicode="q" horiz-adv-x="674" 
d="M592 511v-663q0 -28 16.5 -40.5t57.5 -12.5v-6q-126 0 -239 -39v723q96 9 165 38zM251 510q42 0 84 -24q42 -23 62 -56v-8q-34 37 -84 37q-17 0 -30 -3.5t-26 -16t-21.5 -34t-14 -59.5t-5.5 -91q0 -213 97 -213q37 0 84 35v-6q-20 -32 -62 -57q-42 -24 -84 -24
q-79 0 -138 53q-67 64 -67 212q0 71 18 123t48.5 79.5t65 40t73.5 12.5z" />
    <glyph glyph-name="r" unicode="r" horiz-adv-x="552" 
d="M264 510v-453q0 -51 75 -51v-6h-315v6q75 0 75 51v355q0 28 -16.5 40.5t-57.5 12.5v6q145 0 239 39zM427 510q49 0 78 -30t29 -78q0 -49 -30 -81.5t-73 -32.5q-41 0 -57 22q39 21 39 68q0 23 -15.5 38.5t-40.5 15.5q-39 0 -60 -38v8q14 49 49.5 78.5t80.5 29.5z" />
    <glyph glyph-name="s" unicode="s" horiz-adv-x="546" 
d="M249 510v-6q-34 -6 -53.5 -23t-18.5 -44q1 -57 117 -109q39 -17 58.5 -26.5t54 -29.5t52 -36.5t31.5 -41.5t14 -51q0 -70 -55.5 -109.5t-155.5 -43.5v6q89 15 89 74q0 49 -116 105q-37 18 -49 24t-45.5 24.5t-47.5 30.5t-34.5 31t-28 38.5t-7.5 40.5q0 63 54 102.5
t141 43.5zM293 504v6q86 -5 139 -33t53 -70q0 -26 -20 -44t-54 -18q-64 0 -85 48q21 1 33.5 14.5t11.5 32.5q0 22 -23.5 41t-54.5 23zM128 163q62 0 88 -44q-25 -1 -40.5 -14.5t-15.5 -35.5q0 -28 22 -48t67 -25v-6q-99 4 -152.5 29.5t-53.5 69.5q0 32 24.5 53t60.5 21z" />
    <glyph glyph-name="t" unicode="t" horiz-adv-x="412" 
d="M317 26q44 0 95 51v-6q-25 -37 -71 -59t-100 -22q-73 0 -113.5 35.5t-40.5 105.5v328h-52l11 15h41v108q99 0 164 56v-164h135l-11 -15h-124v-331q0 -44 17 -73t49 -29z" />
    <glyph glyph-name="u" unicode="u" horiz-adv-x="683" 
d="M253 510v-379q0 -85 69 -85q39 0 69 31v-6q-20 -37 -60 -59t-95 -22q-148 0 -148 141v281q0 28 -16.5 40.5t-57.5 12.5v6q144 0 239 39zM586 510v-443q0 -41 27 -41q24 0 48 45h6q-12 -39 -48 -60t-88 -21q-51 0 -80.5 26.5t-29.5 71.5v324q0 28 -16 40.5t-55 12.5v6
q124 0 236 39z" />
    <glyph glyph-name="v" unicode="v" horiz-adv-x="571" 
d="M285 0h-6l-232 459q-17 35 -55 35v6h280v-6q-26 0 -35.5 -16.5t3.5 -42.5l131 -273zM523 447l-104 -196l-6 9q28 52 28 129q0 47 -26.5 76t-75.5 29v6h249v-6q-24 0 -37 -9.5t-28 -37.5z" />
    <glyph glyph-name="w" unicode="w" horiz-adv-x="900" 
d="M272 500v-6q-26 0 -35.5 -16.5t3.5 -42.5l131 -273l-86 -162h-6l-232 459q-17 35 -55 35v6h280zM601 500v-6q-26 0 -35.5 -16.5t3.5 -42.5l131 -273l-86 -162h-6l-157 311l-32 -60l-6 9q12 25 14.5 57t-6.5 54l-45 88q-17 35 -55 35v6h280zM668 494v6h249v-6
q-23 0 -36.5 -10t-28.5 -37l-104 -196l-6 9q28 52 28 129q0 47 -26.5 76t-75.5 29z" />
    <glyph glyph-name="x" unicode="x" horiz-adv-x="581" 
d="M583 0h-303v6q56 0 56 34q0 20 -20 52l-235 367q-23 35 -77 35v6h303v-6q-45 0 -45 -22q0 -19 29 -63l233 -368q21 -35 59 -35v-6zM495 437l-76 -136l-6 9q23 46 23 100q0 38 -21.5 61t-58.5 23v6h212v-6q-42 0 -73 -57zM231 0h-242v6q60 0 105 66l89 134l6 -9
q-32 -53 -32 -107q0 -36 21 -60t53 -24v-6z" />
    <glyph glyph-name="y" unicode="y" horiz-adv-x="571" 
d="M288 0h-6l-232 459q-17 35 -55 35v6h280v-6q-26 0 -35.5 -16.5t3.5 -42.5l131 -273zM526 447l-104 -196l-6 9q28 52 28 129q0 47 -26.5 76t-75.5 29v6h249v-6q-24 0 -37 -9.5t-28 -37.5zM94 -250q-41 0 -64.5 24.5t-23.5 64.5q0 32 23.5 57.5t64.5 36.5q-4 -11 -4 -25
q-1 -30 15.5 -48.5t43.5 -18.5q24 0 46.5 23t54.5 78h7l-35 -66q-22 -42 -33 -56q-20 -33 -34 -43q-32 -27 -61 -27z" />
    <glyph glyph-name="z" unicode="z" horiz-adv-x="568" 
d="M208 0h-180l318 500h177zM60 323h-6v177h232l-4 -6q-75 0 -142 -50q-65 -50 -80 -121zM520 0h-252l4 6q80 0 154 59q75 59 88 140h6v-205z" />
    <glyph glyph-name="braceleft" unicode="{" horiz-adv-x="343" 
d="M271 722q-24 0 -40 -19.5t-16 -50.5q0 -32 17 -120q18 -86 18 -143q0 -55 -42 -95t-102 -51q59 -10 102 -52q42 -41 42 -95q0 -56 -18 -142q-17 -88 -17 -120t16 -51.5t40 -19.5q22 0 42 14v-6q-29 -21 -87 -21q-64 0 -99.5 31.5t-35.5 94.5q0 58 16 147q17 94 17 133
q0 84 -101 84v6q101 0 101 84q0 38 -17 132q-16 89 -16 148q0 62 35.5 93.5t99.5 31.5q58 0 87 -21v-6q-20 14 -42 14z" />
    <glyph glyph-name="bar" unicode="|" horiz-adv-x="217" 
d="M122 -200h-27v935h27v-935z" />
    <glyph glyph-name="braceright" unicode="}" horiz-adv-x="342" 
d="M319 246v-6q-101 0 -101 -84q0 -44 16 -133q17 -94 17 -147q0 -63 -35.5 -94.5t-99.5 -31.5q-58 0 -87 21v6q20 -14 42 -14q24 0 40 19.5t16 51.5q0 34 -18 120q-17 88 -17 142t42 95q43 42 102 52q-60 11 -102 51t-42 95t17 143q18 86 18 120q0 31 -16 50.5t-40 19.5
q-22 0 -42 -14v6q29 21 87 21q64 0 99.5 -31.5t35.5 -93.5q0 -54 -17 -148q-16 -89 -16 -132q0 -84 101 -84z" />
    <glyph glyph-name="asciitilde" unicode="~" horiz-adv-x="572" 
d="M389 226q-37 0 -108 53q-70 53 -98 53q-87 0 -87 -94h-25q0 56 29.5 87.5t82.5 31.5q36 0 107 -53t99 -53q41 0 64.5 24.5t23.5 68.5h25q0 -55 -30.5 -86.5t-82.5 -31.5z" />
    <glyph glyph-name="exclamdown" unicode="&#xa1;" horiz-adv-x="328" 
d="M57 438q0 42 29.5 67t77.5 25t77.5 -25t29.5 -67q0 -41 -29.5 -66t-77.5 -25t-77.5 25t-29.5 66zM47 -92q0 63 56 173q22 43 38 96q18 55 18 105h10q-2 -51 27 -126.5t58 -144t27 -103.5q0 -60 -31 -98t-86 -38t-86 38t-31 98z" />
    <glyph glyph-name="cent" unicode="&#xa2;" horiz-adv-x="568" 
d="M333 445q20 8 34 30t14 43q0 59 -43 66v97h20v-90q79 -4 120.5 -35t41.5 -78q0 -42 -27.5 -69t-72.5 -27q-34 0 -57.5 18.5t-29.5 44.5zM375 114q78 0 146 53v-6q-55 -70 -163 -86v-90h-20v87q-7 -1 -29 -1q-103 0 -186 71q-81 72 -81 191q0 81 40 140q79 116 216 118v-6
q-46 -4 -66 -58q-19 -51 -19 -190q0 -105 46 -164q47 -59 116 -59z" />
    <glyph glyph-name="sterling" unicode="&#xa3;" horiz-adv-x="669" 
d="M495 353v-25h-165q43 -120 43 -186q0 -68 -36.5 -110t-95.5 -42q-42 0 -83 10l1 6q4 -1 16 -1q36 0 56 30t20 82q0 43 -24 99l-28 60l-24 52h-98v25h87q-31 71 -31 124q0 87 57 145q59 59 153 68v-6q-27 -5 -45 -42t-18 -85q0 -84 41 -204h174zM381 558q30 0 50.5 18
t20.5 43q0 54 -69 65v6q84 -3 135 -35.5t51 -82.5q0 -39 -23.5 -60t-63.5 -21q-33 0 -61 18.5t-40 48.5zM541 184l2 5q42 0 67.5 -25t25.5 -66q0 -49 -29.5 -78.5t-78.5 -29.5q-47 0 -85 24t-54 63l1 5q38 -22 86 -22q38 0 64 20.5t26 49.5q0 38 -25 54zM98 71q0 -34 23 -55
l-2 -4q-37 6 -61 31.5t-24 60.5q0 34 26 57t63 23q70 0 100 -72v-6q-26 23 -65 23q-27 0 -43.5 -15.5t-16.5 -42.5z" />
    <glyph glyph-name="currency" unicode="&#xa4;" horiz-adv-x="526" 
d="M442 322q0 -70 -46 -119l64 -64l-14 -14l-63 63q-51 -45 -119 -45q-70 0 -119 46l-65 -64l-14 14l65 64q-46 49 -46 119q0 68 45 119l-64 64l14 14l65 -65q49 46 119 46q68 0 119 -45l63 64l14 -14l-63 -64q45 -51 45 -119zM264 180q57 0 98 41q41 43 41 101
q0 59 -41 100t-98 41q-59 0 -100 -41q-40 -40 -40 -100t40 -101q41 -41 100 -41z" />
    <glyph glyph-name="yen" unicode="&#xa5;" horiz-adv-x="752" 
d="M292 639q0 -13 12 -40q16 -35 61 -120l25 -48l62 -121h144v-25h-134v-95h134v-25h-134v-108q0 -51 75 -51v-6h-320v6q75 0 75 51v108h-136v25h136v50l-23 45h-113v25h100l-161 315q-13 26 -28.5 37.5t-41.5 11.5v6h313v-6q-46 0 -46 -35zM434 674v6h293v-6q-39 0 -67 -48
l-149 -259l-4 7q21 40 31 64q27 58 27 121q0 51 -40 82q-40 33 -91 33z" />
    <glyph glyph-name="brokenbar" unicode="&#xa6;" horiz-adv-x="211" 
d="M119 410h-27v325h27v-325zM119 -200h-27v325h27v-325z" />
    <glyph glyph-name="section" unicode="&#xa7;" horiz-adv-x="517" 
d="M381 166l-22 15q17 17 17 47q0 69 -103 132q-4 2 -27.5 16.5t-29.5 18.5t-27 17.5t-28 20.5t-23 20t-22 23t-15 23.5t-12 26.5t-3 27q0 59 42 95.5t115 41.5v-7q-61 -16 -60 -67q1 -49 103 -109q43 -25 65 -39.5t55.5 -41.5t49 -55.5t15.5 -59.5q0 -105 -90 -145z
M382 527q-24 0 -44 11.5t-29 30.5q17 2 28 16t11 35q0 23 -18.5 40.5t-48.5 22.5v7q74 -5 118.5 -31.5t44.5 -64.5q0 -30 -17 -48.5t-45 -18.5zM274 -130v7q61 18 61 61q0 69 -103 132q-4 2 -27.5 16.5t-29.5 18.5t-27 17.5t-28 20.5t-23 20t-22 23t-15 23.5t-12 26.5t-3 27
q0 51 30.5 85t85.5 46l16 -10q-37 -17 -35 -58q1 -49 103 -109q43 -25 65 -39.5t55.5 -41.5t49 -55.5t15.5 -59.5q0 -73 -43.5 -112t-112.5 -39zM236 -123v-7q-74 5 -118.5 31.5t-44.5 64.5q0 30 17 48.5t45 18.5q24 0 44 -11.5t29 -30.5q-17 -2 -28 -16t-11 -35
q0 -23 18.5 -40.5t48.5 -22.5z" />
    <glyph glyph-name="dieresis" unicode="&#xa8;" horiz-adv-x="514" 
d="M40 679q0 34 24 55t61 21q38 0 63 -21t25 -55q0 -36 -24.5 -58.5t-62.5 -22.5t-62 22.5t-24 58.5zM303 679q0 34 24 55t62 21t61.5 -21t23.5 -55q0 -37 -23.5 -59t-61.5 -22t-62 22.5t-24 58.5z" />
    <glyph glyph-name="copyright" unicode="&#xa9;" horiz-adv-x="620" 
d="M567 437q0 -107 -75 -180q-73 -73 -182 -73q-108 0 -182 73q-75 73 -75 180q0 105 75 179q76 74 182 74t182 -74q75 -74 75 -179zM144 272q67 -66 166 -66q98 0 166 66q67 66 67 165t-67 165t-166 66q-98 0 -166 -66q-67 -66 -67 -165t67 -165zM413 568l14 24h6v-105h-7
q-26 99 -99 99q-40 0 -57 -33.5t-17 -108.5q0 -137 93 -137q52 0 81 41l3 -6q-32 -53 -103 -53q-61 0 -110 40t-49 111q0 69 43.5 111t115.5 42q52 0 86 -25z" />
    <glyph glyph-name="ordfeminine" unicode="&#xaa;" horiz-adv-x="444" 
d="M128 575q-23 0 -38 14t-15 33q0 62 112 68v-4q-18 -2 -29 -15t-11 -29q0 -35 40 -38q-7 -13 -23.5 -21t-35.5 -8zM324 371q-39 0 -55 15.5t-16 53.5v188q0 52 -42 58v4q75 -3 109 -32.5t34 -90.5v-149q0 -25 17 -25q16 0 29 28h4q-15 -50 -80 -50zM137 371q-40 0 -64 21
t-23 57q1 39 33 61.5t85 22.5h67v-4h-19q-32 0 -48.5 -18t-16.5 -49q0 -59 39 -59q20 0 45 21v-3q-44 -50 -98 -50z" />
    <glyph glyph-name="guillemotleft" unicode="&#xab;" horiz-adv-x="583" 
d="M280 452l10 -5q-30 -110 -113 -201q81 -88 113 -201l-10 -5q-116 123 -245 196v20q129 73 245 196zM517 452l10 -5q-30 -110 -113 -201q81 -88 113 -201l-10 -5q-116 123 -245 196v20q129 73 245 196z" />
    <glyph glyph-name="registered" unicode="&#xae;" horiz-adv-x="620" 
d="M567 437q0 -107 -75 -180q-73 -73 -182 -73q-108 0 -182 73q-75 73 -75 180q0 105 75 179q76 74 182 74t182 -74q75 -74 75 -179zM144 272q67 -66 166 -66q98 0 166 66q67 66 67 165t-67 165t-166 66q-98 0 -166 -66q-67 -66 -67 -165t67 -165zM474 324h6q-8 -35 -58 -35
q-40 0 -57.5 19t-20.5 56q-2 23 -5 34.5t-14 20.5t-31 11h-16v-105q0 -25 32 -25v-7h-138v7q33 0 33 25v238q0 17 -33 17v7h128q68 0 99 -17.5t31 -56.5q0 -61 -83 -79q70 -9 79 -70q9 -60 28 -60q14 0 20 20zM278 580v-143h16q30 0 46.5 21t16.5 55q0 36 -13.5 51.5
t-43.5 15.5h-22z" />
    <glyph glyph-name="overscore" unicode="&#xaf;" horiz-adv-x="397" 
d="M40 665v35h317v-35h-317z" />
    <glyph glyph-name="degree" unicode="&#xb0;" horiz-adv-x="328" 
d="M251 596q-35 -35 -87 -35q-51 0 -88 35q-35 35 -35 87t35 87q37 35 88 35q52 0 87 -35q36 -34 36 -87t-36 -87zM101 618q28 -27 63 -27t62 27q28 28 28 65t-28 65q-27 28 -62 28t-63 -28q-27 -28 -27 -65t27 -65z" />
    <glyph glyph-name="plusminus" unicode="&#xb1;" horiz-adv-x="596" 
d="M312 507v-143h201v-25h-201v-143h-27v143h-202v25h202v143h27zM513 91h-430v25h430v-25z" />
    <glyph glyph-name="acute" unicode="&#xb4;" horiz-adv-x="260" 
d="M25 566l-5 9q67 82 114 235l106 -63q-37 -58 -99 -110q-59 -50 -116 -71z" />
    <glyph glyph-name="paragraph" unicode="&#xb6;" horiz-adv-x="607" 
d="M31 478q0 106 82.5 154t250.5 48v-543q0 -117 -34 -188q-34 -73 -89 -79v6q31 14 37 98q3 25 5 73q1 21 1 90v127q-253 25 -253 214zM454 211v469h120v-6q-46 0 -73 -36t-27 -89v-338q0 -120 -13 -181q-14 -65 -50 -117v6q25 43 34 110t9 182z" />
    <glyph glyph-name="middot" unicode="&#xb7;" horiz-adv-x="295" 
d="M61 232q0 34 24 55t61 21q38 0 63 -21t25 -55q0 -36 -24.5 -58.5t-62.5 -22.5t-62 22.5t-24 58.5z" />
    <glyph glyph-name="cedilla" unicode="&#xb8;" horiz-adv-x="346" 
d="M167 -280q-35 0 -68.5 15.5t-51.5 41.5l7 4q31 -28 71 -28q31 0 52 21t21 53q0 33 -32 56q-32 21 -69 21l86 93h21l-51 -58q70 2 111.5 -25t41.5 -77q0 -51 -42 -84q-40 -33 -97 -33z" />
    <glyph glyph-name="ordmasculine" unicode="&#xba;" horiz-adv-x="421" 
d="M198 374v-3q-57 0 -106 44q-47 44 -47 117q0 72 47 114q45 42 106 44v-4q-28 -3 -38.5 -35.5t-10.5 -118.5t11 -120.5t38 -37.5zM222 371v3q28 3 38 37t10 121q0 90 -10 120q-11 33 -38 34v4q60 0 106 -43q47 -42 47 -115q0 -74 -48 -117q-47 -44 -105 -44z" />
    <glyph glyph-name="guillemotright" unicode="&#xbb;" horiz-adv-x="583" 
d="M311 256v-20q-129 -73 -245 -196l-10 5q32 113 113 201q-83 91 -113 201l10 5q116 -123 245 -196zM293 447l10 5q116 -123 245 -196v-20q-129 -73 -245 -196l-10 5q32 113 113 201q-83 91 -113 201z" />
    <glyph glyph-name="onequarter" unicode="&#xbc;" horiz-adv-x="701" 
d="M72 -30l488 740h28l-488 -740h-28zM58 348v7q41 0 41 33v214q-4 22 -12.5 26.5t-38.5 4.5v7q88 14 140 50v-302q0 -33 40 -33v-7h-170zM671 91v-7h-65v-43q0 -19 8.5 -26.5t31.5 -7.5v-7h-168v7q24 0 32.5 7.5t8.5 26.5v43h-144v7q111 71 111 150q0 29 -12.5 39.5
t-42.5 10.5l-15 -2q11 24 33.5 38.5t47.5 14.5q36 0 58 -16.5t22 -43.5q0 -50 -54 -100q-53 -49 -133 -91h129v35q50 41 84 104h3v-139h65z" />
    <glyph glyph-name="onehalf" unicode="&#xbd;" horiz-adv-x="694" 
d="M52 -30l488 740h28l-488 -740h-28zM96 388v214q0 16 -8 23t-15 7.5t-28 0.5v7q88 14 140 50v-302q0 -33 40 -33v-7h-170v7q41 0 41 33zM652 111h7q0 -67 -16 -94t-62 -27q-25 0 -65 14q-38 15 -57 15q-24 0 -35 -5.5t-20 -18.5h-6q0 39 16.5 70t40 51.5t46.5 40t39.5 46
t16.5 57.5q0 34 -15.5 52.5t-38.5 18.5q-21 0 -35 -13t-14 -36q0 -17 13 -28t30 -11q0 -23 -13.5 -35.5t-35.5 -12.5q-26 0 -41.5 15.5t-15.5 41.5q0 39 34.5 62.5t90.5 23.5q60 0 96.5 -23.5t36.5 -62.5q0 -36 -33 -65q-29 -26 -91 -58q-59 -29 -72 -39q30 -1 56 -6
q55 -9 74 -9q34 0 49.5 7.5t19.5 28.5z" />
    <glyph glyph-name="threequarters" unicode="&#xbe;" horiz-adv-x="751" 
d="M99 -30l488 740h28l-488 -740h-28zM286 436q0 -45 -40 -70q-39 -24 -91 -24q-44 0 -74.5 17.5t-30.5 46.5q0 22 15 34.5t36 12.5q18 0 31 -10.5t13 -26.5q-17 0 -29 -8.5t-12 -22.5q0 -36 37 -36q25 0 41 21.5t16 60.5q0 37 -19 62.5t-53 27.5v7q35 1 53.5 25.5
t18.5 61.5q0 34 -14.5 51t-37.5 17q-18 0 -30 -9.5t-12 -26.5q0 -12 13 -21.5t28 -9.5q0 -17 -12 -27t-32 -10q-22 0 -36.5 13.5t-14.5 36.5q0 28 30 44.5t75 16.5q53 0 91 -22q40 -22 40 -61q0 -70 -115 -83q49 -6 82 -29t33 -59zM722 91v-7h-65v-43q0 -19 8.5 -26.5
t31.5 -7.5v-7h-168v7q24 0 32.5 7.5t8.5 26.5v43h-144v7q111 71 111 150q0 29 -12.5 39.5t-42.5 10.5l-15 -2q11 24 33.5 38.5t47.5 14.5q36 0 58 -16.5t22 -43.5q0 -50 -54 -100q-53 -49 -133 -91h129v35q50 41 84 104h3v-139h65z" />
    <glyph glyph-name="questiondown" unicode="&#xbf;" horiz-adv-x="562" 
d="M173 437q0 42 29.5 67t77.5 25t77.5 -25t29.5 -67q0 -41 -29.5 -66t-77.5 -25t-77.5 25t-29.5 66zM273 -223v-6q-242 17 -242 165q0 46 34 86q36 43 74 65q44 28 75 56q34 31 34 60q0 39 -36 58l1 6q70 0 108.5 -30.5t38.5 -80.5q0 -30 -16.5 -58t-40 -50t-46.5 -45
t-39.5 -54t-16.5 -66q0 -81 72 -106zM323 -229v6q33 9 52 36.5t19 60.5q0 63 -56 86q28 40 92 40q45 0 74.5 -25t29.5 -69q0 -62 -66 -96q-66 -36 -145 -39z" />
    <glyph glyph-name="Agrave" unicode="&#xc0;" horiz-adv-x="726" 
d="M491 735v-5q-158 16 -256 114l86 85q69 -122 170 -194zM368 690l296 -632q13 -29 33 -40.5t57 -11.5v-6h-361v6q40 0 59.5 23.5t2.5 58.5l-189 398l92 204h10zM332 206l3 -6l-185 -6q-14 -47 -14 -79q0 -51 39 -80q41 -29 86 -29v-6h-288v4q64 0 116 111l137 288l3 -9
q-55 -119 -74 -182z" />
    <glyph glyph-name="Aacute" unicode="&#xc1;" horiz-adv-x="726" 
d="M405 929l86 -85q-98 -98 -256 -114v5q101 72 170 194zM368 690l296 -632q13 -29 33 -40.5t57 -11.5v-6h-361v6q40 0 59.5 23.5t2.5 58.5l-189 398l92 204h10zM332 206l3 -6l-185 -6q-14 -47 -14 -79q0 -51 39 -80q41 -29 86 -29v-6h-288v4q64 0 116 111l137 288l3 -9
q-55 -119 -74 -182z" />
    <glyph glyph-name="Acircumflex" unicode="&#xc2;" horiz-adv-x="726" 
d="M363 814q-70 -63 -170 -84l-3 6q117 86 155 181h36q41 -98 155 -181l-3 -6q-100 21 -170 84zM368 690l296 -632q13 -29 33 -40.5t57 -11.5v-6h-361v6q40 0 59.5 23.5t2.5 58.5l-189 398l92 204h10zM332 206l3 -6l-185 -6q-14 -47 -14 -79q0 -51 39 -80q41 -29 86 -29v-6
h-288v4q64 0 116 111l137 288l3 -9q-55 -119 -74 -182z" />
    <glyph glyph-name="Atilde" unicode="&#xc3;" horiz-adv-x="726" 
d="M210 744h-6q-28 24 -28 68q0 39 24.5 62t73.5 23q44 0 116 -28q74 -27 99 -27q42 0 42 32q0 13 -16 32h6q28 -24 28 -65q0 -40 -24.5 -64t-73.5 -24q-43 0 -116 27q-72 28 -99 28q-42 0 -42 -32q0 -13 16 -32zM368 690l296 -632q13 -29 33 -40.5t57 -11.5v-6h-361v6
q40 0 59.5 23.5t2.5 58.5l-189 398l92 204h10zM332 206l3 -6l-185 -6q-14 -47 -14 -79q0 -51 39 -80q41 -29 86 -29v-6h-288v4q64 0 116 111l137 288l3 -9q-55 -119 -74 -182z" />
    <glyph glyph-name="Adieresis" unicode="&#xc4;" horiz-adv-x="726" 
d="M146 828q0 34 24 55t61 21q38 0 63 -21t25 -55q0 -36 -24.5 -58.5t-62.5 -22.5t-62 22.5t-24 58.5zM409 828q0 34 24 55t62 21t61.5 -21t23.5 -55q0 -37 -23.5 -59t-61.5 -22t-62 22.5t-24 58.5zM368 690l296 -632q13 -29 33 -40.5t57 -11.5v-6h-361v6q40 0 59.5 23.5
t2.5 58.5l-189 398l92 204h10zM332 206l3 -6l-185 -6q-14 -47 -14 -79q0 -51 39 -80q41 -29 86 -29v-6h-288v4q64 0 116 111l137 288l3 -9q-55 -119 -74 -182z" />
    <glyph glyph-name="Aring" unicode="&#xc5;" horiz-adv-x="726" 
d="M436 755q-30 -29 -73 -29t-73 29q-30 30 -30 73q0 44 30 72q30 30 73 30t73 -30q30 -28 30 -72q0 -43 -30 -73zM304 828q0 -25 17 -42.5t42 -17.5t42 17.5t17 42.5q0 26 -17 43.5t-42 17.5t-42 -17.5t-17 -43.5zM368 690l296 -632q13 -29 33 -40.5t57 -11.5v-6h-361v6
q40 0 59.5 23.5t2.5 58.5l-189 398l92 204h10zM332 206l3 -6l-185 -6q-14 -47 -14 -79q0 -51 39 -80q41 -29 86 -29v-6h-288v4q64 0 116 111l137 288l3 -9q-55 -119 -74 -182z" />
    <glyph glyph-name="AE" unicode="&#xc6;" horiz-adv-x="1007" 
d="M372 674v6h245v-680h-245v6q75 0 75 51v565q0 52 -75 52zM942 495h-8q-41 95 -98 133q-55 38 -169 46v6h275v-185zM357 252l3 -6l-187 -6q-38 -90 -38 -125q0 -51 39 -80q41 -29 86 -29v-6h-288v4q32 0 59 26.5t57 84.5l250 482v-20q-125 -249 -157 -319zM862 260h-8
q-44 76 -132 84l-55 5v6l55 5q86 8 132 86h8v-186zM944 185h8v-185h-285v6q113 7 176 46q60 38 101 133z" />
    <glyph glyph-name="Ccedilla" unicode="&#xc7;" horiz-adv-x="703" 
d="M460 30q118 0 191 89l4 -8q-38 -59 -101 -90t-140 -31q-16 0 -21 1l-46 -53q70 2 111.5 -25t41.5 -77q0 -51 -42 -84q-40 -33 -97 -33q-35 0 -68.5 15.5t-51.5 41.5l7 4q31 -28 71 -28q31 0 52 21t21 53q0 33 -32 56q-32 21 -69 21l83 89q-122 14 -221 99q-49 43 -77 108
t-28 140q0 88 32 158.5t85 110.5q104 77 225 82v-6q-146 -32 -146 -338q0 -316 216 -316zM621 644l30 46h8v-243h-8q-57 195 -211 237v6q118 -4 181 -46z" />
    <glyph glyph-name="Egrave" unicode="&#xc8;" horiz-adv-x="673" 
d="M461 735v-5q-158 16 -256 114l86 85q69 -122 170 -194zM288 680v-680h-245v6q75 0 75 51v565q0 52 -75 52v6h245zM338 674v6h264v-185h-8q-32 96 -87 133q-55 38 -169 46zM393 344l-55 5v6l55 5q86 8 132 86h8v-186h-8q-43 76 -132 84zM623 0h-285v6q113 7 176 46
q60 38 101 133h8v-185z" />
    <glyph glyph-name="Eacute" unicode="&#xc9;" horiz-adv-x="673" 
d="M205 730v5q101 72 170 194l86 -85q-98 -98 -256 -114zM288 680v-680h-245v6q75 0 75 51v565q0 52 -75 52v6h245zM338 674v6h264v-185h-8q-32 96 -87 133q-55 38 -169 46zM393 344l-55 5v6l55 5q86 8 132 86h8v-186h-8q-43 76 -132 84zM623 0h-285v6q113 7 176 46
q60 38 101 133h8v-185z" />
    <glyph glyph-name="Ecircumflex" unicode="&#xca;" horiz-adv-x="673" 
d="M333 814q-70 -63 -170 -84l-3 6q117 86 155 181h36q41 -98 155 -181l-3 -6q-100 21 -170 84zM43 674v6h245v-680h-245v6q75 0 75 51v565q0 52 -75 52zM602 680v-185h-8q-32 96 -87 133q-55 38 -169 46v6h264zM338 355l55 5q86 8 132 86h8v-186h-8q-43 76 -132 84l-55 5v6
zM615 185h8v-185h-285v6q113 7 176 46q60 38 101 133z" />
    <glyph glyph-name="Edieresis" unicode="&#xcb;" horiz-adv-x="673" 
d="M116 828q0 34 24 55t61 21q38 0 63 -21t25 -55q0 -36 -24.5 -58.5t-62.5 -22.5t-62 22.5t-24 58.5zM379 828q0 34 24 55t62 21t61.5 -21t23.5 -55q0 -37 -23.5 -59t-61.5 -22t-62 22.5t-24 58.5zM288 680v-680h-245v6q75 0 75 51v565q0 52 -75 52v6h245zM338 674v6h264
v-185h-8q-32 96 -87 133q-55 38 -169 46zM393 344l-55 5v6l55 5q86 8 132 86h8v-186h-8q-43 76 -132 84zM623 0h-285v6q113 7 176 46q60 38 101 133h8v-185z" />
    <glyph glyph-name="Igrave" unicode="&#xcc;" horiz-adv-x="406" 
d="M331 735v-5q-158 16 -256 114l86 85q69 -122 170 -194zM363 0h-320v6q75 0 75 51v566q0 51 -75 51v6h320v-6q-75 0 -75 -51v-566q0 -51 75 -51v-6z" />
    <glyph glyph-name="Iacute" unicode="&#xcd;" horiz-adv-x="406" 
d="M75 730v5q101 72 170 194l86 -85q-98 -98 -256 -114zM363 0h-320v6q75 0 75 51v566q0 51 -75 51v6h320v-6q-75 0 -75 -51v-566q0 -51 75 -51v-6z" />
    <glyph glyph-name="Icircumflex" unicode="&#xce;" horiz-adv-x="406" 
d="M185 917h36q41 -98 155 -181l-3 -6q-100 21 -170 84q-70 -63 -170 -84l-3 6q117 86 155 181zM43 674v6h320v-6q-75 0 -75 -51v-566q0 -51 75 -51v-6h-320v6q75 0 75 51v566q0 51 -75 51z" />
    <glyph glyph-name="Idieresis" unicode="&#xcf;" horiz-adv-x="406" 
d="M-14 828q0 34 24 55t61 21q38 0 63 -21t25 -55q0 -36 -24.5 -58.5t-62.5 -22.5t-62 22.5t-24 58.5zM249 828q0 34 24 55t62 21t61.5 -21t23.5 -55q0 -37 -23.5 -59t-61.5 -22t-62 22.5t-24 58.5zM363 0h-320v6q75 0 75 51v566q0 51 -75 51v6h320v-6q-75 0 -75 -51v-566
q0 -51 75 -51v-6z" />
    <glyph glyph-name="Eth" unicode="&#xd0;" horiz-adv-x="783" 
d="M438 368v-25h-150v-343h-245v6q75 0 75 51v286h-75v25h75v254q0 52 -75 52v6h245v-312h150zM338 674v6q190 0 292.5 -86.5t102.5 -250.5q0 -167 -102.5 -255t-292.5 -88v6q63 4 106.5 35t71 106.5t27.5 195.5q0 91 -15 155.5t-43.5 101t-64 54t-82.5 20.5z" />
    <glyph glyph-name="Ntilde" unicode="&#xd1;" horiz-adv-x="779" 
d="M239 744h-6q-28 24 -28 68q0 39 24.5 62t73.5 23q44 0 116 -28q73 -27 99 -27q42 0 42 32q0 13 -16 32h6q28 -24 28 -65q0 -40 -24.5 -64t-73.5 -24q-42 0 -116 27q-72 28 -99 28q-42 0 -42 -32q0 -13 16 -32zM293 680l368 -551v-129h-111l-418 623q-18 29 -42 40t-64 11
v6h267zM663 590l-4 -360l-8 11l-12 349q-1 37 -26.5 60.5t-71.5 23.5v6h220v-6q-45 0 -71.5 -24.5t-26.5 -59.5zM123 90l8 432l8 -12l8 -420q1 -37 26.5 -60.5t71.5 -23.5v-6h-220v6q45 0 71 24t27 60z" />
    <glyph glyph-name="Ograve" unicode="&#xd2;" horiz-adv-x="818" 
d="M537 735v-5q-158 16 -256 114l86 85q69 -122 170 -194zM384 -4v-6q-115 0 -222 91q-52 44 -83 114.5t-31 150.5q0 79 30.5 146.5t82.5 109.5q105 88 223 88v-6q-140 -15 -140 -338q0 -120 20 -202q20 -75 49 -108.5t71 -39.5zM434 -10v6q39 4 69 37q32 34 51.5 115
t19.5 198q0 323 -140 338v6q118 0 223 -88q52 -42 82.5 -109.5t30.5 -146.5q0 -80 -31 -150.5t-83 -114.5q-107 -91 -222 -91z" />
    <glyph glyph-name="Oacute" unicode="&#xd3;" horiz-adv-x="818" 
d="M281 730v5q101 72 170 194l86 -85q-98 -98 -256 -114zM384 -4v-6q-115 0 -222 91q-52 44 -83 114.5t-31 150.5q0 79 30.5 146.5t82.5 109.5q105 88 223 88v-6q-140 -15 -140 -338q0 -120 20 -202q20 -75 49 -108.5t71 -39.5zM434 -10v6q39 4 69 37q32 34 51.5 115
t19.5 198q0 323 -140 338v6q118 0 223 -88q52 -42 82.5 -109.5t30.5 -146.5q0 -80 -31 -150.5t-83 -114.5q-107 -91 -222 -91z" />
    <glyph glyph-name="Ocircumflex" unicode="&#xd4;" horiz-adv-x="818" 
d="M409 814q-70 -63 -170 -84l-3 6q117 86 155 181h36q41 -98 155 -181l-3 -6q-100 21 -170 84zM48 346q0 79 30.5 146.5t82.5 109.5q105 88 223 88v-6q-140 -15 -140 -338q0 -120 20 -202q20 -75 49 -108.5t71 -39.5v-6q-115 0 -222 91q-52 44 -83 114.5t-31 150.5z
M434 684v6q118 0 223 -88q52 -42 82.5 -109.5t30.5 -146.5q0 -80 -31 -150.5t-83 -114.5q-107 -91 -222 -91v6q39 4 69 37q32 34 51.5 115t19.5 198q0 323 -140 338z" />
    <glyph glyph-name="Otilde" unicode="&#xd5;" horiz-adv-x="818" 
d="M256 744h-6q-28 24 -28 68q0 39 24.5 62t73.5 23q44 0 116 -28q74 -27 99 -27q42 0 42 32q0 13 -16 32h6q28 -24 28 -65q0 -40 -24.5 -64t-73.5 -24q-43 0 -116 27q-72 28 -99 28q-42 0 -42 -32q0 -13 16 -32zM384 -4v-6q-115 0 -222 91q-52 44 -83 114.5t-31 150.5
q0 79 30.5 146.5t82.5 109.5q105 88 223 88v-6q-140 -15 -140 -338q0 -120 20 -202q20 -75 49 -108.5t71 -39.5zM434 -10v6q39 4 69 37q32 34 51.5 115t19.5 198q0 323 -140 338v6q118 0 223 -88q52 -42 82.5 -109.5t30.5 -146.5q0 -80 -31 -150.5t-83 -114.5
q-107 -91 -222 -91z" />
    <glyph glyph-name="Odieresis" unicode="&#xd6;" horiz-adv-x="818" 
d="M192 828q0 34 24 55t61 21q38 0 63 -21t25 -55q0 -36 -24.5 -58.5t-62.5 -22.5t-62 22.5t-24 58.5zM455 828q0 34 24 55t62 21t61.5 -21t23.5 -55q0 -37 -23.5 -59t-61.5 -22t-62 22.5t-24 58.5zM384 -4v-6q-115 0 -222 91q-52 44 -83 114.5t-31 150.5q0 79 30.5 146.5
t82.5 109.5q105 88 223 88v-6q-140 -15 -140 -338q0 -120 20 -202q20 -75 49 -108.5t71 -39.5zM434 -10v6q39 4 69 37q32 34 51.5 115t19.5 198q0 323 -140 338v6q118 0 223 -88q52 -42 82.5 -109.5t30.5 -146.5q0 -80 -31 -150.5t-83 -114.5q-107 -91 -222 -91z" />
    <glyph glyph-name="multiply" unicode="&#xd7;" horiz-adv-x="490" 
d="M413 457l18 -18l-168 -162l168 -162l-18 -18l-168 163l-169 -163l-17 18l168 162l-168 162l17 18l169 -163z" />
    <glyph glyph-name="Oslash" unicode="&#xd8;" horiz-adv-x="818" 
d="M751 690l-87 -94q106 -99 106 -250q0 -80 -31 -150.5t-83 -114.5q-107 -91 -222 -91v6q39 4 69 37q32 34 51.5 115t19.5 198q0 76 -8 142l-305 -331q32 -151 123 -161v-6q-108 0 -206 77l-71 -77h-39l89 96q-109 103 -109 260q0 79 30.5 146.5t82.5 109.5q105 88 223 88
v-6q-140 -15 -140 -338q0 -86 10 -155l306 331q-28 152 -126 162v6q112 0 210 -77l72 77h35z" />
    <glyph glyph-name="Ugrave" unicode="&#xd9;" horiz-adv-x="744" 
d="M506 735v-5q-158 16 -256 114l86 85q69 -122 170 -194zM103 190v433q0 51 -75 51v6h320v-6q-75 0 -75 -51v-436q0 -81 24.5 -133t70.5 -58v-6q-144 0 -205 57q-60 57 -60 143zM628 549v-359q0 -83 -53 -142q-52 -58 -157 -58v6q90 1 140 57t50 134v362q0 53 -27 89
t-73 36v6h220v-6q-46 0 -73 -36t-27 -89z" />
    <glyph glyph-name="Uacute" unicode="&#xda;" horiz-adv-x="744" 
d="M250 730v5q101 72 170 194l86 -85q-98 -98 -256 -114zM103 190v433q0 51 -75 51v6h320v-6q-75 0 -75 -51v-436q0 -81 24.5 -133t70.5 -58v-6q-144 0 -205 57q-60 57 -60 143zM628 549v-359q0 -83 -53 -142q-52 -58 -157 -58v6q90 1 140 57t50 134v362q0 53 -27 89t-73 36
v6h220v-6q-46 0 -73 -36t-27 -89z" />
    <glyph glyph-name="Ucircumflex" unicode="&#xdb;" horiz-adv-x="744" 
d="M378 814q-70 -63 -170 -84l-3 6q117 86 155 181h36q41 -98 155 -181l-3 -6q-100 21 -170 84zM273 623v-436q0 -81 24.5 -133t70.5 -58v-6q-144 0 -205 57q-60 57 -60 143v433q0 51 -75 51v6h320v-6q-75 0 -75 -51zM508 674v6h220v-6q-46 0 -73 -36t-27 -89v-359
q0 -83 -53 -142q-52 -58 -157 -58v6q90 1 140 57t50 134v362q0 53 -27 89t-73 36z" />
    <glyph glyph-name="Udieresis" unicode="&#xdc;" horiz-adv-x="744" 
d="M161 828q0 34 24 55t61 21q38 0 63 -21t25 -55q0 -36 -24.5 -58.5t-62.5 -22.5t-62 22.5t-24 58.5zM424 828q0 34 24 55t62 21t61.5 -21t23.5 -55q0 -37 -23.5 -59t-61.5 -22t-62 22.5t-24 58.5zM103 190v433q0 51 -75 51v6h320v-6q-75 0 -75 -51v-436q0 -81 24.5 -133
t70.5 -58v-6q-144 0 -205 57q-60 57 -60 143zM628 549v-359q0 -83 -53 -142q-52 -58 -157 -58v6q90 1 140 57t50 134v362q0 53 -27 89t-73 36v6h220v-6q-46 0 -73 -36t-27 -89z" />
    <glyph glyph-name="Yacute" unicode="&#xdd;" horiz-adv-x="690" 
d="M382 929l86 -85q-98 -98 -256 -114v5q101 72 170 194zM434 291v-234q0 -51 75 -51v-6h-320v6q75 0 75 51v183l-197 385q-13 26 -28.5 37.5t-41.5 11.5v6h313v-6q-46 0 -46 -35q0 -17 33 -81q11 -22 45 -87zM406 674v6h293v-6q-39 0 -67 -48l-149 -259l-4 7q21 40 31 64
q27 58 27 121q0 51 -40 82q-41 33 -91 33z" />
    <glyph glyph-name="Thorn" unicode="&#xde;" horiz-adv-x="680" 
d="M363 0h-320v6q75 0 75 51v566q0 51 -75 51v6h245v-623q0 -51 75 -51v-6zM338 140v6q65 0 99 57t34 155q0 94 -33.5 145t-99.5 51v6q161 0 235 -46.5t74 -155.5q0 -112 -77.5 -165t-231.5 -53z" />
    <glyph glyph-name="germandbls" unicode="&#xdf;" horiz-adv-x="748" 
d="M263 519v-462q0 -51 75 -51v-6h-315v6q75 0 75 51v428h-65l11 15h54v6q0 58 22 104t60 71q71 48 153 54v-6q-36 -6 -53 -50q-17 -45 -17 -160zM446 415q123 -18 192.5 -77t69.5 -146q0 -97 -58 -149q-59 -53 -144 -53v6q27 11 34 48q8 40 8 137q0 91 -47.5 152t-135.5 75
v6q50 14 79.5 59.5t29.5 103.5q0 61 -30 104q-30 45 -71 48v6q116 -3 183.5 -46t67.5 -108q0 -59 -49 -104.5t-129 -61.5zM483 123q-24 0 -39 -16t-15 -43q0 -28 10 -46.5t27 -21.5v-6q-54 4 -87 31t-33 68q0 33 21 53.5t55 20.5q28 0 44.5 -11t16.5 -29z" />
    <glyph glyph-name="agrave" unicode="&#xe0;" horiz-adv-x="615" 
d="M412 551l-2 -5q-147 55 -218 176l105 60q34 -133 115 -231zM159 322q-39 0 -63 22.5t-24 56.5q0 45 45.5 75t136.5 34v-6q-29 -4 -46.5 -24.5t-17.5 -48.5q0 -27 17.5 -43t47.5 -18q-11 -21 -38.5 -34.5t-57.5 -13.5zM478 -10q-62 0 -89 26t-27 87v306q0 84 -68 95v6
q122 -4 177 -52t55 -148v-243q0 -41 28 -41q24 0 48 45h6q-12 -39 -47 -60t-83 -21zM173 -10q-65 0 -103.5 34.5t-37.5 93.5q1 63 53 99.5t139 36.5h108v-6h-30q-51 0 -78.5 -29.5t-27.5 -79.5q0 -97 63 -97q35 0 73 35v-6q-70 -81 -159 -81z" />
    <glyph glyph-name="aacute" unicode="&#xe1;" horiz-adv-x="615" 
d="M194 546l-2 5q81 98 115 231l105 -60q-71 -121 -218 -176zM159 322q-39 0 -63 22.5t-24 56.5q0 45 45.5 75t136.5 34v-6q-29 -4 -46.5 -24.5t-17.5 -48.5q0 -27 17.5 -43t47.5 -18q-11 -21 -38.5 -34.5t-57.5 -13.5zM478 -10q-62 0 -89 26t-27 87v306q0 84 -68 95v6
q122 -4 177 -52t55 -148v-243q0 -41 28 -41q24 0 48 45h6q-12 -39 -47 -60t-83 -21zM173 -10q-65 0 -103.5 34.5t-37.5 93.5q1 63 53 99.5t139 36.5h108v-6h-30q-51 0 -78.5 -29.5t-27.5 -79.5q0 -97 63 -97q35 0 73 35v-6q-70 -81 -159 -81z" />
    <glyph glyph-name="acircumflex" unicode="&#xe2;" horiz-adv-x="615" 
d="M300 643q-74 -64 -190 -86l-3 6q118 85 175 204h36q59 -119 175 -204l-3 -6q-111 18 -190 86zM159 322q-39 0 -63 22.5t-24 56.5q0 45 45.5 75t136.5 34v-6q-29 -4 -46.5 -24.5t-17.5 -48.5q0 -27 17.5 -43t47.5 -18q-11 -21 -38.5 -34.5t-57.5 -13.5zM602 71h6
q-12 -39 -47 -60t-83 -21q-62 0 -89 26t-27 87v306q0 84 -68 95v6q122 -4 177 -52t55 -148v-243q0 -41 28 -41q24 0 48 45zM32 118q1 63 53 99.5t139 36.5h108v-6h-30q-51 0 -78.5 -29.5t-27.5 -79.5q0 -97 63 -97q35 0 73 35v-6q-70 -81 -159 -81q-65 0 -103.5 34.5
t-37.5 93.5z" />
    <glyph glyph-name="atilde" unicode="&#xe3;" horiz-adv-x="615" 
d="M149 579h-6q-28 25 -28 68q0 39 24.5 62t73.5 23q44 0 116 -28q73 -27 99 -27q42 0 42 32q0 13 -16 32h6q28 -25 28 -65t-24.5 -64t-73.5 -24q-42 0 -116 27q-72 28 -99 28q-42 0 -42 -32q0 -13 16 -32zM159 322q-39 0 -63 22.5t-24 56.5q0 45 45.5 75t136.5 34v-6
q-29 -4 -46.5 -24.5t-17.5 -48.5q0 -27 17.5 -43t47.5 -18q-11 -21 -38.5 -34.5t-57.5 -13.5zM478 -10q-62 0 -89 26t-27 87v306q0 84 -68 95v6q122 -4 177 -52t55 -148v-243q0 -41 28 -41q24 0 48 45h6q-12 -39 -47 -60t-83 -21zM173 -10q-65 0 -103.5 34.5t-37.5 93.5
q1 63 53 99.5t139 36.5h108v-6h-30q-51 0 -78.5 -29.5t-27.5 -79.5q0 -97 63 -97q35 0 73 35v-6q-70 -81 -159 -81z" />
    <glyph glyph-name="adieresis" unicode="&#xe4;" horiz-adv-x="615" 
d="M85 660q0 34 24 55t61 21q38 0 63 -21t25 -55q0 -36 -24.5 -58.5t-62.5 -22.5t-62 22.5t-24 58.5zM348 660q0 34 24 55t62 21t61.5 -21t23.5 -55q0 -37 -23.5 -59t-61.5 -22t-62 22.5t-24 58.5zM159 322q-39 0 -63 22.5t-24 56.5q0 45 45.5 75t136.5 34v-6
q-29 -4 -46.5 -24.5t-17.5 -48.5q0 -27 17.5 -43t47.5 -18q-11 -21 -38.5 -34.5t-57.5 -13.5zM478 -10q-62 0 -89 26t-27 87v306q0 84 -68 95v6q122 -4 177 -52t55 -148v-243q0 -41 28 -41q24 0 48 45h6q-12 -39 -47 -60t-83 -21zM173 -10q-65 0 -103.5 34.5t-37.5 93.5
q1 63 53 99.5t139 36.5h108v-6h-30q-51 0 -78.5 -29.5t-27.5 -79.5q0 -97 63 -97q35 0 73 35v-6q-70 -81 -159 -81z" />
    <glyph glyph-name="aring" unicode="&#xe5;" horiz-adv-x="615" 
d="M375 586q-30 -29 -73 -29t-73 29q-30 30 -30 73t30 72q30 30 73 30t73 -30q30 -29 30 -72t-30 -73zM361 659q0 26 -17 43.5t-42 17.5t-42 -17.5t-17 -43.5q0 -25 17 -42.5t42 -17.5t42 17.5t17 42.5zM159 322q-39 0 -63 22.5t-24 56.5q0 45 45.5 75t136.5 34v-6
q-29 -4 -46.5 -24.5t-17.5 -48.5q0 -27 17.5 -43t47.5 -18q-11 -21 -38.5 -34.5t-57.5 -13.5zM478 -10q-62 0 -89 26t-27 87v306q0 84 -68 95v6q122 -4 177 -52t55 -148v-243q0 -41 28 -41q24 0 48 45h6q-12 -39 -47 -60t-83 -21zM173 -10q-65 0 -103.5 34.5t-37.5 93.5
q1 63 53 99.5t139 36.5h108v-6h-30q-51 0 -78.5 -29.5t-27.5 -79.5q0 -97 63 -97q35 0 73 35v-6q-70 -81 -159 -81z" />
    <glyph glyph-name="ae" unicode="&#xe6;" horiz-adv-x="883" 
d="M159 322q-38 0 -62.5 22.5t-24.5 54.5q0 48 45.5 77.5t136.5 33.5v-6q-29 -4 -46.5 -24.5t-17.5 -47.5t17.5 -43.5t47.5 -18.5q-11 -21 -38.5 -34.5t-57.5 -13.5zM532 256q0 -104 41.5 -163.5t111.5 -59.5q78 0 146 53v-6q-35 -45 -96 -68q-59 -22 -116 -22
q-103 0 -180 71t-77 191v157q0 84 -68 95v6q117 -5 171 -47q65 47 142 47v-6q-43 -4 -60 -55q-15 -49 -15 -193zM647 504v6q91 0 144 -53q52 -52 52 -117q0 -24 -5 -52h-251v6q67 0 96 25t29 87q0 40 -17 67t-48 31zM269 37q21 -2 41 12q21 13 28 22l29 37l2 -5
q-30 -51 -80 -82t-116 -31q-65 0 -103.5 34.5t-37.5 93.5q1 63 53 99.5t139 36.5h108v-6h-30q-51 0 -78.5 -29.5t-27.5 -79.5q0 -98 73 -102z" />
    <glyph glyph-name="ccedilla" unicode="&#xe7;" horiz-adv-x="553" 
d="M375 33q78 0 146 53v-6q-35 -45 -96 -68q-59 -22 -116 -22h-6l-46 -52q70 2 111.5 -25t41.5 -77q0 -51 -42 -84q-41 -33 -97 -33q-35 0 -68.5 15.5t-51.5 41.5l7 4q31 -28 71 -28q31 0 52 21t21 53q0 33 -32 56q-32 21 -69 21l82 88q-98 11 -169 80q-72 71 -72 181
q0 81 40 140q79 116 216 118v-6q-46 -4 -66 -58q-19 -51 -19 -190q0 -105 46 -164q47 -59 116 -59zM333 364q20 8 34 30t14 43q0 59 -43 66v7q89 0 135.5 -31.5t46.5 -81.5q0 -42 -27.5 -69t-72.5 -27q-34 0 -57.5 18.5t-29.5 44.5z" />
    <glyph glyph-name="egrave" unicode="&#xe8;" horiz-adv-x="563" 
d="M392 551l-2 -5q-147 55 -218 176l105 60q34 -133 115 -231zM299 -10q-103 0 -180 71t-77 191q0 118 74 187t171 71v-6q-43 -4 -60 -55q-15 -49 -15 -193q0 -104 41.5 -163.5t111.5 -59.5q78 0 146 53v-6q-35 -45 -96 -68q-59 -22 -116 -22zM518 288h-251v6q67 0 96 25
t29 87q0 40 -17 67t-48 31v6q91 0 144 -53q52 -52 52 -117q0 -24 -5 -52z" />
    <glyph glyph-name="eacute" unicode="&#xe9;" horiz-adv-x="563" 
d="M174 546l-2 5q81 98 115 231l105 -60q-71 -121 -218 -176zM299 -10q-103 0 -180 71t-77 191q0 118 74 187t171 71v-6q-43 -4 -60 -55q-15 -49 -15 -193q0 -104 41.5 -163.5t111.5 -59.5q78 0 146 53v-6q-35 -45 -96 -68q-59 -22 -116 -22zM518 288h-251v6q67 0 96 25
t29 87q0 40 -17 67t-48 31v6q91 0 144 -53q52 -52 52 -117q0 -24 -5 -52z" />
    <glyph glyph-name="ecircumflex" unicode="&#xea;" horiz-adv-x="563" 
d="M280 643q-74 -64 -190 -86l-3 6q118 85 175 204h36q59 -119 175 -204l-3 -6q-111 18 -190 86zM212 256q0 -104 41.5 -163.5t111.5 -59.5q78 0 146 53v-6q-35 -45 -96 -68q-59 -22 -116 -22q-103 0 -180 71t-77 191q0 118 74 187t171 71v-6q-43 -4 -60 -55
q-15 -49 -15 -193zM327 504v6q91 0 144 -53q52 -52 52 -117q0 -24 -5 -52h-251v6q67 0 96 25t29 87q0 40 -17 67t-48 31z" />
    <glyph glyph-name="edieresis" unicode="&#xeb;" horiz-adv-x="563" 
d="M65 660q0 34 24 55t61 21q38 0 63 -21t25 -55q0 -36 -24.5 -58.5t-62.5 -22.5t-62 22.5t-24 58.5zM328 660q0 34 24 55t62 21t61.5 -21t23.5 -55q0 -37 -23.5 -59t-61.5 -22t-62 22.5t-24 58.5zM299 -10q-103 0 -180 71t-77 191q0 118 74 187t171 71v-6q-43 -4 -60 -55
q-15 -49 -15 -193q0 -104 41.5 -163.5t111.5 -59.5q78 0 146 53v-6q-35 -45 -96 -68q-59 -22 -116 -22zM518 288h-251v6q67 0 96 25t29 87q0 40 -17 67t-48 31v6q91 0 144 -53q52 -52 52 -117q0 -24 -5 -52z" />
    <glyph glyph-name="igrave" unicode="&#xec;" horiz-adv-x="358" 
d="M289 551l-2 -5q-147 55 -218 176l105 60q34 -133 115 -231zM26 466v6q144 0 239 39v-454q0 -51 75 -51v-6h-315v6q75 0 75 51v356q0 28 -16.5 40.5t-57.5 12.5z" />
    <glyph glyph-name="iacute" unicode="&#xed;" horiz-adv-x="358" 
d="M71 546l-2 5q81 98 115 231l105 -60q-71 -121 -218 -176zM26 466v6q144 0 239 39v-454q0 -51 75 -51v-6h-315v6q75 0 75 51v356q0 28 -16.5 40.5t-57.5 12.5z" />
    <glyph glyph-name="icircumflex" unicode="&#xee;" horiz-adv-x="358" 
d="M159 767h36q59 -119 175 -204l-3 -6q-111 18 -190 86q-74 -64 -190 -86l-3 6q118 85 175 204zM265 511v-454q0 -51 75 -51v-6h-315v6q75 0 75 51v356q0 28 -16.5 40.5t-57.5 12.5v6q144 0 239 39z" />
    <glyph glyph-name="idieresis" unicode="&#xef;" horiz-adv-x="358" 
d="M-28 660q0 34 24 55t61 21q38 0 63 -21t25 -55q0 -36 -24.5 -58.5t-62.5 -22.5t-62 22.5t-24 58.5zM215 660q0 34 24 55t62 21t61.5 -21t23.5 -55q0 -37 -23.5 -59t-61.5 -22t-62 22.5t-24 58.5zM26 466v6q144 0 239 39v-454q0 -51 75 -51v-6h-315v6q75 0 75 51v356
q0 28 -16.5 40.5t-57.5 12.5z" />
    <glyph glyph-name="eth" unicode="&#xf0;" horiz-adv-x="626" 
d="M434 694l-79 -45q106 -70 166 -172.5t60 -213.5q0 -119 -64 -193q-63 -76 -177 -80v6q42 11 59.5 78.5t16.5 209.5q-1 88 -32 176.5t-85 155.5l-117 -67l-10 18l114 64q-63 72 -134 97l3 7q97 -23 182 -75l86 49zM43 249q0 111 71 185q72 75 167 75q32 0 58 -10v-6
q-4 1 -17 1q-70 0 -93 -85q-18 -66 -18 -182q0 -85 23 -152q24 -66 66 -79v-6q-127 6 -192 73t-65 186z" />
    <glyph glyph-name="ntilde" unicode="&#xf1;" horiz-adv-x="702" 
d="M198 579h-6q-28 25 -28 68q0 39 24.5 62t73.5 23q44 0 116 -28q74 -27 99 -27q42 0 42 32q0 13 -16 32h6q28 -25 28 -65t-24.5 -64t-73.5 -24q-43 0 -116 27q-72 28 -99 28q-42 0 -42 -32q0 -13 16 -32zM339 0h-315v6q75 0 75 51v355q0 28 -16.5 40.5t-57.5 12.5v6
q145 0 239 39v-453q0 -51 75 -51v-6zM690 0h-314v6q74 0 74 51v312q0 85 -79 85q-42 0 -76 -31v6q23 34 68.5 57.5t97.5 23.5q73 0 113.5 -35.5t40.5 -105.5v-312q0 -51 75 -51v-6z" />
    <glyph glyph-name="ograve" unicode="&#xf2;" horiz-adv-x="621" 
d="M421 551l-2 -5q-147 55 -218 176l105 60q34 -133 115 -231zM291 510v-6q-46 -5 -62 -57q-17 -54 -17 -195t17 -196.5t62 -59.5v-6q-94 0 -172 72q-77 72 -77 190t76 187q75 69 173 71zM331 504v6q60 0 115 -28q58 -29 95.5 -90.5t37.5 -139.5q0 -118 -77 -190
q-76 -72 -171 -72v6q45 5 61 60q17 57 17 196q0 99 -7.5 152t-23.5 75t-47 25z" />
    <glyph glyph-name="oacute" unicode="&#xf3;" horiz-adv-x="621" 
d="M203 546l-2 5q81 98 115 231l105 -60q-71 -121 -218 -176zM291 510v-6q-46 -5 -62 -57q-17 -54 -17 -195t17 -196.5t62 -59.5v-6q-94 0 -172 72q-77 72 -77 190t76 187q75 69 173 71zM331 504v6q60 0 115 -28q58 -29 95.5 -90.5t37.5 -139.5q0 -118 -77 -190
q-76 -72 -171 -72v6q45 5 61 60q17 57 17 196q0 99 -7.5 152t-23.5 75t-47 25z" />
    <glyph glyph-name="ocircumflex" unicode="&#xf4;" horiz-adv-x="621" 
d="M309 643q-74 -64 -190 -86l-3 6q118 85 175 204h36q59 -119 175 -204l-3 -6q-111 18 -190 86zM291 510v-6q-46 -5 -62 -57q-17 -54 -17 -195t17 -196.5t62 -59.5v-6q-94 0 -172 72q-77 72 -77 190t76 187q75 69 173 71zM331 504v6q60 0 115 -28q58 -29 95.5 -90.5
t37.5 -139.5q0 -118 -77 -190q-76 -72 -171 -72v6q45 5 61 60q17 57 17 196q0 99 -7.5 152t-23.5 75t-47 25z" />
    <glyph glyph-name="otilde" unicode="&#xf5;" horiz-adv-x="621" 
d="M158 579h-6q-28 25 -28 68q0 39 24.5 62t73.5 23q44 0 116 -28q74 -27 99 -27q42 0 42 32q0 13 -16 32h6q28 -25 28 -65t-24.5 -64t-73.5 -24q-43 0 -116 27q-72 28 -99 28q-42 0 -42 -32q0 -13 16 -32zM291 510v-6q-46 -5 -62 -57q-17 -54 -17 -195t17 -196.5t62 -59.5
v-6q-94 0 -172 72q-77 72 -77 190t76 187q75 69 173 71zM331 504v6q60 0 115 -28q58 -29 95.5 -90.5t37.5 -139.5q0 -118 -77 -190q-76 -72 -171 -72v6q45 5 61 60q17 57 17 196q0 99 -7.5 152t-23.5 75t-47 25z" />
    <glyph glyph-name="odieresis" unicode="&#xf6;" horiz-adv-x="621" 
d="M94 660q0 34 24 55t61 21q38 0 63 -21t25 -55q0 -36 -24.5 -58.5t-62.5 -22.5t-62 22.5t-24 58.5zM357 660q0 34 24 55t62 21t61.5 -21t23.5 -55q0 -37 -23.5 -59t-61.5 -22t-62 22.5t-24 58.5zM291 510v-6q-46 -5 -62 -57q-17 -54 -17 -195t17 -196.5t62 -59.5v-6
q-94 0 -172 72q-77 72 -77 190t76 187q75 69 173 71zM331 504v6q60 0 115 -28q58 -29 95.5 -90.5t37.5 -139.5q0 -118 -77 -190q-76 -72 -171 -72v6q45 5 61 60q17 57 17 196q0 99 -7.5 152t-23.5 75t-47 25z" />
    <glyph glyph-name="divide" unicode="&#xf7;" horiz-adv-x="570" 
d="M286 415q-22 0 -31 16.5t0 33t31 16.5q21 0 29.5 -16.5t0 -33t-29.5 -16.5zM500 277h-430v25h430v-25zM286 98q-22 0 -31 16.5t0 33t31 16.5q21 0 29.5 -16.5t0 -33t-29.5 -16.5z" />
    <glyph glyph-name="oslash" unicode="&#xf8;" horiz-adv-x="621" 
d="M548 510h31l-72 -74q72 -72 72 -184q0 -118 -77 -190q-76 -72 -171 -72v6q45 5 61 60q17 57 17 196q0 50 -2 82l-191 -197q6 -73 23.5 -105t51.5 -36v-6q-89 0 -159 60l-59 -60h-31l74 76q-74 74 -74 186q0 118 76 187q75 69 173 71v-6q-46 -5 -62 -57q-17 -54 -17 -195
q0 -19 2 -85l192 197q-6 75 -22.5 105.5t-52.5 34.5v6q89 0 160 -59z" />
    <glyph glyph-name="ugrave" unicode="&#xf9;" horiz-adv-x="683" 
d="M452 551l-2 -5q-147 55 -218 176l105 60q34 -133 115 -231zM253 510v-379q0 -85 69 -85q39 0 69 31v-6q-20 -37 -60 -59t-95 -22q-148 0 -148 141v281q0 28 -16.5 40.5t-57.5 12.5v6q144 0 239 39zM586 510v-443q0 -41 27 -41q24 0 48 45h6q-12 -39 -48 -60t-88 -21
q-51 0 -80.5 26.5t-29.5 71.5v324q0 28 -16 40.5t-55 12.5v6q124 0 236 39z" />
    <glyph glyph-name="uacute" unicode="&#xfa;" horiz-adv-x="683" 
d="M234 546l-2 5q81 98 115 231l105 -60q-71 -121 -218 -176zM253 510v-379q0 -85 69 -85q39 0 69 31v-6q-20 -37 -60 -59t-95 -22q-148 0 -148 141v281q0 28 -16.5 40.5t-57.5 12.5v6q144 0 239 39zM586 510v-443q0 -41 27 -41q24 0 48 45h6q-12 -39 -48 -60t-88 -21
q-51 0 -80.5 26.5t-29.5 71.5v324q0 28 -16 40.5t-55 12.5v6q124 0 236 39z" />
    <glyph glyph-name="ucircumflex" unicode="&#xfb;" horiz-adv-x="683" 
d="M340 643q-74 -64 -190 -86l-3 6q118 85 175 204h36q59 -119 175 -204l-3 -6q-111 18 -190 86zM322 46q39 0 69 31v-6q-20 -37 -60 -59t-95 -22q-148 0 -148 141v281q0 28 -16.5 40.5t-57.5 12.5v6q144 0 239 39v-379q0 -85 69 -85zM661 71h6q-12 -39 -48 -60t-88 -21
q-51 0 -80.5 26.5t-29.5 71.5v324q0 28 -16 40.5t-55 12.5v6q124 0 236 39v-443q0 -41 27 -41q24 0 48 45z" />
    <glyph glyph-name="udieresis" unicode="&#xfc;" horiz-adv-x="683" 
d="M125 660q0 34 24 55t61 21q38 0 63 -21t25 -55q0 -36 -24.5 -58.5t-62.5 -22.5t-62 22.5t-24 58.5zM388 660q0 34 24 55t62 21t61.5 -21t23.5 -55q0 -37 -23.5 -59t-61.5 -22t-62 22.5t-24 58.5zM253 510v-379q0 -85 69 -85q39 0 69 31v-6q-20 -37 -60 -59t-95 -22
q-148 0 -148 141v281q0 28 -16.5 40.5t-57.5 12.5v6q144 0 239 39zM586 510v-443q0 -41 27 -41q24 0 48 45h6q-12 -39 -48 -60t-88 -21q-51 0 -80.5 26.5t-29.5 71.5v324q0 28 -16 40.5t-55 12.5v6q124 0 236 39z" />
    <glyph glyph-name="yacute" unicode="&#xfd;" horiz-adv-x="571" 
d="M178 546l-2 5q81 98 115 231l105 -60q-71 -121 -218 -176zM288 0h-6l-232 459q-17 35 -55 35v6h280v-6q-26 0 -35.5 -16.5t3.5 -42.5l131 -273zM526 447l-104 -196l-6 9q28 52 28 129q0 47 -26.5 76t-75.5 29v6h249v-6q-24 0 -37 -9.5t-28 -37.5zM94 -250
q-41 0 -64.5 24.5t-23.5 64.5q0 32 23.5 57.5t64.5 36.5q-4 -11 -4 -25q-1 -30 15.5 -48.5t43.5 -18.5q24 0 46.5 23t54.5 78h7l-35 -66q-22 -42 -33 -56q-20 -33 -34 -43q-32 -27 -61 -27z" />
    <glyph glyph-name="thorn" unicode="&#xfe;" horiz-adv-x="670" 
d="M78 -250v887q0 28 -16.5 40.5t-57.5 12.5v6q126 0 239 39v-887q0 -28 16.5 -40.5t57.5 -12.5v-6q-127 0 -239 -39zM419 -10q-41 0 -85 24q-41 25 -61 57v6q47 -35 84 -35q97 0 97 213q0 53 -5.5 91t-14 59.5t-21.5 34t-26 16t-30 3.5q-50 0 -84 -37v8q20 33 61 56
q44 24 85 24q39 0 73.5 -12.5t65 -40t48.5 -79.5t18 -123q0 -148 -67 -212q-59 -53 -138 -53z" />
    <glyph glyph-name="ydieresis" unicode="&#xff;" horiz-adv-x="571" 
d="M69 660q0 34 24 55t61 21q38 0 63 -21t25 -55q0 -36 -24.5 -58.5t-62.5 -22.5t-62 22.5t-24 58.5zM332 660q0 34 24 55t62 21t61.5 -21t23.5 -55q0 -37 -23.5 -59t-61.5 -22t-62 22.5t-24 58.5zM288 0h-6l-232 459q-17 35 -55 35v6h280v-6q-26 0 -35.5 -16.5t3.5 -42.5
l131 -273zM526 447l-104 -196l-6 9q28 52 28 129q0 47 -26.5 76t-75.5 29v6h249v-6q-24 0 -37 -9.5t-28 -37.5zM94 -250q-41 0 -64.5 24.5t-23.5 64.5q0 32 23.5 57.5t64.5 36.5q-4 -11 -4 -25q-1 -30 15.5 -48.5t43.5 -18.5q24 0 46.5 23t54.5 78h7l-35 -66
q-22 -42 -33 -56q-20 -33 -34 -43q-32 -27 -61 -27z" />
    <glyph glyph-name="Amacron" unicode="&#x100;" horiz-adv-x="726" 
d="M204 845h317v-35h-317v35zM368 690l296 -632q13 -29 33 -40.5t57 -11.5v-6h-361v6q40 0 59.5 23.5t2.5 58.5l-189 398l92 204h10zM332 206l3 -6l-185 -6q-14 -47 -14 -79q0 -51 39 -80q41 -29 86 -29v-6h-288v4q64 0 116 111l137 288l3 -9q-55 -119 -74 -182z" />
    <glyph glyph-name="amacron" unicode="&#x101;" horiz-adv-x="615" 
d="M143 645v35h317v-35h-317zM159 322q-39 0 -63 22.5t-24 56.5q0 45 45.5 75t136.5 34v-6q-29 -4 -46.5 -24.5t-17.5 -48.5q0 -27 17.5 -43t47.5 -18q-11 -21 -38.5 -34.5t-57.5 -13.5zM478 -10q-62 0 -89 26t-27 87v306q0 84 -68 95v6q122 -4 177 -52t55 -148v-243
q0 -41 28 -41q24 0 48 45h6q-12 -39 -47 -60t-83 -21zM173 -10q-65 0 -103.5 34.5t-37.5 93.5q1 63 53 99.5t139 36.5h108v-6h-30q-51 0 -78.5 -29.5t-27.5 -79.5q0 -97 63 -97q35 0 73 35v-6q-70 -81 -159 -81z" />
    <glyph glyph-name="Abreve" unicode="&#x102;" horiz-adv-x="726" 
d="M211 904h6q24 -51 85 -70.5t122 0t85 70.5h6q-8 -76 -49.5 -116.5t-102.5 -40.5t-102.5 40.5t-49.5 116.5zM368 690l296 -632q13 -29 33 -40.5t57 -11.5v-6h-361v6q40 0 59.5 23.5t2.5 58.5l-189 398l92 204h10zM332 206l3 -6l-185 -6q-14 -47 -14 -79q0 -51 39 -80
q41 -29 86 -29v-6h-288v4q64 0 116 111l137 288l3 -9q-55 -119 -74 -182z" />
    <glyph glyph-name="abreve" unicode="&#x103;" horiz-adv-x="615" 
d="M150 768h6q24 -51 85 -70.5t122 0t85 70.5h6q-8 -81 -50 -127.5t-102 -46.5t-102 46.5t-50 127.5zM159 322q-39 0 -63 22.5t-24 56.5q0 45 45.5 75t136.5 34v-6q-29 -4 -46.5 -24.5t-17.5 -48.5q0 -27 17.5 -43t47.5 -18q-11 -21 -38.5 -34.5t-57.5 -13.5zM478 -10
q-62 0 -89 26t-27 87v306q0 84 -68 95v6q122 -4 177 -52t55 -148v-243q0 -41 28 -41q24 0 48 45h6q-12 -39 -47 -60t-83 -21zM173 -10q-65 0 -103.5 34.5t-37.5 93.5q1 63 53 99.5t139 36.5h108v-6h-30q-51 0 -78.5 -29.5t-27.5 -79.5q0 -97 63 -97q35 0 73 35v-6
q-70 -81 -159 -81z" />
    <glyph glyph-name="Aogonek" unicode="&#x104;" horiz-adv-x="726" 
d="M368 690l296 -632q13 -29 33 -40.5t57 -11.5v-6h-277q-39 0 -65 -35q-26 -37 -26 -70q0 -46 30 -61t50 11q0 -43 -28 -69t-71 -26q-42 0 -71 27t-29 69q0 51 41 92t109 62q19 6 32.5 21t13.5 36q0 10 -11 37q-2 5 -61 130q-7 16 -19 39.5t-15 30.5l-39 82l-52 110l92 204
h10zM136 115q0 -51 39 -80q41 -29 86 -29v-6h-288v4q64 0 116 111l137 288l3 -9q-55 -119 -74 -182l177 -6l3 -6l-185 -6q-14 -47 -14 -79z" />
    <glyph glyph-name="aogonek" unicode="&#x105;" horiz-adv-x="615" 
d="M159 322q-39 0 -63 22.5t-24 56.5q0 45 45.5 75t136.5 34v-6q-29 -4 -46.5 -24.5t-17.5 -48.5q0 -27 17.5 -43t47.5 -18q-11 -21 -38.5 -34.5t-57.5 -13.5zM602 71h6q-12 -41 -50 -62q-87 -51 -87 -126q0 -39 30 -53.5t50 11.5q0 -43 -28 -69t-71 -26q-42 0 -71 26.5
t-29 69.5t36.5 82.5t100.5 65.5h-11q-62 0 -89 26t-27 87v306q0 84 -68 95v6q122 -4 177 -52t55 -148v-243q0 -41 28 -41q24 0 48 45zM32 118q1 63 53 99.5t139 36.5h108v-6h-30q-51 0 -78.5 -29.5t-27.5 -79.5q0 -97 63 -97q35 0 73 35v-6q-70 -81 -159 -81
q-65 0 -103.5 34.5t-37.5 93.5z" />
    <glyph glyph-name="Cacute" unicode="&#x106;" horiz-adv-x="703" 
d="M409 929l86 -85q-98 -98 -256 -114v5q101 72 170 194zM460 30q118 0 191 89l4 -8q-38 -59 -101 -90t-140 -31q-131 0 -244 86q-56 43 -89 112t-33 151q0 88 32 158.5t85 110.5q104 77 225 82v-6q-146 -32 -146 -338q0 -316 216 -316zM621 644l30 46h8v-243h-8
q-57 195 -211 237v6q118 -4 181 -46z" />
    <glyph glyph-name="cacute" unicode="&#x107;" horiz-adv-x="553" 
d="M200 546l-2 5q81 98 115 231l105 -60q-71 -121 -218 -176zM298 510v-6q-46 -4 -66 -58q-19 -51 -19 -190q0 -105 46 -164q47 -59 116 -59q78 0 146 53v-6q-35 -45 -96 -68q-59 -22 -116 -22q-103 0 -186 71q-81 72 -81 191q0 81 40 140q79 116 216 118zM338 503v7
q89 0 135.5 -31.5t46.5 -81.5q0 -42 -27.5 -69t-72.5 -27q-34 0 -57.5 18.5t-29.5 44.5q20 8 34 30t14 43q0 59 -43 66z" />
    <glyph glyph-name="Cdotaccent" unicode="&#x10a;" horiz-adv-x="703" 
d="M283 829q0 34 24 55t61 21q38 0 63 -21t25 -55q0 -36 -24.5 -58.5t-62.5 -22.5t-62 22.5t-24 58.5zM460 30q118 0 191 89l4 -8q-38 -59 -101 -90t-140 -31q-131 0 -244 86q-56 43 -89 112t-33 151q0 88 32 158.5t85 110.5q104 77 225 82v-6q-146 -32 -146 -338
q0 -316 216 -316zM621 644l30 46h8v-243h-8q-57 195 -211 237v6q118 -4 181 -46z" />
    <glyph glyph-name="cdotaccent" unicode="&#x10b;" horiz-adv-x="553" 
d="M206 660q0 39 28.5 63t73.5 24t73.5 -24t28.5 -63q0 -40 -28.5 -64t-73.5 -24t-73.5 24t-28.5 64zM298 510v-6q-46 -4 -66 -58q-19 -51 -19 -190q0 -105 46 -164q47 -59 116 -59q78 0 146 53v-6q-35 -45 -96 -68q-59 -22 -116 -22q-103 0 -186 71q-81 72 -81 191
q0 81 40 140q79 116 216 118zM338 503v7q89 0 135.5 -31.5t46.5 -81.5q0 -42 -27.5 -69t-72.5 -27q-34 0 -57.5 18.5t-29.5 44.5q20 8 34 30t14 43q0 59 -43 66z" />
    <glyph glyph-name="Ccaron" unicode="&#x10c;" horiz-adv-x="703" 
d="M390 736h-36q-38 95 -155 181l3 6q100 -21 170 -84q70 63 170 84l3 -6q-114 -83 -155 -181zM460 30q118 0 191 89l4 -8q-38 -59 -101 -90t-140 -31q-131 0 -244 86q-56 43 -89 112t-33 151q0 88 32 158.5t85 110.5q104 77 225 82v-6q-146 -32 -146 -338q0 -316 216 -316z
M621 644l30 46h8v-243h-8q-57 195 -211 237v6q118 -4 181 -46z" />
    <glyph glyph-name="ccaron" unicode="&#x10d;" horiz-adv-x="553" 
d="M326 564h-36q-57 119 -175 204l3 6q116 -22 190 -86q79 68 190 86l3 -6q-116 -85 -175 -204zM375 33q78 0 146 53v-6q-35 -45 -96 -68q-59 -22 -116 -22q-103 0 -186 71q-81 72 -81 191q0 81 40 140q79 116 216 118v-6q-46 -4 -66 -58q-19 -51 -19 -190q0 -105 46 -164
q47 -59 116 -59zM333 364q20 8 34 30t14 43q0 59 -43 66v7q89 0 135.5 -31.5t46.5 -81.5q0 -42 -27.5 -69t-72.5 -27q-34 0 -57.5 18.5t-29.5 44.5z" />
    <glyph glyph-name="Dcaron" unicode="&#x10e;" horiz-adv-x="783" 
d="M396 736h-36q-38 95 -155 181l3 6q100 -21 170 -84q70 63 170 84l3 -6q-114 -83 -155 -181zM43 674v6h245v-680h-245v6q75 0 75 51v565q0 52 -75 52zM338 674v6q190 0 292.5 -86.5t102.5 -250.5q0 -167 -102.5 -255t-292.5 -88v6q63 4 106.5 35t71 106.5t27.5 195.5
q0 91 -15 155.5t-43.5 101t-64 54t-82.5 20.5z" />
    <glyph glyph-name="dcaron" unicode="&#x10f;" horiz-adv-x="703" 
d="M638 511h-6q33 103 33 274h101q-7 -173 -128 -274zM592 735v-668q0 -41 27 -41q24 0 48 45h6q-12 -39 -47 -60t-83 -21q-62 0 -89 26t-27 87v534q0 28 -16.5 40.5t-57.5 12.5v6q127 0 239 39zM252 510q42 0 84 -24q41 -23 61 -56v-8q-34 37 -83 37q-42 0 -67 -34
q-31 -39 -31 -170q0 -213 98 -213q36 0 83 35v-6q-20 -33 -61 -57q-42 -24 -84 -24q-39 0 -73 12.5t-65 41t-49.5 82.5t-18.5 129q0 71 18 123t49 79.5t65.5 40t73.5 12.5z" />
    <glyph glyph-name="Dcroat" unicode="&#x110;" horiz-adv-x="783" 
d="M438 368v-25h-150v-343h-245v6q75 0 75 51v286h-75v25h75v254q0 52 -75 52v6h245v-312h150zM338 674v6q190 0 292.5 -86.5t102.5 -250.5q0 -167 -102.5 -255t-292.5 -88v6q63 4 106.5 35t71 106.5t27.5 195.5q0 91 -15 155.5t-43.5 101t-64 54t-82.5 20.5z" />
    <glyph glyph-name="dslash" unicode="&#x111;" horiz-adv-x="689" 
d="M667 71h6q-12 -39 -47 -60t-83 -21q-62 0 -89 26t-27 87v465h-98v15h98v54q0 28 -16.5 40.5t-57.5 12.5v6q127 0 239 39v-152h75v-15h-75v-501q0 -41 27 -41q24 0 48 45zM252 510q42 0 84 -24q41 -23 61 -56v-8q-34 37 -83 37q-42 0 -67 -34q-31 -39 -31 -170
q0 -213 98 -213q36 0 83 35v-6q-20 -33 -61 -57q-42 -24 -84 -24q-39 0 -73 12.5t-65 41t-49.5 82.5t-18.5 129q0 71 18 123t49 79.5t65.5 40t73.5 12.5z" />
    <glyph glyph-name="Emacron" unicode="&#x112;" horiz-adv-x="673" 
d="M174 810v35h317v-35h-317zM288 680v-680h-245v6q75 0 75 51v565q0 52 -75 52v6h245zM338 674v6h264v-185h-8q-32 96 -87 133q-55 38 -169 46zM393 344l-55 5v6l55 5q86 8 132 86h8v-186h-8q-43 76 -132 84zM623 0h-285v6q113 7 176 46q60 38 101 133h8v-185z" />
    <glyph glyph-name="emacron" unicode="&#x113;" horiz-adv-x="563" 
d="M123 645v35h317v-35h-317zM299 -10q-103 0 -180 71t-77 191q0 118 74 187t171 71v-6q-43 -4 -60 -55q-15 -49 -15 -193q0 -104 41.5 -163.5t111.5 -59.5q78 0 146 53v-6q-35 -45 -96 -68q-59 -22 -116 -22zM518 288h-251v6q67 0 96 25t29 87q0 40 -17 67t-48 31v6
q91 0 144 -53q52 -52 52 -117q0 -24 -5 -52z" />
    <glyph glyph-name="Edotaccent" unicode="&#x116;" horiz-adv-x="673" 
d="M249 829q0 34 24 55t61 21q38 0 63 -21t25 -55q0 -36 -24.5 -58.5t-62.5 -22.5t-62 22.5t-24 58.5zM288 680v-680h-245v6q75 0 75 51v565q0 52 -75 52v6h245zM338 674v6h264v-185h-8q-32 96 -87 133q-55 38 -169 46zM393 344l-55 5v6l55 5q86 8 132 86h8v-186h-8
q-43 76 -132 84zM623 0h-285v6q113 7 176 46q60 38 101 133h8v-185z" />
    <glyph glyph-name="edotaccent" unicode="&#x117;" horiz-adv-x="563" 
d="M180 660q0 39 28.5 63t73.5 24t73.5 -24t28.5 -63q0 -40 -28.5 -64t-73.5 -24t-73.5 24t-28.5 64zM299 -10q-103 0 -180 71t-77 191q0 118 74 187t171 71v-6q-43 -4 -60 -55q-15 -49 -15 -193q0 -104 41.5 -163.5t111.5 -59.5q78 0 146 53v-6q-35 -45 -96 -68
q-59 -22 -116 -22zM518 288h-251v6q67 0 96 25t29 87q0 40 -17 67t-48 31v6q91 0 144 -53q52 -52 52 -117q0 -24 -5 -52z" />
    <glyph glyph-name="Eogonek" unicode="&#x118;" horiz-adv-x="673" 
d="M43 674v6h245v-680h-245v6q75 0 75 51v565q0 52 -75 52zM602 495h-8q-32 96 -87 133q-55 38 -169 46v6h264v-185zM533 260h-8q-43 76 -132 84l-55 5v6l55 5q86 8 132 86h8v-186zM615 185h8v-185q-86 -44 -86 -113q0 -39 30 -53.5t50 11.5q0 -43 -28 -69t-71 -26
q-42 0 -71 26.5t-29 69.5q0 47 47.5 88.5t123.5 65.5h-251v6q113 7 176 46q60 38 101 133z" />
    <glyph glyph-name="eogonek" unicode="&#x119;" horiz-adv-x="563" 
d="M212 256q0 -104 41.5 -163.5t111.5 -59.5q78 0 146 53v-6q-36 -45 -94 -67q-43 -21 -65 -55t-22 -71q0 -39 30 -53.5t50 11.5q0 -43 -28 -69t-71 -26q-42 0 -71 26.5t-29 69.5t36.5 82.5t99.5 65.5q-20 -4 -48 -4q-103 0 -180 71t-77 191q0 118 74 187t171 71v-6
q-43 -4 -60 -55q-15 -49 -15 -193zM327 504v6q91 0 144 -53q52 -52 52 -117q0 -24 -5 -52h-251v6q67 0 96 25t29 87q0 40 -17 67t-48 31z" />
    <glyph glyph-name="Ecaron" unicode="&#x11a;" horiz-adv-x="673" 
d="M508 923l3 -6q-114 -83 -155 -181h-36q-38 95 -155 181l3 6q100 -21 170 -84q70 63 170 84zM43 674v6h245v-680h-245v6q75 0 75 51v565q0 52 -75 52zM602 680v-185h-8q-32 96 -87 133q-55 38 -169 46v6h264zM338 355l55 5q86 8 132 86h8v-186h-8q-43 76 -132 84l-55 5v6z
M615 185h8v-185h-285v6q113 7 176 46q60 38 101 133z" />
    <glyph glyph-name="ecaron" unicode="&#x11b;" horiz-adv-x="563" 
d="M300 564h-36q-57 119 -175 204l3 6q116 -22 190 -86q79 68 190 86l3 -6q-116 -85 -175 -204zM212 256q0 -104 41.5 -163.5t111.5 -59.5q78 0 146 53v-6q-35 -45 -96 -68q-59 -22 -116 -22q-103 0 -180 71t-77 191q0 118 74 187t171 71v-6q-43 -4 -60 -55
q-15 -49 -15 -193zM327 504v6q91 0 144 -53q52 -52 52 -117q0 -24 -5 -52h-251v6q67 0 96 25t29 87q0 40 -17 67t-48 31z" />
    <glyph glyph-name="Gbreve" unicode="&#x11e;" horiz-adv-x="773" 
d="M520 904h6q-8 -76 -49.5 -116.5t-102.5 -40.5t-102.5 40.5t-49.5 116.5h6q24 -51 85 -70.5t122 0t85 70.5zM48 340q0 79 29.5 146.5t79.5 110.5q99 87 209 93v-6q-39 -4 -65 -34q-57 -67 -57 -304q1 -184 32 -264t90 -86v-6q-56 2 -110.5 25t-102 64.5t-76.5 109.5
t-29 151zM659 447h-8q-19 89 -84 154t-152 83v6q139 -8 205 -47l31 47h8v-243zM448 281v6h306v-6q-74 0 -74 -59v-232h-8l-36 60q-75 -54 -220 -60v6q107 8 107 122v104q0 32 -16.5 45.5t-58.5 13.5z" />
    <glyph glyph-name="gbreve" unicode="&#x11f;" horiz-adv-x="587" 
d="M142 768h6q24 -51 85 -70.5t122 0t85 70.5h6q-8 -81 -50 -127.5t-102 -46.5t-102 46.5t-50 127.5zM372 525l-5 3q14 44 50 83q34 37 82 37q40 0 62.5 -20t22.5 -56q0 -34 -24.5 -56t-56.5 -22q0 31 -15 49t-39 18q-21 0 -43 -10.5t-34 -25.5zM271 158v-6q-56 0 -104 16
q-52 19 -86 61t-34 100q0 89 67 134q68 45 157 47v-6q-63 -6 -63 -172q0 -90 15 -130.5t48 -43.5zM313 152v6q37 3 53 43.5t16 130.5q0 87 -16.5 128t-52.5 44v6q43 -1 81.5 -11.5t72.5 -31t54.5 -56t20.5 -82.5q0 -89 -69 -133q-70 -44 -160 -44zM313 -250v6q64 8 98 37
t34 65q0 65 -138 78q-39 2 -58.5 3.5t-55.5 6t-55.5 12t-41.5 19.5t-31.5 31t-9.5 44q0 60 67 102l3 -5q-9 -6 -9 -19q0 -16 11 -27t38 -16.5t47.5 -8t65.5 -5t66 -4.5q48 -3 84 -10t71 -21.5t54 -41.5t19 -66q0 -79 -67 -126t-192 -54zM273 -244v-6q-59 2 -105 9
q-49 9 -81 30.5t-32 50.5q0 77 152 77q-16 -7 -29.5 -27.5t-13.5 -43.5q0 -32 31.5 -57.5t77.5 -32.5z" />
    <glyph glyph-name="Gdotaccent" unicode="&#x120;" horiz-adv-x="773" 
d="M463 829q0 -36 -24.5 -58.5t-62.5 -22.5t-62 22.5t-24 58.5q0 34 24 55t61 21q38 0 63 -21t25 -55zM48 340q0 79 29.5 146.5t79.5 110.5q99 87 209 93v-6q-39 -4 -65 -34q-57 -67 -57 -304q1 -184 32 -264t90 -86v-6q-56 2 -110.5 25t-102 64.5t-76.5 109.5t-29 151z
M659 447h-8q-19 89 -84 154t-152 83v6q139 -8 205 -47l31 47h8v-243zM448 281v6h306v-6q-74 0 -74 -59v-232h-8l-36 60q-75 -54 -220 -60v6q107 8 107 122v104q0 32 -16.5 45.5t-58.5 13.5z" />
    <glyph glyph-name="gdotaccent" unicode="&#x121;" horiz-adv-x="587" 
d="M192 660q0 39 28.5 63t73.5 24t73.5 -24t28.5 -63q0 -40 -28.5 -64t-73.5 -24t-73.5 24t-28.5 64zM372 525l-5 3q14 44 50 83q34 37 82 37q40 0 62.5 -20t22.5 -56q0 -34 -24.5 -56t-56.5 -22q0 31 -15 49t-39 18q-21 0 -43 -10.5t-34 -25.5zM271 158v-6q-56 0 -104 16
q-52 19 -86 61t-34 100q0 89 67 134q68 45 157 47v-6q-63 -6 -63 -172q0 -90 15 -130.5t48 -43.5zM313 152v6q37 3 53 43.5t16 130.5q0 87 -16.5 128t-52.5 44v6q43 -1 81.5 -11.5t72.5 -31t54.5 -56t20.5 -82.5q0 -89 -69 -133q-70 -44 -160 -44zM313 -250v6q64 8 98 37
t34 65q0 65 -138 78q-39 2 -58.5 3.5t-55.5 6t-55.5 12t-41.5 19.5t-31.5 31t-9.5 44q0 60 67 102l3 -5q-9 -6 -9 -19q0 -16 11 -27t38 -16.5t47.5 -8t65.5 -5t66 -4.5q48 -3 84 -10t71 -21.5t54 -41.5t19 -66q0 -79 -67 -126t-192 -54zM273 -244v-6q-59 2 -105 9
q-49 9 -81 30.5t-32 50.5q0 77 152 77q-16 -7 -29.5 -27.5t-13.5 -43.5q0 -32 31.5 -57.5t77.5 -32.5z" />
    <glyph glyph-name="Gcommaaccent" unicode="&#x122;" horiz-adv-x="773" 
d="M366 -4v-6q-56 2 -110.5 25t-102 64.5t-76.5 109.5t-29 151q0 79 29.5 146.5t79.5 110.5q99 87 209 93v-6q-39 -4 -65 -34q-57 -67 -57 -304q1 -184 32 -264t90 -86zM659 447h-8q-19 89 -84 154t-152 83v6q139 -8 205 -47l31 47h8v-243zM448 281v6h306v-6q-74 0 -74 -59
v-232h-8l-36 60q-75 -54 -220 -60v6q107 8 107 122v104q0 32 -16.5 45.5t-58.5 13.5zM377 -44q42 0 71 -26.5t29 -69.5q0 -56 -58 -107q-59 -51 -147 -63l-1 3q87 48 87 126q0 39 -30 53.5t-50 -11.5q0 43 28 69t71 26z" />
    <glyph glyph-name="gcommaaccent" unicode="&#x123;" horiz-adv-x="587" 
d="M191 672q0 54 54 103q53 49 128 61l1 -3q-41 -27 -58.5 -55t-17.5 -65q0 -26 13.5 -43t31.5 -17q22 0 37 18q0 -41 -27 -66t-69 -25t-67.5 24t-25.5 68zM372 525l-5 3q14 44 50 83q34 37 82 37q40 0 62.5 -20t22.5 -56q0 -34 -24.5 -56t-56.5 -22q0 31 -15 49t-39 18
q-21 0 -43 -10.5t-34 -25.5zM271 158v-6q-56 0 -104 16q-52 19 -86 61t-34 100q0 89 67 134q68 45 157 47v-6q-63 -6 -63 -172q0 -90 15 -130.5t48 -43.5zM313 152v6q37 3 53 43.5t16 130.5q0 87 -16.5 128t-52.5 44v6q43 -1 81.5 -11.5t72.5 -31t54.5 -56t20.5 -82.5
q0 -89 -69 -133q-70 -44 -160 -44zM313 -250v6q64 8 98 37t34 65q0 65 -138 78q-39 2 -58.5 3.5t-55.5 6t-55.5 12t-41.5 19.5t-31.5 31t-9.5 44q0 60 67 102l3 -5q-9 -6 -9 -19q0 -16 11 -27t38 -16.5t47.5 -8t65.5 -5t66 -4.5q48 -3 84 -10t71 -21.5t54 -41.5t19 -66
q0 -79 -67 -126t-192 -54zM273 -244v-6q-59 2 -105 9q-49 9 -81 30.5t-32 50.5q0 77 152 77q-16 -7 -29.5 -27.5t-13.5 -43.5q0 -32 31.5 -57.5t77.5 -32.5z" />
    <glyph glyph-name="Hbar" unicode="&#x126;" horiz-adv-x="837" 
d="M799 510v-25h-80v-428q0 -51 75 -51v-6h-320v6q75 0 75 51v428h-261v-136l211 -5v-6l-211 -5v-276q0 -51 74 -51v-6h-319v6q75 0 75 51v428h-80v25h80v113q0 51 -75 51v6h319v-6q-74 0 -74 -51v-113h261v113q0 53 -75 51v6h320v-6q-75 0 -75 -51v-113h80z" />
    <glyph glyph-name="hbar" unicode="&#x127;" horiz-adv-x="695" 
d="M258 577v-520q0 -51 75 -51v-6h-315v6q75 0 75 51v520h-73v15h73v45q0 28 -16.5 40.5t-57.5 12.5v6q145 0 239 39v-143h100v-15h-100zM608 369v-312q0 -51 75 -51v-6h-314v6q74 0 74 51v312q0 85 -79 85q-42 0 -76 -31v6q23 34 68.5 57.5t97.5 23.5q73 0 113.5 -35.5
t40.5 -105.5z" />
    <glyph glyph-name="Itilde" unicode="&#x128;" horiz-adv-x="406" 
d="M50 744h-6q-28 24 -28 68q0 39 24.5 62t73.5 23q44 0 116 -28q74 -27 99 -27q42 0 42 32q0 13 -16 32h6q28 -24 28 -65q0 -40 -24.5 -64t-73.5 -24q-43 0 -116 27q-72 28 -99 28q-42 0 -42 -32q0 -13 16 -32zM363 0h-320v6q75 0 75 51v566q0 51 -75 51v6h320v-6
q-75 0 -75 -51v-566q0 -51 75 -51v-6z" />
    <glyph glyph-name="itilde" unicode="&#x129;" horiz-adv-x="358" 
d="M42 579h-6q-25 25 -25 68q0 39 22 62t66 23q39 0 104 -28q66 -27 90 -27q37 0 37 32q0 13 -14 32h5q26 -24 26 -65q0 -40 -22.5 -64t-66.5 -24q-38 0 -104 27q-65 28 -89 28q-38 0 -38 -32q0 -13 15 -32zM26 466v6q144 0 239 39v-454q0 -51 75 -51v-6h-315v6q75 0 75 51
v356q0 28 -16.5 40.5t-57.5 12.5z" />
    <glyph glyph-name="Imacron" unicode="&#x12a;" horiz-adv-x="406" 
d="M44 810v35h317v-35h-317zM363 0h-320v6q75 0 75 51v566q0 51 -75 51v6h320v-6q-75 0 -75 -51v-566q0 -51 75 -51v-6z" />
    <glyph glyph-name="imacron" unicode="&#x12b;" horiz-adv-x="358" 
d="M36 645v35h285v-35h-285zM26 466v6q144 0 239 39v-454q0 -51 75 -51v-6h-315v6q75 0 75 51v356q0 28 -16.5 40.5t-57.5 12.5z" />
    <glyph glyph-name="Iogonek" unicode="&#x12e;" horiz-adv-x="406" 
d="M363 680v-6q-75 0 -75 -51v-566q0 -51 75 -51v-6h-126q-36 -54 -36 -109q0 -29 15.5 -45.5t37.5 -16.5q19 0 32 16q0 -43 -28 -69t-71 -26q-42 0 -71 26.5t-29 69.5q0 42 34.5 83.5t89.5 70.5h-168v6q75 0 75 51v566q0 51 -75 51v6h320z" />
    <glyph glyph-name="iogonek" unicode="&#x12f;" horiz-adv-x="358" 
d="M77 660q0 39 28.5 63t73.5 24t73.5 -24t28.5 -63q0 -40 -28.5 -64t-73.5 -24t-73.5 24t-28.5 64zM340 0h-114q-36 -33 -36 -96q0 -34 16.5 -54.5t38.5 -20.5q19 0 32 16q0 -43 -28 -69t-71 -26q-42 0 -71 26.5t-29 69.5q0 86 117 154h-170v6q75 0 75 51v356
q0 28 -16.5 40.5t-57.5 12.5v6q144 0 239 39v-454q0 -51 75 -51v-6z" />
    <glyph glyph-name="Idot" unicode="&#x130;" horiz-adv-x="406" 
d="M119 829q0 34 24 55t61 21q38 0 63 -21t25 -55q0 -36 -24.5 -58.5t-62.5 -22.5t-62 22.5t-24 58.5zM363 0h-320v6q75 0 75 51v566q0 51 -75 51v6h320v-6q-75 0 -75 -51v-566q0 -51 75 -51v-6z" />
    <glyph glyph-name="dotlessi" unicode="&#x131;" horiz-adv-x="358" 
d="M26 466v6q144 0 239 39v-454q0 -51 75 -51v-6h-315v6q75 0 75 51v356q0 28 -16.5 40.5t-57.5 12.5z" />
    <glyph glyph-name="IJ" unicode="&#x132;" horiz-adv-x="775" 
d="M348 330h-320v6q75 0 75 51v236q0 49 -75 49v8h320v-8q-75 0 -75 -49v-236q0 -51 75 -51v-6zM428 -10v8q41 11 58 65q8 21 12 60q4 35 4 63q1 16 1 71v365q0 50 -75 50v8h320v-8q-75 0 -75 -50v-365q0 -79 -24 -133q-44 -104 -221 -134zM391 -2v-8q-61 3 -108 44
q-45 40 -45 109q0 47 31.5 76.5t77.5 29.5q35 0 59.5 -22.5t24.5 -52.5q-41 0 -68 -23t-27 -60q0 -32 15.5 -58t39.5 -35z" />
    <glyph glyph-name="ij" unicode="&#x133;" horiz-adv-x="695" 
d="M77 660q0 39 28.5 63t73.5 24t73.5 -24t28.5 -63q0 -40 -28.5 -64t-73.5 -24t-73.5 24t-28.5 64zM424 660q0 39 28.5 63t73.5 24t73.5 -24t28.5 -63q0 -40 -28.5 -64t-73.5 -24t-73.5 24t-28.5 64zM26 466v6q144 0 239 39v-454q0 -51 75 -51v-6h-315v6q75 0 75 51v356
q0 28 -16.5 40.5t-57.5 12.5zM374 466v6q144 0 239 39v-541q0 -111 -67.5 -165.5t-188.5 -54.5v6q43 0 67 25.5t24 69.5v562q0 28 -16.5 40.5t-57.5 12.5z" />
    <glyph glyph-name="Kcommaaccent" unicode="&#x136;" horiz-adv-x="771" 
d="M362 6v-6h-319v6q75 0 75 51v565q0 52 -75 52v6h319v-6q-74 0 -74 -52v-565q0 -51 74 -51zM460 439l251 -383q33 -50 76 -50v-6h-328v6q23 0 38 10t15 25q0 22 -14 44l-157 240q184 184 184 293q0 26 -20 41t-47 15v6h294v-6q-29 0 -49 -11t-49 -39zM389 -44
q42 0 71 -26.5t29 -69.5q0 -56 -58 -107q-59 -51 -147 -63l-1 3q87 48 87 126q0 39 -30 53.5t-50 -11.5q0 43 28 69t71 26z" />
    <glyph glyph-name="kcommaaccent" unicode="&#x137;" horiz-adv-x="657" 
d="M333 6v-6h-315v6q75 0 75 51v580q0 28 -16.5 40.5t-57.5 12.5v6q145 0 239 39v-678q0 -51 75 -51zM408 331l173 -268q17 -25 32 -37q3 -3 6 -5t6.5 -3.5t5.5 -3t6 -2.5t5.5 -1.5t6.5 -1t6.5 -1t8 -1.5t8.5 -1v-6q-33 -10 -100 -10q-61 0 -104.5 21t-76.5 76l-94 157
q69 59 111 114t42 90q0 46 -59 46v6h256v-6q-33 0 -56 -18zM335 -44q42 0 71 -26.5t29 -69.5q0 -56 -58 -107q-59 -51 -147 -63l-1 3q87 48 87 126q0 39 -30 53.5t-50 -11.5q0 43 28 69t71 26z" />
    <glyph glyph-name="kgreenlandic" unicode="&#x138;" horiz-adv-x="663" 
d="M264 510v-453q0 -51 75 -51v-6h-315v6q75 0 75 51v355q0 28 -16.5 40.5t-57.5 12.5v6q145 0 239 39zM414 331l173 -268q17 -25 32 -37q3 -3 6 -5t6.5 -3.5t5.5 -3t6 -2.5t5.5 -1.5t6.5 -1t6.5 -1t8 -1.5t8.5 -1v-6q-33 -10 -100 -10q-61 0 -104.5 21t-76.5 76l-94 157
q69 59 111 114t42 90q0 46 -59 46v6h256v-6q-33 0 -56 -18z" />
    <glyph glyph-name="Lacute" unicode="&#x139;" horiz-adv-x="638" 
d="M185 730v5q101 72 170 194l86 -85q-98 -98 -256 -114zM288 623v-623h-245v6q75 0 75 51v566q0 51 -75 51v6h320v-6q-75 0 -75 -51zM612 0h-274v6q110 8 170 51q62 43 96 153h8v-210z" />
    <glyph glyph-name="lacute" unicode="&#x13a;" horiz-adv-x="351" 
d="M48 770v5q101 72 170 194l86 -85q-98 -98 -256 -114zM19 690v6q145 0 239 39v-678q0 -51 75 -51v-6h-315v6q75 0 75 51v580q0 28 -16.5 40.5t-57.5 12.5z" />
    <glyph glyph-name="Lcommaaccent" unicode="&#x13b;" horiz-adv-x="638" 
d="M288 623v-623h-245v6q75 0 75 51v566q0 51 -75 51v6h320v-6q-75 0 -75 -51zM612 0h-274v6q110 8 170 51q62 43 96 153h8v-210zM211 -310l-1 3q87 48 87 126q0 39 -30 53.5t-50 -11.5q0 43 28 69t71 26q42 0 71 -26.5t29 -69.5q0 -56 -58 -107t-147 -63z" />
    <glyph glyph-name="lcommaaccent" unicode="&#x13c;" horiz-adv-x="351" 
d="M19 690v6q145 0 239 39v-678q0 -51 75 -51v-6h-315v6q75 0 75 51v580q0 28 -16.5 40.5t-57.5 12.5zM74 -310l-1 3q87 48 87 126q0 39 -30 53.5t-50 -11.5q0 43 28 69t71 26q42 0 71 -26.5t29 -69.5q0 -56 -58 -107q-59 -51 -147 -63z" />
    <glyph glyph-name="Lcaron" unicode="&#x13d;" horiz-adv-x="639" 
d="M425 511h-6q33 103 33 274h101q-7 -173 -128 -274zM288 623v-623h-245v6q75 0 75 51v566q0 51 -75 51v6h320v-6q-75 0 -75 -51zM612 0h-274v6q110 8 170 51q62 43 96 153h8v-210z" />
    <glyph glyph-name="lcaron" unicode="&#x13e;" horiz-adv-x="351" 
d="M322 511h-6q33 103 33 274h101q-7 -173 -128 -274zM19 690v6q145 0 239 39v-678q0 -51 75 -51v-6h-315v6q75 0 75 51v580q0 28 -16.5 40.5t-57.5 12.5z" />
    <glyph glyph-name="Ldot" unicode="&#x13f;" horiz-adv-x="639" 
d="M288 623v-623h-245v6q75 0 75 51v566q0 51 -75 51v6h320v-6q-75 0 -75 -51zM399 393q0 34 24 55t61 21q38 0 63 -21t25 -55q0 -36 -24.5 -58.5t-62.5 -22.5t-62 22.5t-24 58.5zM612 0h-274v6q110 8 170 51q62 43 96 153h8v-210z" />
    <glyph glyph-name="ldot" unicode="&#x140;" horiz-adv-x="536" 
d="M19 690v6q145 0 239 39v-678q0 -51 75 -51v-6h-315v6q75 0 75 51v580q0 28 -16.5 40.5t-57.5 12.5zM357 305q0 34 24 55t61 21q38 0 63 -21t25 -55q0 -36 -24.5 -58.5t-62.5 -22.5t-62 22.5t-24 58.5z" />
    <glyph glyph-name="Lslash" unicode="&#x141;" horiz-adv-x="638" 
d="M431 484v-26l-143 -90v-368h-245v6q75 0 75 51v203l-75 -47v27l75 47v336q0 51 -75 51v6h320v-6q-75 0 -75 -51v-229zM604 210h8v-210h-274v6q110 8 170 51q62 43 96 153z" />
    <glyph glyph-name="lslash" unicode="&#x142;" horiz-adv-x="351" 
d="M258 400v-343q0 -51 75 -51v-6h-315v6q75 0 75 51v233l-73 -49v24l73 49v323q0 28 -16.5 40.5t-57.5 12.5v6q145 0 239 39v-311l73 49v-24z" />
    <glyph glyph-name="Nacute" unicode="&#x143;" horiz-adv-x="779" 
d="M264 730v5q101 72 170 194l86 -85q-98 -98 -256 -114zM293 680l368 -551v-129h-111l-418 623q-18 29 -42 40t-64 11v6h267zM663 590l-4 -360l-8 11l-12 349q-1 37 -26.5 60.5t-71.5 23.5v6h220v-6q-45 0 -71.5 -24.5t-26.5 -59.5zM123 90l8 432l8 -12l8 -420
q1 -37 26.5 -60.5t71.5 -23.5v-6h-220v6q45 0 71 24t27 60z" />
    <glyph glyph-name="nacute" unicode="&#x144;" horiz-adv-x="702" 
d="M243 546l-2 5q81 98 115 231l105 -60q-71 -121 -218 -176zM339 0h-315v6q75 0 75 51v355q0 28 -16.5 40.5t-57.5 12.5v6q145 0 239 39v-453q0 -51 75 -51v-6zM690 0h-314v6q74 0 74 51v312q0 85 -79 85q-42 0 -76 -31v6q23 34 68.5 57.5t97.5 23.5q73 0 113.5 -35.5
t40.5 -105.5v-312q0 -51 75 -51v-6z" />
    <glyph glyph-name="Ncommaaccent" unicode="&#x145;" horiz-adv-x="779" 
d="M293 680l368 -551v-129h-111l-418 623q-18 29 -42 40t-64 11v6h267zM663 590l-4 -360l-8 11l-12 349q-1 37 -26.5 60.5t-71.5 23.5v6h220v-6q-45 0 -71.5 -24.5t-26.5 -59.5zM123 90l8 432l8 -12l8 -420q1 -37 26.5 -60.5t71.5 -23.5v-6h-220v6q45 0 71 24t27 60z
M290 -310l-1 3q87 48 87 126q0 39 -30 53.5t-50 -11.5q0 43 28 69t71 26q42 0 71 -26.5t29 -69.5q0 -56 -58 -107q-59 -51 -147 -63z" />
    <glyph glyph-name="ncommaaccent" unicode="&#x146;" horiz-adv-x="702" 
d="M339 0h-315v6q75 0 75 51v355q0 28 -16.5 40.5t-57.5 12.5v6q145 0 239 39v-453q0 -51 75 -51v-6zM690 0h-314v6q74 0 74 51v312q0 85 -79 85q-42 0 -76 -31v6q23 34 68.5 57.5t97.5 23.5q73 0 113.5 -35.5t40.5 -105.5v-312q0 -51 75 -51v-6zM249 -310l-1 3
q87 48 87 126q0 39 -30 53.5t-50 -11.5q0 43 28 69t71 26q42 0 71 -26.5t29 -69.5q0 -56 -58 -107t-147 -63z" />
    <glyph glyph-name="Ncaron" unicode="&#x147;" horiz-adv-x="779" 
d="M415 736h-36q-38 95 -155 181l3 6q100 -21 170 -84q70 63 170 84l3 -6q-114 -83 -155 -181zM26 674v6h267l368 -551v-129h-111l-418 623q-18 29 -42 40t-64 11zM541 674v6h220v-6q-45 0 -71.5 -24.5t-26.5 -59.5l-4 -360l-8 11l-12 349q-1 37 -26.5 60.5t-71.5 23.5z
M139 510l8 -420q1 -37 26.5 -60.5t71.5 -23.5v-6h-220v6q45 0 71 24t27 60l8 432z" />
    <glyph glyph-name="ncaron" unicode="&#x148;" horiz-adv-x="702" 
d="M369 564h-36q-57 119 -175 204l3 6q116 -22 190 -86q79 68 190 86l3 -6q-116 -85 -175 -204zM264 510v-453q0 -51 75 -51v-6h-315v6q75 0 75 51v355q0 28 -16.5 40.5t-57.5 12.5v6q145 0 239 39zM615 369v-312q0 -51 75 -51v-6h-314v6q74 0 74 51v312q0 85 -79 85
q-42 0 -76 -31v6q23 34 68.5 57.5t97.5 23.5q73 0 113.5 -35.5t40.5 -105.5z" />
    <glyph glyph-name="napostrophe" unicode="&#x149;" horiz-adv-x="838" 
d="M115 735q35 0 58 -24t23 -63q0 -45 -45 -96q-44 -50 -117 -80l-3 9q57 45 57 97q0 31 -18.5 48t-49.5 18q6 44 31 67.5t64 23.5zM475 0h-315v6q75 0 75 51v355q0 28 -16.5 40.5t-57.5 12.5v6q145 0 239 39v-453q0 -51 75 -51v-6zM826 0h-314v6q74 0 74 51v312
q0 85 -79 85q-42 0 -76 -31v6q23 34 68.5 57.5t97.5 23.5q73 0 113.5 -35.5t40.5 -105.5v-312q0 -51 75 -51v-6z" />
    <glyph glyph-name="Eng" unicode="&#x14a;" horiz-adv-x="779" 
d="M26 674v6h267l368 -551v-129q0 -118 -41.5 -181t-133.5 -69v6q39 14 55 92q5 20 6 51q3 40 3 101l-418 623q-18 29 -42 40t-64 11zM541 674v6h220v-6q-45 0 -71.5 -24.5t-26.5 -59.5l-4 -360l-8 11l-12 349q-1 37 -26.5 60.5t-71.5 23.5zM139 510l8 -420
q1 -37 26.5 -60.5t71.5 -23.5v-6h-220v6q45 0 71 24t27 60l8 432zM457 -75q-38 -2 -59 -22t-21 -54q0 -32 17 -58t42 -35v-6q-80 2 -125 36t-45 98q0 47 30.5 75t77.5 28q72 0 83 -62z" />
    <glyph glyph-name="eng" unicode="&#x14b;" horiz-adv-x="691" 
d="M339 0h-315v6q75 0 75 51v355q0 28 -16.5 40.5t-57.5 12.5v6q145 0 239 39v-453q0 -51 75 -51v-6zM359 -250v6q43 0 67 25.5t24 69.5v518q0 85 -79 85q-42 0 -76 -31v6q23 34 68.5 57.5t97.5 23.5q73 0 113.5 -35.5t40.5 -105.5v-399q0 -111 -67.5 -165.5t-188.5 -54.5z
" />
    <glyph glyph-name="Omacron" unicode="&#x14c;" horiz-adv-x="818" 
d="M250 810v35h317v-35h-317zM384 -4v-6q-115 0 -222 91q-52 44 -83 114.5t-31 150.5q0 79 30.5 146.5t82.5 109.5q105 88 223 88v-6q-140 -15 -140 -338q0 -120 20 -202q20 -75 49 -108.5t71 -39.5zM434 -10v6q39 4 69 37q32 34 51.5 115t19.5 198q0 323 -140 338v6
q118 0 223 -88q52 -42 82.5 -109.5t30.5 -146.5q0 -80 -31 -150.5t-83 -114.5q-107 -91 -222 -91z" />
    <glyph glyph-name="omacron" unicode="&#x14d;" horiz-adv-x="621" 
d="M152 645v35h317v-35h-317zM291 510v-6q-46 -5 -62 -57q-17 -54 -17 -195t17 -196.5t62 -59.5v-6q-94 0 -172 72q-77 72 -77 190t76 187q75 69 173 71zM331 504v6q60 0 115 -28q58 -29 95.5 -90.5t37.5 -139.5q0 -118 -77 -190q-76 -72 -171 -72v6q45 5 61 60
q17 57 17 196q0 99 -7.5 152t-23.5 75t-47 25z" />
    <glyph glyph-name="Ohungarumlaut" unicode="&#x150;" horiz-adv-x="818" 
d="M216 732l-3 6q101 82 171 192l73 -67q-104 -96 -241 -131zM414 732l-3 6q101 82 171 192l73 -67q-104 -96 -241 -131zM384 -4v-6q-115 0 -222 91q-52 44 -83 114.5t-31 150.5q0 79 30.5 146.5t82.5 109.5q105 88 223 88v-6q-140 -15 -140 -338q0 -120 20 -202
q20 -75 49 -108.5t71 -39.5zM434 -10v6q39 4 69 37q32 34 51.5 115t19.5 198q0 323 -140 338v6q118 0 223 -88q52 -42 82.5 -109.5t30.5 -146.5q0 -80 -31 -150.5t-83 -114.5q-107 -91 -222 -91z" />
    <glyph glyph-name="ohungarumlaut" unicode="&#x151;" horiz-adv-x="621" 
d="M128 547l-4 5q72 98 115 229l88 -45q-72 -118 -199 -189zM298 547l-4 5q72 98 115 229l88 -45q-72 -118 -199 -189zM291 510v-6q-46 -5 -62 -57q-17 -54 -17 -195t17 -196.5t62 -59.5v-6q-94 0 -172 72q-77 72 -77 190t76 187q75 69 173 71zM331 504v6q60 0 115 -28
q58 -29 95.5 -90.5t37.5 -139.5q0 -118 -77 -190q-76 -72 -171 -72v6q45 5 61 60q17 57 17 196q0 99 -7.5 152t-23.5 75t-47 25z" />
    <glyph glyph-name="OE" unicode="&#x152;" horiz-adv-x="1069" 
d="M384 6v-6q-117 0 -222 86q-52 42 -83 111t-31 149q0 79 30.5 145t82.5 106q105 83 223 83v-6q-60 -6 -98 -69q-42 -70 -42 -259q0 -323 140 -340zM679 0h-245v6q28 0 51 24q24 24 24 47v535q0 24 -21.5 43t-53.5 19v6h245v-680zM1004 495h-8q-41 95 -98 133
q-55 38 -169 46v6h275v-185zM924 260h-8q-44 76 -132 84l-55 5v6l55 5q86 8 132 86h8v-186zM1014 0h-285v6q113 7 176 46q60 38 101 133h8v-185z" />
    <glyph glyph-name="oe" unicode="&#x153;" horiz-adv-x="930" 
d="M291 510v-6q-46 -5 -62 -57q-17 -54 -17 -195t17 -196.5t62 -59.5v-6q-94 0 -172 72q-77 72 -77 190t76 187q75 69 173 71zM579 256q0 -104 41.5 -163.5t111.5 -59.5q78 0 146 53v-6q-35 -45 -96 -68q-59 -22 -116 -22q-101 0 -172 64q-71 -64 -163 -64v6q45 5 61 60
q17 57 17 196q0 99 -7.5 152t-23.5 75t-47 25v6q92 0 162 -61q70 61 161 61v-6q-43 -4 -60 -55q-15 -49 -15 -193zM694 504v6q91 0 144 -53q52 -52 52 -117q0 -24 -5 -52h-251v6q67 0 96 25t29 87q0 40 -17 67t-48 31z" />
    <glyph glyph-name="Racute" unicode="&#x154;" horiz-adv-x="743" 
d="M412 929l86 -85q-98 -98 -256 -114v5q101 72 170 194zM288 680v-623q0 -51 76 -51v-6h-321v6q75 0 75 51v567q0 50 -75 50v6h245zM748 71h6q-12 -39 -51 -60t-97 -21q-154 0 -166 174q-5 68 -20 104q-18 45 -82 55v6q64 0 98.5 48.5t34.5 131.5q0 84 -32 124.5t-101 40.5
v6q158 0 230.5 -40t72.5 -131q0 -81 -59 -128.5t-170 -54.5q131 -6 175 -54q38 -42 45 -108q16 -138 66 -138q26 0 50 45z" />
    <glyph glyph-name="racute" unicode="&#x155;" horiz-adv-x="552" 
d="M168 546l-2 5q81 98 115 231l105 -60q-71 -121 -218 -176zM264 510v-453q0 -51 75 -51v-6h-315v6q75 0 75 51v355q0 28 -16.5 40.5t-57.5 12.5v6q145 0 239 39zM427 510q49 0 78 -30t29 -78q0 -49 -30 -81.5t-73 -32.5q-41 0 -57 22q39 21 39 68q0 23 -15.5 38.5
t-40.5 15.5q-39 0 -60 -38v8q14 49 49.5 78.5t80.5 29.5z" />
    <glyph glyph-name="Rcommaaccent" unicode="&#x156;" horiz-adv-x="743" 
d="M364 6v-6h-321v6q75 0 75 51v567q0 50 -75 50v6h245v-623q0 -51 76 -51zM748 71h6q-12 -39 -51 -60t-97 -21q-154 0 -166 174q-5 68 -20 104q-18 45 -82 55v6q64 0 98.5 48.5t34.5 131.5q0 84 -32 124.5t-101 40.5v6q158 0 230.5 -40t72.5 -131q0 -81 -59 -128.5
t-170 -54.5q131 -6 175 -54q38 -42 45 -108q16 -138 66 -138q26 0 50 45zM373 -44q42 0 71 -26.5t29 -69.5q0 -56 -58 -107q-59 -51 -147 -63l-1 3q87 48 87 126q0 39 -30 53.5t-50 -11.5q0 43 28 69t71 26z" />
    <glyph glyph-name="rcommaaccent" unicode="&#x157;" horiz-adv-x="552" 
d="M264 510v-453q0 -51 75 -51v-6h-315v6q75 0 75 51v355q0 28 -16.5 40.5t-57.5 12.5v6q145 0 239 39zM427 510q49 0 78 -30t29 -78q0 -49 -30 -81.5t-73 -32.5q-41 0 -57 22q39 21 39 68q0 23 -15.5 38.5t-40.5 15.5q-39 0 -60 -38v8q14 49 49.5 78.5t80.5 29.5zM174 -310
l-1 3q87 48 87 126q0 39 -30 53.5t-50 -11.5q0 43 28 69t71 26q42 0 71 -26.5t29 -69.5q0 -56 -58 -107q-59 -51 -147 -63z" />
    <glyph glyph-name="Rcaron" unicode="&#x158;" horiz-adv-x="743" 
d="M393 736h-36q-38 95 -155 181l3 6q100 -21 170 -84q70 63 170 84l3 -6q-114 -83 -155 -181zM288 680v-623q0 -51 76 -51v-6h-321v6q75 0 75 51v567q0 50 -75 50v6h245zM748 71h6q-12 -39 -51 -60t-97 -21q-154 0 -166 174q-5 68 -20 104q-18 45 -82 55v6q64 0 98.5 48.5
t34.5 131.5q0 84 -32 124.5t-101 40.5v6q158 0 230.5 -40t72.5 -131q0 -81 -59 -128.5t-170 -54.5q131 -6 175 -54q38 -42 45 -108q16 -138 66 -138q26 0 50 45z" />
    <glyph glyph-name="rcaron" unicode="&#x159;" horiz-adv-x="552" 
d="M294 564h-36q-57 119 -175 204l3 6q116 -22 190 -86q79 68 190 86l3 -6q-116 -85 -175 -204zM264 510v-453q0 -51 75 -51v-6h-315v6q75 0 75 51v355q0 28 -16.5 40.5t-57.5 12.5v6q145 0 239 39zM427 510q49 0 78 -30t29 -78q0 -49 -30 -81.5t-73 -32.5q-41 0 -57 22
q39 21 39 68q0 23 -15.5 38.5t-40.5 15.5q-39 0 -60 -38v8q14 49 49.5 78.5t80.5 29.5z" />
    <glyph glyph-name="Sacute" unicode="&#x15a;" horiz-adv-x="643" 
d="M364 929l86 -85q-98 -98 -256 -114v5q101 72 170 194zM209 592q0 -86 135 -158q118 -62 157 -91q91 -68 90 -148q0 -94 -66 -147t-185 -58v6q48 9 78.5 35.5t30.5 66.5q0 86 -135 156q-5 3 -36 19t-39.5 21t-36 20.5t-37 24t-30.5 24.5t-29.5 28.5t-19.5 29.5t-15 34.5
t-4 36.5q0 86 63 139q63 51 167 59v-6q-40 -7 -64 -30.5t-24 -61.5zM340 684v6q114 -5 180 -53l36 53h8v-223h-8q-24 81 -84 139q-58 60 -132 78zM62 234h8q52 -179 227 -238v-6q-120 3 -194 49l-33 -49h-8v244z" />
    <glyph glyph-name="sacute" unicode="&#x15b;" horiz-adv-x="546" 
d="M165 546l-2 5q81 98 115 231l105 -60q-71 -121 -218 -176zM249 510v-6q-34 -6 -53.5 -23t-18.5 -44q1 -57 117 -109q39 -17 58.5 -26.5t54 -29.5t52 -36.5t31.5 -41.5t14 -51q0 -70 -55.5 -109.5t-155.5 -43.5v6q89 15 89 74q0 49 -116 105q-37 18 -49 24t-45.5 24.5
t-47.5 30.5t-34.5 31t-28 38.5t-7.5 40.5q0 63 54 102.5t141 43.5zM293 504v6q86 -5 139 -33t53 -70q0 -26 -20 -44t-54 -18q-64 0 -85 48q21 1 33.5 14.5t11.5 32.5q0 22 -23.5 41t-54.5 23zM128 163q62 0 88 -44q-25 -1 -40.5 -14.5t-15.5 -35.5q0 -28 22 -48t67 -25v-6
q-99 4 -152.5 29.5t-53.5 69.5q0 32 24.5 53t60.5 21z" />
    <glyph glyph-name="Scedilla" unicode="&#x15e;" horiz-adv-x="643" 
d="M591 195q0 -89 -59 -142.5t-163 -61.5l-38 -52q70 2 113 -25.5t43 -76.5q0 -51 -42 -84q-41 -33 -97 -33q-35 0 -68.5 15.5t-51.5 41.5l7 4q31 -28 71 -28q31 0 52 21t21 53q0 33 -32 56q-31 21 -69 21l76 95q95 23 95 99q0 86 -135 156q-5 3 -36 19t-39.5 21t-36 20.5
t-37 24t-30.5 24.5t-29.5 28.5t-19.5 29.5t-15 34.5t-4 36.5q0 86 63 139q63 51 167 59v-6q-40 -7 -64 -30.5t-24 -61.5q0 -86 135 -158q118 -62 157 -91q91 -68 90 -148zM564 467h-8q-24 81 -84 139q-58 60 -132 78v6q114 -5 180 -53l36 53h8v-223zM297 -4v-6
q-120 3 -194 49l-33 -49h-8v244h8q52 -179 227 -238z" />
    <glyph glyph-name="scedilla" unicode="&#x15f;" horiz-adv-x="546" 
d="M504 143q0 -68 -52 -107t-146 -45l-49 -52q70 2 111.5 -25t41.5 -77q0 -51 -42 -84q-41 -33 -97 -33q-35 0 -68.5 15.5t-51.5 41.5l7 4q31 -28 71 -28q31 0 52 21t21 53q0 33 -32 56q-32 21 -69 21l92 92q89 15 89 74q0 49 -116 105q-37 18 -49 24t-45.5 24.5t-47.5 30.5
t-34.5 31t-28 38.5t-7.5 40.5q0 63 54 102.5t141 43.5v-6q-34 -6 -53.5 -23t-18.5 -44q1 -57 117 -109q39 -17 58.5 -26.5t54 -29.5t52 -36.5t31.5 -41.5t14 -51zM371 440q0 22 -23.5 41t-54.5 23v6q86 -5 139 -33t53 -70q0 -26 -20 -44t-54 -18q-64 0 -85 48
q21 1 33.5 14.5t11.5 32.5zM249 -4v-6q-99 4 -152.5 29.5t-53.5 69.5q0 32 24.5 53t60.5 21q62 0 88 -44q-25 -1 -40.5 -14.5t-15.5 -35.5q0 -28 22 -48t67 -25z" />
    <glyph glyph-name="Scaron" unicode="&#x160;" horiz-adv-x="643" 
d="M345 736h-36q-38 95 -155 181l3 6q100 -21 170 -84q70 63 170 84l3 -6q-114 -83 -155 -181zM209 592q0 -86 135 -158q118 -62 157 -91q91 -68 90 -148q0 -94 -66 -147t-185 -58v6q48 9 78.5 35.5t30.5 66.5q0 86 -135 156q-5 3 -36 19t-39.5 21t-36 20.5t-37 24
t-30.5 24.5t-29.5 28.5t-19.5 29.5t-15 34.5t-4 36.5q0 86 63 139q63 51 167 59v-6q-40 -7 -64 -30.5t-24 -61.5zM340 684v6q114 -5 180 -53l36 53h8v-223h-8q-24 81 -84 139q-58 60 -132 78zM62 234h8q52 -179 227 -238v-6q-120 3 -194 49l-33 -49h-8v244z" />
    <glyph glyph-name="scaron" unicode="&#x161;" horiz-adv-x="546" 
d="M291 564h-36q-57 119 -175 204l3 6q116 -22 190 -86q79 68 190 86l3 -6q-116 -85 -175 -204zM177 437q1 -57 117 -109q39 -17 58.5 -26.5t54 -29.5t52 -36.5t31.5 -41.5t14 -51q0 -70 -55.5 -109.5t-155.5 -43.5v6q89 15 89 74q0 49 -116 105q-37 18 -49 24t-45.5 24.5
t-47.5 30.5t-34.5 31t-28 38.5t-7.5 40.5q0 63 54 102.5t141 43.5v-6q-34 -6 -53.5 -23t-18.5 -44zM326 393q21 1 33.5 14.5t11.5 32.5q0 22 -23.5 41t-54.5 23v6q86 -5 139 -33t53 -70q0 -26 -20 -44t-54 -18q-64 0 -85 48zM160 69q0 -28 22 -48t67 -25v-6
q-99 4 -152.5 29.5t-53.5 69.5q0 32 24.5 53t60.5 21q62 0 88 -44q-25 -1 -40.5 -14.5t-15.5 -35.5z" />
    <glyph glyph-name="uni0162" unicode="&#x162;" horiz-adv-x="672" 
d="M31 680h170v-6q-56 -14 -100 -74q-42 -56 -62 -142h-8v222zM421 680v-621q0 -53 75 -53v-6h-129l-51 -60q70 2 111.5 -26.5t41.5 -79.5q0 -52 -42 -87q-40 -34 -97 -34q-35 0 -68.5 16t-51.5 43l7 4q31 -29 71 -29q30 0 51.5 22t21.5 55q0 34 -32 57t-69 23l86 96h-170v6
q75 0 75 53v621h170zM471 674v6h170v-222h-8q-20 84 -63 142q-44 61 -99 74z" />
    <glyph glyph-name="uni0163" unicode="&#x163;" horiz-adv-x="412" 
d="M317 26q44 0 95 51v-6q-25 -37 -71 -59t-100 -22h-9l-46 -52q70 2 111.5 -25t41.5 -77q0 -51 -42 -84q-41 -33 -97 -33q-35 0 -68.5 15.5t-51.5 41.5l7 4q31 -28 71 -28q31 0 52 21t21 53q0 33 -32 56q-31 21 -69 21l82 89q-125 14 -125 139v328h-52l11 15h41v108
q99 0 164 56v-164h135l-11 -15h-124v-331q0 -44 17 -73t49 -29z" />
    <glyph glyph-name="Tcaron" unicode="&#x164;" horiz-adv-x="672" 
d="M359 736h-36q-38 95 -155 181l3 6q100 -21 170 -84q70 63 170 84l3 -6q-114 -83 -155 -181zM31 680h170v-6q-56 -14 -100 -74q-42 -56 -62 -142h-8v222zM421 680v-621q0 -53 75 -53v-6h-320v6q75 0 75 53v621h170zM471 674v6h170v-222h-8q-20 84 -63 142q-44 61 -99 74z
" />
    <glyph glyph-name="tcaron" unicode="&#x165;" horiz-adv-x="412" 
d="M336 785h101q-7 -173 -128 -274h-6q33 103 33 274zM251 459v-331q0 -44 17 -73t49 -29q44 0 95 51v-6q-25 -37 -71 -59t-100 -22q-73 0 -113.5 35.5t-40.5 105.5v328h-52l11 15h41v108q99 0 164 56v-164h135l-11 -15h-124z" />
    <glyph glyph-name="Tbar" unicode="&#x166;" horiz-adv-x="672" 
d="M31 680h170v-6q-56 -14 -100 -74q-42 -56 -62 -142h-8v222zM251 680h170v-347h113v-25h-113v-249q0 -53 75 -53v-6h-320v6q75 0 75 53v249h-112v25h112v347zM471 674v6h170v-222h-8q-20 84 -63 142q-44 61 -99 74z" />
    <glyph glyph-name="tbar" unicode="&#x167;" horiz-adv-x="412" 
d="M317 26q44 0 95 51v-6q-25 -37 -71 -59t-100 -22q-73 0 -113.5 35.5t-40.5 105.5v160h-50v15h50v153h-52l11 15h41v108q99 0 164 56v-164h135l-11 -15h-124v-153h124v-15h-124v-163q0 -44 17 -73t49 -29z" />
    <glyph glyph-name="Utilde" unicode="&#x168;" horiz-adv-x="744" 
d="M225 744h-6q-28 24 -28 68q0 39 24.5 62t73.5 23q44 0 116 -28q73 -27 99 -27q42 0 42 32q0 13 -16 32h6q28 -24 28 -65q0 -40 -24.5 -64t-73.5 -24q-42 0 -116 27q-72 28 -99 28q-42 0 -42 -32q0 -13 16 -32zM103 190v433q0 51 -75 51v6h320v-6q-75 0 -75 -51v-436
q0 -81 24.5 -133t70.5 -58v-6q-144 0 -205 57q-60 57 -60 143zM628 549v-359q0 -83 -53 -142q-52 -58 -157 -58v6q90 1 140 57t50 134v362q0 53 -27 89t-73 36v6h220v-6q-46 0 -73 -36t-27 -89z" />
    <glyph glyph-name="utilde" unicode="&#x169;" horiz-adv-x="683" 
d="M189 579h-6q-28 25 -28 68q0 39 24.5 62t73.5 23q44 0 116 -28q73 -27 99 -27q42 0 42 32q0 13 -16 32h6q28 -25 28 -65t-24.5 -64t-73.5 -24q-42 0 -116 27q-72 28 -99 28q-42 0 -42 -32q0 -13 16 -32zM253 510v-379q0 -85 69 -85q39 0 69 31v-6q-20 -37 -60 -59
t-95 -22q-148 0 -148 141v281q0 28 -16.5 40.5t-57.5 12.5v6q144 0 239 39zM586 510v-443q0 -41 27 -41q24 0 48 45h6q-12 -39 -48 -60t-88 -21q-51 0 -80.5 26.5t-29.5 71.5v324q0 28 -16 40.5t-55 12.5v6q124 0 236 39z" />
    <glyph glyph-name="Umacron" unicode="&#x16a;" horiz-adv-x="744" 
d="M219 810v35h317v-35h-317zM103 190v433q0 51 -75 51v6h320v-6q-75 0 -75 -51v-436q0 -81 24.5 -133t70.5 -58v-6q-144 0 -205 57q-60 57 -60 143zM628 549v-359q0 -83 -53 -142q-52 -58 -157 -58v6q90 1 140 57t50 134v362q0 53 -27 89t-73 36v6h220v-6q-46 0 -73 -36
t-27 -89z" />
    <glyph glyph-name="umacron" unicode="&#x16b;" horiz-adv-x="683" 
d="M183 645v35h317v-35h-317zM253 510v-379q0 -85 69 -85q39 0 69 31v-6q-20 -37 -60 -59t-95 -22q-148 0 -148 141v281q0 28 -16.5 40.5t-57.5 12.5v6q144 0 239 39zM586 510v-443q0 -41 27 -41q24 0 48 45h6q-12 -39 -48 -60t-88 -21q-51 0 -80.5 26.5t-29.5 71.5v324
q0 28 -16 40.5t-55 12.5v6q124 0 236 39z" />
    <glyph glyph-name="Uring" unicode="&#x16e;" horiz-adv-x="744" 
d="M451 755q-30 -29 -73 -29t-73 29q-30 30 -30 73q0 44 30 72q30 30 73 30t73 -30q30 -28 30 -72q0 -43 -30 -73zM437 828q0 26 -17 43.5t-42 17.5t-42 -17.5t-17 -43.5q0 -25 17 -42.5t42 -17.5t42 17.5t17 42.5zM103 190v433q0 51 -75 51v6h320v-6q-75 0 -75 -51v-436
q0 -81 24.5 -133t70.5 -58v-6q-144 0 -205 57q-60 57 -60 143zM628 549v-359q0 -83 -53 -142q-52 -58 -157 -58v6q90 1 140 57t50 134v362q0 53 -27 89t-73 36v6h220v-6q-46 0 -73 -36t-27 -89z" />
    <glyph glyph-name="uring" unicode="&#x16f;" horiz-adv-x="683" 
d="M415 586q-30 -29 -73 -29t-73 29q-30 30 -30 73t30 72q30 30 73 30t73 -30q30 -29 30 -72t-30 -73zM401 659q0 26 -17 43.5t-42 17.5t-42 -17.5t-17 -43.5q0 -25 17 -42.5t42 -17.5t42 17.5t17 42.5zM253 510v-379q0 -85 69 -85q39 0 69 31v-6q-20 -37 -60 -59t-95 -22
q-148 0 -148 141v281q0 28 -16.5 40.5t-57.5 12.5v6q144 0 239 39zM586 510v-443q0 -41 27 -41q24 0 48 45h6q-12 -39 -48 -60t-88 -21q-51 0 -80.5 26.5t-29.5 71.5v324q0 28 -16 40.5t-55 12.5v6q124 0 236 39z" />
    <glyph glyph-name="Uhungarumlaut" unicode="&#x170;" horiz-adv-x="744" 
d="M185 732l-3 6q100 82 171 192l73 -67q-104 -96 -241 -131zM383 732l-3 6q100 82 171 192l73 -67q-104 -96 -241 -131zM103 190v433q0 51 -75 51v6h320v-6q-75 0 -75 -51v-436q0 -81 24.5 -133t70.5 -58v-6q-144 0 -205 57q-60 57 -60 143zM628 549v-359q0 -83 -53 -142
q-52 -58 -157 -58v6q90 1 140 57t50 134v362q0 53 -27 89t-73 36v6h220v-6q-46 0 -73 -36t-27 -89z" />
    <glyph glyph-name="uhungarumlaut" unicode="&#x171;" horiz-adv-x="683" 
d="M159 547l-4 5q72 98 115 229l88 -45q-72 -118 -199 -189zM329 547l-4 5q72 98 115 229l88 -45q-72 -118 -199 -189zM253 510v-379q0 -85 69 -85q39 0 69 31v-6q-20 -37 -60 -59t-95 -22q-148 0 -148 141v281q0 28 -16.5 40.5t-57.5 12.5v6q144 0 239 39zM586 510v-443
q0 -41 27 -41q24 0 48 45h6q-12 -39 -48 -60t-88 -21q-51 0 -80.5 26.5t-29.5 71.5v324q0 28 -16 40.5t-55 12.5v6q124 0 236 39z" />
    <glyph glyph-name="Uogonek" unicode="&#x172;" horiz-adv-x="744" 
d="M368 -4v-6q-144 0 -205 57q-60 57 -60 143v433q0 51 -75 51v6h320v-6q-75 0 -75 -51v-436q0 -81 24.5 -133t70.5 -58zM409 -250q-42 0 -71 26.5t-29 69.5q0 46 44 80.5t154 85.5q44 21 72.5 69t28.5 106v362q0 53 -27 89t-73 36v6h220v-6q-46 0 -73 -36t-27 -89v-359
q0 -65 -34.5 -115.5t-94.5 -77.5q-71 -32 -71 -97q0 -33 13.5 -52t34.5 -19q19 0 32 16q0 -43 -28 -69t-71 -26z" />
    <glyph glyph-name="uogonek" unicode="&#x173;" horiz-adv-x="683" 
d="M322 46q39 0 69 31v-6q-20 -37 -60 -59t-95 -22q-148 0 -148 141v281q0 28 -16.5 40.5t-57.5 12.5v6q144 0 239 39v-379q0 -85 69 -85zM626 15q-87 -68 -87 -128q0 -39 30 -53.5t50 11.5q0 -43 -28 -69t-71 -26q-42 0 -71 26.5t-29 69.5q0 83 145 146q-30 -2 -34 -2
q-51 0 -80.5 26.5t-29.5 71.5v324q0 28 -16 40.5t-55 12.5v6q124 0 236 39v-443q0 -41 27 -41q24 0 48 45h6q-11 -36 -41 -56z" />
    <glyph glyph-name="Wcircumflex" unicode="&#x174;" horiz-adv-x="1037" 
d="M545 814q-70 -63 -170 -84l-3 6q117 86 155 181h36q41 -98 155 -181l-3 -6q-100 21 -170 84zM322 680v-6q-37 0 -53 -22.5t-1 -59.5l149 -366l-92 -236h-11l-253 632q-12 29 -32.5 40.5t-57.5 11.5v6h351zM721 680v-6q-37 0 -53 -22.5t-1 -59.5l149 -366l-92 -236h-11
l-195 487l-68 -168l-4 9q52 138 52 191q0 15 -6 34l-32 79q-12 29 -32.5 40.5t-57.5 11.5v6h351zM793 674v6h266v-4q-63 0 -106 -111l-104 -256l-4 9q19 50 28 102q8 45 10 76q2 34 2 69q0 52 -25 80.5t-67 28.5z" />
    <glyph glyph-name="wcircumflex" unicode="&#x175;" horiz-adv-x="900" 
d="M448 643q-74 -64 -190 -86l-3 6q118 85 175 204h36q59 -119 175 -204l-3 -6q-111 18 -190 86zM272 500v-6q-26 0 -35.5 -16.5t3.5 -42.5l131 -273l-86 -162h-6l-232 459q-17 35 -55 35v6h280zM601 500v-6q-26 0 -35.5 -16.5t3.5 -42.5l131 -273l-86 -162h-6l-157 311
l-32 -60l-6 9q12 25 14.5 57t-6.5 54l-45 88q-17 35 -55 35v6h280zM668 494v6h249v-6q-23 0 -36.5 -10t-28.5 -37l-104 -196l-6 9q28 52 28 129q0 47 -26.5 76t-75.5 29z" />
    <glyph glyph-name="Ycircumflex" unicode="&#x176;" horiz-adv-x="690" 
d="M340 814q-70 -63 -170 -84l-3 6q117 86 155 181h36q41 -98 155 -181l-3 -6q-100 21 -170 84zM434 291v-234q0 -51 75 -51v-6h-320v6q75 0 75 51v183l-197 385q-13 26 -28.5 37.5t-41.5 11.5v6h313v-6q-46 0 -46 -35q0 -17 33 -81q11 -22 45 -87zM406 674v6h293v-6
q-39 0 -67 -48l-149 -259l-4 7q21 40 31 64q27 58 27 121q0 51 -40 82q-41 33 -91 33z" />
    <glyph glyph-name="ycircumflex" unicode="&#x177;" horiz-adv-x="571" 
d="M284 643q-74 -64 -190 -86l-3 6q118 85 175 204h36q59 -119 175 -204l-3 -6q-111 18 -190 86zM275 500v-6q-26 0 -35.5 -16.5t3.5 -42.5l131 -273l-86 -162h-6l-232 459q-17 35 -55 35v6h280zM342 494v6h249v-6q-24 0 -37 -9.5t-28 -37.5l-104 -196l-6 9q28 52 28 129
q0 47 -26.5 76t-75.5 29zM149 -159q24 0 46.5 23t54.5 78h7l-35 -66q-22 -42 -33 -56q-20 -33 -34 -43q-32 -27 -61 -27q-41 0 -64.5 24.5t-23.5 64.5q0 32 23.5 57.5t64.5 36.5q-4 -11 -4 -25q-1 -30 15.5 -48.5t43.5 -18.5z" />
    <glyph glyph-name="Ydieresis" unicode="&#x178;" horiz-adv-x="690" 
d="M123 828q0 34 24 55t61 21q38 0 63 -21t25 -55q0 -36 -24.5 -58.5t-62.5 -22.5t-62 22.5t-24 58.5zM386 828q0 34 24 55t62 21t61.5 -21t23.5 -55q0 -37 -23.5 -59t-61.5 -22t-62 22.5t-24 58.5zM434 291v-234q0 -51 75 -51v-6h-320v6q75 0 75 51v183l-197 385
q-13 26 -28.5 37.5t-41.5 11.5v6h313v-6q-46 0 -46 -35q0 -17 33 -81q11 -22 45 -87zM406 674v6h293v-6q-39 0 -67 -48l-149 -259l-4 7q21 40 31 64q27 58 27 121q0 51 -40 82q-41 33 -91 33z" />
    <glyph glyph-name="Zacute" unicode="&#x179;" horiz-adv-x="669" 
d="M192 730v5q101 72 170 194l86 -85q-98 -98 -256 -114zM223 0h-190l396 680h191zM70 439h-8v241h302l-3 -6q-109 -6 -191 -73q-80 -67 -100 -162zM611 0h-323l3 6q116 10 199 80t113 187h8v-273z" />
    <glyph glyph-name="zacute" unicode="&#x17a;" horiz-adv-x="568" 
d="M176 546l-2 5q81 98 115 231l105 -60q-71 -121 -218 -176zM208 0h-180l318 500h177zM60 323h-6v177h232l-4 -6q-75 0 -142 -50q-65 -50 -80 -121zM520 0h-252l4 6q80 0 154 59q75 59 88 140h6v-205z" />
    <glyph glyph-name="Zdotaccent" unicode="&#x17b;" horiz-adv-x="669" 
d="M236 829q0 34 24 55t61 21q38 0 63 -21t25 -55q0 -36 -24.5 -58.5t-62.5 -22.5t-62 22.5t-24 58.5zM223 0h-190l396 680h191zM70 439h-8v241h302l-3 -6q-109 -6 -191 -73q-80 -67 -100 -162zM611 0h-323l3 6q116 10 199 80t113 187h8v-273z" />
    <glyph glyph-name="zdotaccent" unicode="&#x17c;" horiz-adv-x="568" 
d="M182 660q0 39 28.5 63t73.5 24t73.5 -24t28.5 -63q0 -40 -28.5 -64t-73.5 -24t-73.5 24t-28.5 64zM208 0h-180l318 500h177zM60 323h-6v177h232l-4 -6q-75 0 -142 -50q-65 -50 -80 -121zM520 0h-252l4 6q80 0 154 59q75 59 88 140h6v-205z" />
    <glyph glyph-name="Zcaron" unicode="&#x17d;" horiz-adv-x="669" 
d="M343 736h-36q-38 95 -155 181l3 6q100 -21 170 -84q70 63 170 84l3 -6q-114 -83 -155 -181zM33 0l396 680h191l-397 -680h-190zM364 680l-3 -6q-109 -6 -191 -73q-80 -67 -100 -162h-8v241h302zM288 0l3 6q116 10 199 80t113 187h8v-273h-323z" />
    <glyph glyph-name="zcaron" unicode="&#x17e;" horiz-adv-x="568" 
d="M302 564h-36q-57 119 -175 204l3 6q116 -22 190 -86q79 68 190 86l3 -6q-116 -85 -175 -204zM28 0l318 500h177l-315 -500h-180zM286 500l-4 -6q-75 0 -142 -50q-65 -50 -80 -121h-6v177h232zM268 0l4 6q80 0 154 59q75 59 88 140h6v-205h-252z" />
    <glyph glyph-name="uni01EA" unicode="&#x1ea;" horiz-adv-x="818" 
d="M384 -4v-6q-115 0 -222 91q-52 44 -83 114.5t-31 150.5q0 79 30.5 146.5t82.5 109.5q105 88 223 88v-6q-140 -15 -140 -338q0 -120 20 -202q20 -75 49 -108.5t71 -39.5zM417 -250q-42 0 -71 26.5t-29 69.5q0 46 36.5 82t94.5 58q126 50 126 360q0 323 -140 338v6
q118 0 223 -88q52 -42 82.5 -109.5t30.5 -146.5q0 -144 -83 -232q-72 -77 -171 -114q-80 -30 -80 -113q0 -39 30 -53.5t50 11.5q0 -43 -28 -69t-71 -26z" />
    <glyph glyph-name="uni01EB" unicode="&#x1eb;" horiz-adv-x="621" 
d="M291 -4v-6q-94 0 -172 72q-77 72 -77 190t76 187q75 69 173 71v-6q-46 -5 -62 -57q-17 -54 -17 -195t17 -196.5t62 -59.5zM327 -250q-42 0 -71 26.5t-29 69.5q0 38 28.5 73.5t74.5 56.5t62 79q17 60 17 197q0 99 -7.5 152t-23.5 75t-47 25v6q60 0 115 -28
q58 -29 95.5 -90.5t37.5 -139.5q0 -91 -46 -152q-46 -60 -109 -89q-78 -35 -78 -124q0 -39 30 -53.5t50 11.5q0 -43 -28 -69t-71 -26z" />
    <glyph glyph-name="AEacute" unicode="&#x1fc;" horiz-adv-x="1007" 
d="M376 730v5q101 72 170 194l86 -85q-98 -98 -256 -114zM372 674v6h245v-680h-245v6q75 0 75 51v565q0 52 -75 52zM942 495h-8q-41 95 -98 133q-55 38 -169 46v6h275v-185zM357 252l3 -6l-187 -6q-38 -90 -38 -125q0 -51 39 -80q41 -29 86 -29v-6h-288v4q32 0 59 26.5
t57 84.5l250 482v-20q-125 -249 -157 -319zM862 260h-8q-44 76 -132 84l-55 5v6l55 5q86 8 132 86h8v-186zM944 185h8v-185h-285v6q113 7 176 46q60 38 101 133z" />
    <glyph glyph-name="aeacute" unicode="&#x1fd;" horiz-adv-x="883" 
d="M475 782l105 -60q-71 -121 -218 -176l-2 5q81 98 115 231zM159 322q-38 0 -62.5 22.5t-24.5 54.5q0 48 45.5 77.5t136.5 33.5v-6q-29 -4 -46.5 -24.5t-17.5 -47.5t17.5 -43.5t47.5 -18.5q-11 -21 -38.5 -34.5t-57.5 -13.5zM532 256q0 -104 41.5 -163.5t111.5 -59.5
q78 0 146 53v-6q-35 -45 -96 -68q-59 -22 -116 -22q-103 0 -180 71t-77 191v157q0 84 -68 95v6q117 -5 171 -47q65 47 142 47v-6q-43 -4 -60 -55q-15 -49 -15 -193zM647 504v6q91 0 144 -53q52 -52 52 -117q0 -24 -5 -52h-251v6q67 0 96 25t29 87q0 40 -17 67t-48 31z
M269 37q21 -2 41 12q21 13 28 22l29 37l2 -5q-30 -51 -80 -82t-116 -31q-65 0 -103.5 34.5t-37.5 93.5q1 63 53 99.5t139 36.5h108v-6h-30q-51 0 -78.5 -29.5t-27.5 -79.5q0 -98 73 -102z" />
    <glyph glyph-name="Oslashacute" unicode="&#x1fe;" horiz-adv-x="818" 
d="M597 929l86 -85q-98 -98 -256 -114v5q101 72 170 194zM751 690l-87 -94q106 -99 106 -250q0 -80 -31 -150.5t-83 -114.5q-107 -91 -222 -91v6q39 4 69 37q32 34 51.5 115t19.5 198q0 76 -8 142l-305 -331q32 -151 123 -161v-6q-108 0 -206 77l-71 -77h-39l89 96
q-109 103 -109 260q0 79 30.5 146.5t82.5 109.5q105 88 223 88v-6q-140 -15 -140 -338q0 -86 10 -155l306 331q-28 152 -126 162v6q112 0 210 -77l72 77h35z" />
    <glyph glyph-name="oslashacute" unicode="&#x1ff;" horiz-adv-x="621" 
d="M342 782l105 -60q-71 -121 -218 -176l-2 5q81 98 115 231zM548 510h31l-72 -74q72 -72 72 -184q0 -118 -77 -190q-76 -72 -171 -72v6q45 5 61 60q17 57 17 196q0 50 -2 82l-191 -197q6 -73 23.5 -105t51.5 -36v-6q-89 0 -159 60l-59 -60h-31l74 76q-74 74 -74 186
q0 118 76 187q75 69 173 71v-6q-46 -5 -62 -57q-17 -54 -17 -195q0 -19 2 -85l192 197q-6 75 -22.5 105.5t-52.5 34.5v6q89 0 160 -59z" />
    <glyph glyph-name="Scommaaccent" unicode="&#x218;" horiz-adv-x="643" 
d="M209 592q0 -86 135 -158q118 -62 157 -91q91 -68 90 -148q0 -94 -66 -147t-185 -58v6q48 9 78.5 35.5t30.5 66.5q0 86 -135 156q-5 3 -36 19t-39.5 21t-36 20.5t-37 24t-30.5 24.5t-29.5 28.5t-19.5 29.5t-15 34.5t-4 36.5q0 86 63 139q63 51 167 59v-6q-40 -7 -64 -30.5
t-24 -61.5zM564 467h-8q-24 81 -84 139q-58 60 -132 78v6q114 -5 180 -53l36 53h8v-223zM297 -4v-6q-120 3 -194 49l-33 -49h-8v244h8q52 -179 227 -238zM325 -44q42 0 71 -26.5t29 -69.5q0 -56 -58 -107q-59 -51 -147 -63l-1 3q87 48 87 126q0 39 -30 53.5t-50 -11.5
q0 43 28 69t71 26z" />
    <glyph glyph-name="scommaaccent" unicode="&#x219;" horiz-adv-x="546" 
d="M249 510v-6q-34 -6 -53.5 -23t-18.5 -44q1 -57 117 -109q39 -17 58.5 -26.5t54 -29.5t52 -36.5t31.5 -41.5t14 -51q0 -70 -55.5 -109.5t-155.5 -43.5v6q89 15 89 74q0 49 -116 105q-37 18 -49 24t-45.5 24.5t-47.5 30.5t-34.5 31t-28 38.5t-7.5 40.5q0 63 54 102.5
t141 43.5zM293 504v6q86 -5 139 -33t53 -70q0 -26 -20 -44t-54 -18q-64 0 -85 48q21 1 33.5 14.5t11.5 32.5q0 22 -23.5 41t-54.5 23zM128 163q62 0 88 -44q-25 -1 -40.5 -14.5t-15.5 -35.5q0 -28 22 -48t67 -25v-6q-99 4 -152.5 29.5t-53.5 69.5q0 32 24.5 53t60.5 21z
M171 -310l-1 3q87 48 87 126q0 39 -30 53.5t-50 -11.5q0 43 28 69t71 26q42 0 71 -26.5t29 -69.5q0 -56 -58 -107t-147 -63z" />
    <glyph glyph-name="uni021A" unicode="&#x21a;" horiz-adv-x="672" 
d="M31 680h170v-6q-56 -14 -100 -74q-42 -56 -62 -142h-8v222zM421 680v-621q0 -53 75 -53v-6h-320v6q75 0 75 53v621h170zM471 674v6h170v-222h-8q-20 84 -63 142q-44 61 -99 74zM234 -310l-1 3q87 48 87 126q0 39 -30 53.5t-50 -11.5q0 43 28 69t71 26q42 0 71 -26.5
t29 -69.5q0 -56 -58 -107q-59 -51 -147 -63z" />
    <glyph glyph-name="uni021B" unicode="&#x21b;" horiz-adv-x="412" 
d="M317 26q44 0 95 51v-6q-25 -37 -71 -59t-100 -22q-73 0 -113.5 35.5t-40.5 105.5v328h-52l11 15h41v108q99 0 164 56v-164h135l-11 -15h-124v-331q0 -44 17 -73t49 -29zM209 -44q42 0 71 -26.5t29 -69.5q0 -56 -58 -107q-59 -51 -147 -63l-1 3q87 48 87 126
q0 39 -30 53.5t-50 -11.5q0 43 28 69t71 26z" />
    <glyph glyph-name="uni0237" unicode="&#x237;" horiz-adv-x="337" 
d="M16 466v6q144 0 239 39v-541q0 -111 -67.5 -165.5t-188.5 -54.5v6q43 0 67 25.5t24 69.5v562q0 28 -16.5 40.5t-57.5 12.5z" />
    <glyph glyph-name="circumflex" unicode="&#x2c6;" horiz-adv-x="426" 
d="M406 597l-3 -6q-111 18 -190 86q-74 -64 -190 -86l-3 6q118 85 175 204h36q59 -119 175 -204z" />
    <glyph glyph-name="caron" unicode="&#x2c7;" horiz-adv-x="426" 
d="M403 801l3 -6q-116 -85 -175 -204h-36q-57 119 -175 204l3 6q116 -22 190 -86q79 68 190 86z" />
    <glyph glyph-name="breve" unicode="&#x2d8;" horiz-adv-x="384" 
d="M40 789h6q24 -51 85 -70.5t122 0t85 70.5h6q-8 -81 -50 -127.5t-102 -46.5t-102 46.5t-50 127.5z" />
    <glyph glyph-name="dotaccent" unicode="&#x2d9;" horiz-adv-x="253" 
d="M41 679q0 34 24 55t61 21q38 0 63 -21t25 -55q0 -36 -24.5 -58.5t-62.5 -22.5t-62 22.5t-24 58.5z" />
    <glyph glyph-name="ring" unicode="&#x2da;" horiz-adv-x="286" 
d="M216 606q-30 -29 -73 -29t-73 29q-30 30 -30 73t30 72q30 30 73 30t73 -30q30 -29 30 -72t-30 -73zM202 679q0 26 -17 43.5t-42 17.5t-42 -17.5t-17 -43.5q0 -25 17 -42.5t42 -17.5t42 17.5t17 42.5z" />
    <glyph glyph-name="ogonek" unicode="&#x2db;" horiz-adv-x="300" 
d="M142 -250q-42 0 -71 26.5t-29 69.5q0 54 56 101q57 46 149 69l1 -3q-87 -61 -87 -126q0 -39 30 -53.5t50 11.5q0 -43 -28 -69t-71 -26z" />
    <glyph glyph-name="tilde" unicode="&#x2dc;" horiz-adv-x="453" 
d="M74 574h-6q-28 24 -28 68q0 39 24.5 62t73.5 23q44 0 116 -28q74 -27 99 -27q42 0 42 32q0 13 -16 32h6q28 -24 28 -65q0 -40 -24.5 -64t-73.5 -24q-43 0 -116 27q-72 28 -99 28q-42 0 -42 -32q0 -13 16 -32z" />
    <glyph glyph-name="hungarumlaut" unicode="&#x2dd;" horiz-adv-x="453" 
d="M50 570l-4 5q72 98 115 229l88 -45q-72 -118 -199 -189zM220 570l-4 5q72 98 115 229l88 -45q-72 -118 -199 -189z" />
    <glyph glyph-name="gravecomb" unicode="&#x300;" 
d="M-53 551l-2 -5q-147 55 -218 176l105 60q34 -133 115 -231z" />
    <glyph glyph-name="acutecomb" unicode="&#x301;" 
d="M-251 546l-2 5q81 98 115 231l105 -60q-71 -121 -218 -176z" />
    <glyph glyph-name="uni0302" unicode="&#x302;" 
d="M-20 563l-3 -6q-111 18 -190 86q-74 -64 -190 -86l-3 6q118 85 175 204h36q59 -119 175 -204z" />
    <glyph glyph-name="tildecomb" unicode="&#x303;" 
d="M-359 579h-6q-28 25 -28 68q0 39 24.5 62t73.5 23q44 0 116 -28q73 -27 99 -27q42 0 42 32q0 13 -16 32h6q28 -25 28 -65t-24.5 -64t-73.5 -24q-42 0 -116 27q-72 28 -99 28q-42 0 -42 -32q0 -13 16 -32z" />
    <glyph glyph-name="uni0304" unicode="&#x304;" 
d="M-357 645v35h317v-35h-317z" />
    <glyph glyph-name="uni0306" unicode="&#x306;" 
d="M-344 768h6q24 -51 85 -70.5t122 0t85 70.5h6q-8 -81 -50 -127.5t-102 -46.5t-102 46.5t-50 127.5z" />
    <glyph glyph-name="uni0307" unicode="&#x307;" 
d="M-204 660q0 39 28.5 63t73.5 24t73.5 -24t28.5 -63q0 -40 -28.5 -64t-73.5 -24t-73.5 24t-28.5 64z" />
    <glyph glyph-name="uni0308" unicode="&#x308;" 
d="M-474 660q0 34 24 55t61 21q38 0 63 -21t25 -55q0 -36 -24.5 -58.5t-62.5 -22.5t-62 22.5t-24 58.5zM-211 660q0 34 24 55t62 21t61.5 -21t23.5 -55q0 -37 -23.5 -59t-61.5 -22t-62 22.5t-24 58.5z" />
    <glyph glyph-name="uni030A" unicode="&#x30a;" 
d="M-70 586q-30 -29 -73 -29t-73 29q-30 30 -30 73t30 72q30 30 73 30t73 -30q30 -29 30 -72t-30 -73zM-84 659q0 26 -17 43.5t-42 17.5t-42 -17.5t-17 -43.5q0 -25 17 -42.5t42 -17.5t42 17.5t17 42.5z" />
    <glyph glyph-name="uni030B" unicode="&#x30b;" 
d="M-403 547l-4 5q72 98 115 229l88 -45q-72 -118 -199 -189zM-233 547l-4 5q72 98 115 229l88 -45q-72 -118 -199 -189z" />
    <glyph glyph-name="uni030C" unicode="&#x30c;" 
d="M-23 774l3 -6q-116 -85 -175 -204h-36q-57 119 -175 204l3 6q116 -22 190 -86q79 68 190 86z" />
    <glyph glyph-name="uni0326" unicode="&#x326;" 
d="M-245 -310l-1 3q87 48 87 126q0 39 -30 53.5t-50 -11.5q0 43 28 69t71 26q42 0 71 -26.5t29 -69.5q0 -56 -58 -107t-147 -63z" />
    <glyph glyph-name="uni0327" unicode="&#x327;" 
d="M-179 -280q-35 0 -68.5 15.5t-51.5 41.5l7 4q31 -28 71 -28q31 0 52 21t21 53q0 34 -31 56q-32 21 -70 21l86 93h21l-51 -58q70 2 111.5 -25t41.5 -77q0 -51 -41 -84q-42 -33 -98 -33z" />
    <glyph glyph-name="uni0328" unicode="&#x328;" 
d="M-158 -250q-42 0 -71 26.5t-29 69.5q0 54 57 101q55 46 148 69l1 -3q-87 -61 -87 -126q0 -39 30 -53.5t50 11.5q0 -43 -28 -69t-71 -26z" />
    <glyph glyph-name="uni0335" unicode="&#x335;" 
d="M-10 364h-338v15h338v-15z" />
    <glyph glyph-name="uni0336" unicode="&#x336;" 
d="M1 483h-761v25h761v-25z" />
    <glyph glyph-name="uni0337" unicode="&#x337;" 
d="M-50 449l-311 -208v24l311 208v-24z" />
    <glyph glyph-name="uni0338" unicode="&#x338;" 
d="M-506 -10h-31l506 520h31z" />
    <glyph glyph-name="Wgrave" unicode="&#x1e80;" horiz-adv-x="1037" 
d="M673 735v-5q-158 16 -256 114l86 85q69 -122 170 -194zM322 680v-6q-37 0 -53 -22.5t-1 -59.5l149 -366l-92 -236h-11l-253 632q-12 29 -32.5 40.5t-57.5 11.5v6h351zM721 680v-6q-37 0 -53 -22.5t-1 -59.5l149 -366l-92 -236h-11l-195 487l-68 -168l-4 9q52 138 52 191
q0 15 -6 34l-32 79q-12 29 -32.5 40.5t-57.5 11.5v6h351zM793 674v6h266v-4q-63 0 -106 -111l-104 -256l-4 9q19 50 28 102q8 45 10 76q2 34 2 69q0 52 -25 80.5t-67 28.5z" />
    <glyph glyph-name="wgrave" unicode="&#x1e81;" horiz-adv-x="900" 
d="M560 551l-2 -5q-147 55 -218 176l105 60q34 -133 115 -231zM272 500v-6q-26 0 -35.5 -16.5t3.5 -42.5l131 -273l-86 -162h-6l-232 459q-17 35 -55 35v6h280zM601 500v-6q-26 0 -35.5 -16.5t3.5 -42.5l131 -273l-86 -162h-6l-157 311l-32 -60l-6 9q12 25 14.5 57t-6.5 54
l-45 88q-17 35 -55 35v6h280zM668 494v6h249v-6q-23 0 -36.5 -10t-28.5 -37l-104 -196l-6 9q28 52 28 129q0 47 -26.5 76t-75.5 29z" />
    <glyph glyph-name="Wacute" unicode="&#x1e82;" horiz-adv-x="1037" 
d="M587 929l86 -85q-98 -98 -256 -114v5q101 72 170 194zM322 680v-6q-37 0 -53 -22.5t-1 -59.5l149 -366l-92 -236h-11l-253 632q-12 29 -32.5 40.5t-57.5 11.5v6h351zM721 680v-6q-37 0 -53 -22.5t-1 -59.5l149 -366l-92 -236h-11l-195 487l-68 -168l-4 9q52 138 52 191
q0 15 -6 34l-32 79q-12 29 -32.5 40.5t-57.5 11.5v6h351zM793 674v6h266v-4q-63 0 -106 -111l-104 -256l-4 9q19 50 28 102q8 45 10 76q2 34 2 69q0 52 -25 80.5t-67 28.5z" />
    <glyph glyph-name="wacute" unicode="&#x1e83;" horiz-adv-x="900" 
d="M455 782l105 -60q-71 -121 -218 -176l-2 5q81 98 115 231zM272 500v-6q-26 0 -35.5 -16.5t3.5 -42.5l131 -273l-86 -162h-6l-232 459q-17 35 -55 35v6h280zM601 500v-6q-26 0 -35.5 -16.5t3.5 -42.5l131 -273l-86 -162h-6l-157 311l-32 -60l-6 9q12 25 14.5 57t-6.5 54
l-45 88q-17 35 -55 35v6h280zM668 494v6h249v-6q-23 0 -36.5 -10t-28.5 -37l-104 -196l-6 9q28 52 28 129q0 47 -26.5 76t-75.5 29z" />
    <glyph glyph-name="Wdieresis" unicode="&#x1e84;" horiz-adv-x="1037" 
d="M328 828q0 34 24 55t61 21q38 0 63 -21t25 -55q0 -36 -24.5 -58.5t-62.5 -22.5t-62 22.5t-24 58.5zM591 828q0 34 24 55t62 21t61.5 -21t23.5 -55q0 -37 -23.5 -59t-61.5 -22t-62 22.5t-24 58.5zM322 680v-6q-37 0 -53 -22.5t-1 -59.5l149 -366l-92 -236h-11l-253 632
q-12 29 -32.5 40.5t-57.5 11.5v6h351zM721 680v-6q-37 0 -53 -22.5t-1 -59.5l149 -366l-92 -236h-11l-195 487l-68 -168l-4 9q52 138 52 191q0 15 -6 34l-32 79q-12 29 -32.5 40.5t-57.5 11.5v6h351zM793 674v6h266v-4q-63 0 -106 -111l-104 -256l-4 9q19 50 28 102
q8 45 10 76q2 34 2 69q0 52 -25 80.5t-67 28.5z" />
    <glyph glyph-name="wdieresis" unicode="&#x1e85;" horiz-adv-x="900" 
d="M233 660q0 34 24 55t61 21q38 0 63 -21t25 -55q0 -36 -24.5 -58.5t-62.5 -22.5t-62 22.5t-24 58.5zM496 660q0 34 24 55t62 21t61.5 -21t23.5 -55q0 -37 -23.5 -59t-61.5 -22t-62 22.5t-24 58.5zM272 500v-6q-26 0 -35.5 -16.5t3.5 -42.5l131 -273l-86 -162h-6l-232 459
q-17 35 -55 35v6h280zM601 500v-6q-26 0 -35.5 -16.5t3.5 -42.5l131 -273l-86 -162h-6l-157 311l-32 -60l-6 9q12 25 14.5 57t-6.5 54l-45 88q-17 35 -55 35v6h280zM668 494v6h249v-6q-23 0 -36.5 -10t-28.5 -37l-104 -196l-6 9q28 52 28 129q0 47 -26.5 76t-75.5 29z" />
    <glyph glyph-name="uni1E9E" unicode="&#x1e9e;" horiz-adv-x="875" 
d="M531 563q0 -11 2.5 -22t6 -20t11.5 -19t13 -17t17.5 -17t18.5 -14.5t22 -15t21.5 -14t24 -14.5t23.5 -14q75 -42 118 -87.5t43 -113.5q0 -88 -61 -143.5t-163 -61.5v6q101 20 101 102q0 87 -114 156q-5 3 -30.5 19t-33 21t-30 20.5t-31.5 24t-26 24.5t-24.5 28.5
t-17 29.5t-12.5 34.5t-3 36.5q0 79 67 128q67 50 175 64h-94q-147 0 -215.5 -63t-68.5 -198v-423h-245v6q75 0 75 51v331q0 157 108 229.5t345 72.5h152v-6q-79 -8 -127 -41.5t-48 -79.5zM393 234h7q24 -94 73 -155.5t112 -82.5v-6q-88 6 -156 50l-29 -50h-7v244z" />
    <glyph glyph-name="Ygrave" unicode="&#x1ef2;" horiz-adv-x="690" 
d="M468 735v-5q-158 16 -256 114l86 85q69 -122 170 -194zM434 291v-234q0 -51 75 -51v-6h-320v6q75 0 75 51v183l-197 385q-13 26 -28.5 37.5t-41.5 11.5v6h313v-6q-46 0 -46 -35q0 -17 33 -81q11 -22 45 -87zM406 674v6h293v-6q-39 0 -67 -48l-149 -259l-4 7q21 40 31 64
q27 58 27 121q0 51 -40 82q-41 33 -91 33z" />
    <glyph glyph-name="ygrave" unicode="&#x1ef3;" horiz-adv-x="571" 
d="M396 551l-2 -5q-147 55 -218 176l105 60q34 -133 115 -231zM288 0h-6l-232 459q-17 35 -55 35v6h280v-6q-26 0 -35.5 -16.5t3.5 -42.5l131 -273zM526 447l-104 -196l-6 9q28 52 28 129q0 47 -26.5 76t-75.5 29v6h249v-6q-24 0 -37 -9.5t-28 -37.5zM94 -250
q-41 0 -64.5 24.5t-23.5 64.5q0 32 23.5 57.5t64.5 36.5q-4 -11 -4 -25q-1 -30 15.5 -48.5t43.5 -18.5q24 0 46.5 23t54.5 78h7l-35 -66q-22 -42 -33 -56q-20 -33 -34 -43q-32 -27 -61 -27z" />
    <glyph glyph-name="uni1EF8" unicode="&#x1ef8;" horiz-adv-x="690" 
d="M187 744h-6q-28 24 -28 68q0 39 24.5 62t73.5 23q44 0 116 -28q73 -27 99 -27q42 0 42 32q0 13 -16 32h6q28 -24 28 -65q0 -40 -24.5 -64t-73.5 -24q-42 0 -116 27q-72 28 -99 28q-42 0 -42 -32q0 -13 16 -32zM434 291v-234q0 -51 75 -51v-6h-320v6q75 0 75 51v183
l-197 385q-13 26 -28.5 37.5t-41.5 11.5v6h313v-6q-46 0 -46 -35q0 -17 33 -81q11 -22 45 -87zM406 674v6h293v-6q-39 0 -67 -48l-149 -259l-4 7q21 40 31 64q27 58 27 121q0 51 -40 82q-41 33 -91 33z" />
    <glyph glyph-name="uni1EF9" unicode="&#x1ef9;" horiz-adv-x="571" 
d="M133 579h-6q-28 25 -28 68q0 39 24.5 62t73.5 23q44 0 116 -28q73 -27 99 -27q42 0 42 32q0 13 -16 32h6q28 -25 28 -65t-24.5 -64t-73.5 -24q-42 0 -116 27q-72 28 -99 28q-42 0 -42 -32q0 -13 16 -32zM288 0h-6l-232 459q-17 35 -55 35v6h280v-6q-26 0 -35.5 -16.5
t3.5 -42.5l131 -273zM526 447l-104 -196l-6 9q28 52 28 129q0 47 -26.5 76t-75.5 29v6h249v-6q-24 0 -37 -9.5t-28 -37.5zM94 -250q-41 0 -64.5 24.5t-23.5 64.5q0 32 23.5 57.5t64.5 36.5q-4 -11 -4 -25q-1 -30 15.5 -48.5t43.5 -18.5q24 0 46.5 23t54.5 78h7l-35 -66
q-22 -42 -33 -56q-20 -33 -34 -43q-32 -27 -61 -27z" />
    <glyph glyph-name="endash" unicode="&#x2013;" horiz-adv-x="797" 
d="M730 277h-663v25h663v-25z" />
    <glyph glyph-name="emdash" unicode="&#x2014;" horiz-adv-x="952" 
d="M885 277h-818v25h818v-25z" />
    <glyph glyph-name="quoteleft" unicode="&#x2018;" horiz-adv-x="265" 
d="M125 472q-35 0 -58 24t-23 63q0 45 44 95q45 51 118 81l3 -9q-57 -45 -57 -97q0 -31 18.5 -48t49.5 -18q-6 -44 -31 -67.5t-64 -23.5z" />
    <glyph glyph-name="quoteright" unicode="&#x2019;" horiz-adv-x="267" 
d="M149 735q35 0 58 -24t23 -63q0 -45 -45 -96q-44 -50 -117 -80l-3 9q57 45 57 97q0 31 -18.5 48t-49.5 18q6 44 31 67.5t64 23.5z" />
    <glyph glyph-name="quotesinglbase" unicode="&#x201a;" horiz-adv-x="281" 
d="M144 156q35 0 58 -24t23 -63q0 -46 -45 -95q-44 -51 -117 -81l-3 9q57 45 57 97q0 31 -18.5 48t-49.5 18q6 44 31 67.5t64 23.5z" />
    <glyph glyph-name="quotedblleft" unicode="&#x201c;" horiz-adv-x="486" 
d="M125 472q-35 0 -58 24t-23 63q0 45 44 95q45 51 118 81l3 -9q-57 -45 -57 -97q0 -31 18.5 -48t49.5 -18q-6 -44 -31 -67.5t-64 -23.5zM346 472q-35 0 -58 24t-23 63q0 45 44 95q45 51 118 81l3 -9q-57 -45 -57 -97q0 -31 18.5 -48t49.5 -18q-6 -44 -31 -67.5t-64 -23.5z
" />
    <glyph glyph-name="quotedblright" unicode="&#x201d;" horiz-adv-x="488" 
d="M149 735q35 0 58 -24t23 -63q0 -45 -45 -96q-44 -50 -117 -80l-3 9q57 45 57 97q0 31 -18.5 48t-49.5 18q6 44 31 67.5t64 23.5zM370 735q35 0 58 -24t23 -63q0 -45 -45 -96q-44 -50 -117 -80l-3 9q57 45 57 97q0 31 -18.5 48t-49.5 18q6 44 31 67.5t64 23.5z" />
    <glyph glyph-name="quotedblbase" unicode="&#x201e;" horiz-adv-x="503" 
d="M146 93q35 0 58 -24t23 -63q0 -46 -45 -95q-44 -51 -117 -81l-3 9q57 45 57 97q0 31 -18.5 48t-49.5 18q6 44 31 67.5t64 23.5zM367 93q35 0 58 -24t23 -63q0 -46 -45 -95q-43 -51 -117 -81l-3 9q57 45 57 97q0 31 -18.5 48t-49.5 18q6 44 31 67.5t64 23.5z" />
    <glyph glyph-name="dagger" unicode="&#x2020;" horiz-adv-x="600" 
d="M305 559h-10q-3 36 -37 79q-34 44 -34 66q0 35 21.5 57.5t55.5 22.5t55.5 -22.5t21.5 -57.5q0 -21 -36 -66t-37 -79zM127 449q-35 0 -57.5 21.5t-22.5 55.5t22.5 55.5t57.5 21.5q22 0 65 -34q44 -34 80 -37v-10q-34 -1 -80 -38q-44 -35 -65 -35zM473 449q-20 0 -66 35
q-44 36 -79 38v10q36 3 79 37q44 34 66 34q35 0 57.5 -21.5t22.5 -55.5t-22.5 -55.5t-57.5 -21.5zM305 -130h-10q-2 109 -13 194t-25 121q-4 11 -11.5 31t-11.5 30.5t-7 23t-3 19.5q-1 21 16 49t35.5 68t19.5 88h10q0 -48 19 -86.5t37 -67t17 -51.5q0 -19 -36 -104
q-14 -37 -25 -122.5t-12 -192.5z" />
    <glyph glyph-name="daggerdbl" unicode="&#x2021;" horiz-adv-x="600" 
d="M305 559h-10q-3 36 -37 79q-34 44 -34 66q0 35 21.5 57.5t55.5 22.5t55.5 -22.5t21.5 -57.5q0 -21 -36 -66t-37 -79zM127 449q-35 0 -57.5 21.5t-22.5 55.5t22.5 55.5t57.5 21.5q22 0 65 -34q44 -34 80 -37v-10q-34 -1 -80 -38q-44 -35 -65 -35zM473 449q-20 0 -66 35
q-44 36 -79 38v10q36 3 79 37q44 34 66 34q35 0 57.5 -21.5t22.5 -55.5t-22.5 -55.5t-57.5 -21.5zM305 160h-10q-4 67 -38 97q-33 31 -33 70t33 70q34 30 38 97h10q1 -36 13 -60t25 -34.5t24 -29t11 -43.5t-11 -43.5t-24 -29t-25 -34.5t-13 -60zM127 51q-35 0 -57.5 21.5
t-22.5 55.5t22.5 55.5t57.5 21.5q21 0 65 -36q46 -36 80 -37v-10q-36 -3 -80 -37q-43 -34 -65 -34zM473 51q-22 0 -66 34q-43 34 -79 37v10q34 1 79 37t66 36q35 0 57.5 -21.5t22.5 -55.5t-22.5 -55.5t-57.5 -21.5zM224 -50q0 22 34 65q34 44 37 80h10q1 -34 37 -80
q36 -44 36 -65q0 -35 -21.5 -57.5t-55.5 -22.5t-55.5 22.5t-21.5 57.5z" />
    <glyph glyph-name="bullet" unicode="&#x2022;" horiz-adv-x="497" 
d="M248 146q-77 0 -127 44q-49 45 -49 117q0 71 49 114t127 43q79 0 128 -43t49 -114q0 -72 -49.5 -116.5t-127.5 -44.5z" />
    <glyph glyph-name="ellipsis" unicode="&#x2026;" horiz-adv-x="879" 
d="M159 -10q-48 0 -77.5 27t-29.5 71q0 43 30 69.5t77 26.5q48 0 78 -26.5t30 -69.5q0 -44 -30 -71t-78 -27zM439 -10q-48 0 -77.5 27t-29.5 71q0 43 30 69.5t77 26.5q48 0 78 -26.5t30 -69.5q0 -44 -30 -71t-78 -27zM719 -10q-48 0 -77.5 27t-29.5 71q0 43 30 69.5t77 26.5
q48 0 78 -26.5t30 -69.5q0 -44 -30 -71t-78 -27z" />
    <glyph glyph-name="perthousand" unicode="&#x2030;" horiz-adv-x="1116" 
d="M142 -30h-28l488 740h28zM272 387q-38 -45 -99 -45t-100 45q-38 46 -38 129t38 129q39 45 100 45t99 -45q38 -46 38 -129t-38 -129zM173 349q29 0 42 34q14 36 14 133q0 96 -14 132q-14 35 -42 35q-29 0 -43 -35q-14 -36 -14 -132q0 -97 14 -133q13 -34 43 -34zM678 35
q-38 -45 -99 -45t-100 45q-38 46 -38 129t38 129q39 45 100 45t99 -45q38 -46 38 -129t-38 -129zM1046 35q-38 -45 -99 -45t-100 45q-38 46 -38 129t38 129q39 45 100 45t99 -45q38 -46 38 -129t-38 -129zM579 -3q29 0 42 34q14 36 14 133q0 96 -14 132q-14 35 -42 35
q-29 0 -43 -35q-14 -36 -14 -132q0 -97 14 -133q13 -34 43 -34zM947 -3q29 0 42 34q14 36 14 133q0 96 -14 132q-14 35 -42 35q-29 0 -43 -35q-14 -36 -14 -132q0 -97 14 -133q13 -34 43 -34z" />
    <glyph glyph-name="guilsinglleft" unicode="&#x2039;" horiz-adv-x="346" 
d="M280 452l10 -5q-30 -110 -113 -201q81 -88 113 -201l-10 -5q-116 123 -245 196v20q129 73 245 196z" />
    <glyph glyph-name="guilsinglright" unicode="&#x203a;" horiz-adv-x="346" 
d="M56 447l10 5q116 -123 245 -196v-20q-129 -73 -245 -196l-10 5q32 113 113 201q-83 91 -113 201z" />
    <glyph glyph-name="fraction" unicode="&#x2044;" horiz-adv-x="496" 
d="M18 -30h-28l488 740h28z" />
    <glyph glyph-name="Euro" unicode="&#x20ac;" horiz-adv-x="671" 
d="M494 10q74 0 128 30l4 -8q-68 -42 -171 -42q-66 0 -134 27q-65 27 -123 89q-57 63 -75 150h-88v25h84q-9 58 0 116h-84v25h88q18 88 75 149q106 117 257 117q103 0 171 -42l-4 -8q-54 30 -128 30q-67 0 -115.5 -65.5t-62.5 -180.5h230l-11 -25h-222q-2 -48 -2 -58t2 -58
h233l-11 -25h-219q14 -115 62.5 -180.5t115.5 -65.5z" />
    <glyph glyph-name="trademark" unicode="&#x2122;" horiz-adv-x="916" 
d="M50 680h282v-79h-18q0 39 -15 50q-13 10 -68 10v-225q0 -21 8.5 -30.5t30.5 -9.5v-19h-160v19q22 0 31 9.5t9 30.5v225q-55 0 -68 -10q-14 -11 -14 -50h-18v79zM848 680v-19q-43 0 -43 -30v-195q0 -22 9 -31t34 -9v-19h-164v19q23 0 31.5 9t8.5 31v190l-135 -254h-9
l-130 248v-184q0 -22 10 -31t36 -9v-19h-122v19q26 0 36 9t10 31v218q-14 7 -46 7v19h137l104 -199l109 199h124z" />
    <glyph glyph-name="minus" unicode="&#x2212;" horiz-adv-x="570" 
d="M500 277h-430v25h430v-25z" />
    <glyph glyph-name="approxequal" unicode="&#x2248;" horiz-adv-x="573" 
d="M478 444h25q0 -55 -30.5 -86.5t-82.5 -31.5q-31 -2 -107 53t-99 53q-87 0 -87 -94h-25q0 56 29.5 87.5t82.5 31.5q31 2 107 -53t99 -53q41 0 64.5 24.5t23.5 68.5zM478 245h25q0 -55 -30.5 -86.5t-82.5 -31.5q-31 -2 -107 53t-99 53q-87 0 -87 -94h-25q0 56 29.5 87.5
t82.5 31.5q31 2 107 -53t99 -53q41 0 64.5 24.5t23.5 68.5z" />
    <glyph glyph-name="notequal" unicode="&#x2260;" horiz-adv-x="570" 
d="M500 371v-25h-162l-77 -131h239v-25h-254l-72 -121l-19 14l63 107h-148v25h163l77 131h-240v25h255l70 118l20 -14l-62 -104h147z" />
    <glyph glyph-name="uniF8FF" unicode="&#xf8ff;" horiz-adv-x="1451" 
d="M691 583q0 26 17.5 44t43.5 18t44 -18t18 -44t-18 -43.5t-44 -17.5t-43.5 18t-17.5 43zM219 270h-119q0 134 9 314h100q10 -190 10 -314zM812 270h-118q0 92 3 147h-61l3 -65q4 -4 15 -4q13 0 18 5v-74q-14 -15 -68 -15q-82 0 -82 66q0 4 0.5 10t1 17.5t0.5 21.5
q0 11 0.5 20.5t1.5 13.5v4h-22v79l119 30l1 -17h178q10 -61 10 -239zM328 265q-92 0 -92 114q0 135 134 135q124 0 124 -117v-127h-83l-8 61q-12 -66 -75 -66zM1087 408l3 -138h-114q0 36 1 56t1 37q0 29 -15 29q-18 0 -18 -29q0 -17 1 -37q2 -40 2 -56h-114q0 178 10 239
h80q6 -43 6 -76q2 15 6 30q6 18 26.5 34.5t47.5 16.5q41 0 58 -24t19 -82zM1351 391q0 -126 -123 -126q-122 0 -122 124q0 125 124 125q121 0 121 -123zM390 375q0 26 -24 26q-22 0 -22 -26q0 -30 22 -30q24 0 24 30zM1251 375q0 26 -23 26q-21 0 -21 -26q0 -30 21 -30
q23 0 23 30zM428 119v119h104q10 -50 10 -138q0 -82 -34 -116t-118 -34q-60 0 -88 17v83q23 -16 70 -16q20 0 33.5 6t17 11.5t3.5 10.5q-17 -11 -49 -11q-90 0 -90 83v13h-55l3 -65q5 -4 15 -4q13 0 18 5v-73q-20 -15 -68 -15q-44 0 -62.5 17t-18.5 54q0 39 3 81h-18v80
l117 29l-1 -18h177v-119q0 -16 3 -21.5t12 -5.5q16 0 16 27zM733 243q37 0 58.5 -29.5t21.5 -83.5q0 -135 -137 -135q1 -10 1 -39h-119q0 149 10 282h78q7 -39 7 -76q17 81 80 81zM1070 127q0 -21 -3 -35h-124q11 -18 50 -18q34 0 55 12v-75q-22 -16 -78 -16
q-141 0 -141 122q0 60 32.5 93t92.5 33q55 0 85.5 -30t30.5 -86zM938 109h40q3 27 -17 27q-23 0 -23 -27zM670 72q5 0 12.5 2.5t16 11.5t8.5 23q0 23 -20 23q-22 0 -22 -31q0 -12 5 -29zM1098 36q24 0 24 -23t-24 -23t-24 23t24 23zM1098 -5q18 0 18 18t-18 18t-18 -18
t18 -18zM1108 2h-6l-4 9h-5v-9h-5v23h11q9 0 9.5 -7t-6.5 -7zM1100 15q6 0 3 4q-1 2 -3 2h-7v-6h7z" />
    <glyph glyph-name="NULL" 
 />
    <glyph glyph-name="CR" horiz-adv-x="333" 
 />
    <glyph glyph-name="Q.ss01" horiz-adv-x="818" 
d="M384 -4v-6q-115 0 -222 91q-52 44 -83 114.5t-31 150.5q0 79 30.5 146.5t82.5 109.5q105 88 223 88v-6q-140 -15 -140 -338q0 -120 20 -202q20 -75 49 -108.5t71 -39.5zM434 -10v6q39 4 69 37q32 34 51.5 115t19.5 198q0 323 -140 338v6q118 0 223 -88
q52 -42 82.5 -109.5t30.5 -146.5q0 -80 -31 -150.5t-83 -114.5q-107 -91 -222 -91zM645 -279q-42 0 -78 18.5t-61.5 44.5t-49.5 52t-51.5 44.5t-57.5 18.5q-47 0 -47 -33q0 -24 28 -31q0 -10 -10 -16.5t-24 -6.5q-23 0 -38 16.5t-15 42.5q0 40 34 65t93 25q51 2 120.5 -27.5
t126.5 -59t80 -27.5q81 0 104 56l6 -2q1 -5 1 -22q0 -71 -47 -115q-46 -43 -114 -43z" />
    <glyph glyph-name="i.loclTRK" horiz-adv-x="358" 
d="M77 660q0 39 28.5 63t73.5 24t73.5 -24t28.5 -63q0 -40 -28.5 -64t-73.5 -24t-73.5 24t-28.5 64zM26 466v6q144 0 239 39v-454q0 -51 75 -51v-6h-315v6q75 0 75 51v356q0 28 -16.5 40.5t-57.5 12.5z" />
    <glyph glyph-name="a.ss01" horiz-adv-x="658" 
d="M228 510q46 0 86 -24t52 -56v-8q-28 37 -72 37q-31 0 -52 -34q-26 -41 -26 -170q0 -213 78 -213q40 0 72 35v-6q-12 -34 -51 -57.5t-87 -23.5q-34 0 -64 12.5t-58 41t-44 82.5t-16 129q0 136 53 195q54 60 129 60zM561 510v-443q0 -41 27 -41q24 0 48 45h6
q-12 -39 -47 -60t-83 -21q-62 0 -89 26t-27 87v368q72 5 165 39z" />
    <glyph glyph-name="aacute.ss01" horiz-adv-x="658" 
d="M221 546l-2 5q81 98 115 231l105 -60q-71 -121 -218 -176zM228 510q46 0 86 -24t52 -56v-8q-28 37 -72 37q-31 0 -52 -34q-26 -41 -26 -170q0 -213 78 -213q40 0 72 35v-6q-12 -34 -51 -57.5t-87 -23.5q-34 0 -64 12.5t-58 41t-44 82.5t-16 129q0 136 53 195
q54 60 129 60zM561 510v-443q0 -41 27 -41q24 0 48 45h6q-12 -39 -47 -60t-83 -21q-62 0 -89 26t-27 87v368q72 5 165 39z" />
    <glyph glyph-name="abreve.ss01" horiz-adv-x="658" 
d="M177 768h6q24 -51 85 -70.5t122 0t85 70.5h6q-8 -81 -50 -127.5t-102 -46.5t-102 46.5t-50 127.5zM228 510q46 0 86 -24t52 -56v-8q-28 37 -72 37q-31 0 -52 -34q-26 -41 -26 -170q0 -213 78 -213q40 0 72 35v-6q-12 -34 -51 -57.5t-87 -23.5q-34 0 -64 12.5t-58 41
t-44 82.5t-16 129q0 136 53 195q54 60 129 60zM561 510v-443q0 -41 27 -41q24 0 48 45h6q-12 -39 -47 -60t-83 -21q-62 0 -89 26t-27 87v368q72 5 165 39z" />
    <glyph glyph-name="acircumflex.ss01" horiz-adv-x="658" 
d="M327 643q-74 -64 -190 -86l-3 6q118 85 175 204h36q59 -119 175 -204l-3 -6q-111 18 -190 86zM228 510q46 0 86 -24t52 -56v-8q-28 37 -72 37q-31 0 -52 -34q-26 -41 -26 -170q0 -213 78 -213q40 0 72 35v-6q-12 -34 -51 -57.5t-87 -23.5q-34 0 -64 12.5t-58 41t-44 82.5
t-16 129q0 136 53 195q54 60 129 60zM636 71h6q-12 -39 -47 -60t-83 -21q-62 0 -89 26t-27 87v368q72 5 165 39v-443q0 -41 27 -41q24 0 48 45z" />
    <glyph glyph-name="adieresis.ss01" horiz-adv-x="658" 
d="M112 660q0 34 24 55t61 21q38 0 63 -21t25 -55q0 -36 -24.5 -58.5t-62.5 -22.5t-62 22.5t-24 58.5zM375 660q0 34 24 55t62 21t61.5 -21t23.5 -55q0 -37 -23.5 -59t-61.5 -22t-62 22.5t-24 58.5zM228 510q46 0 86 -24t52 -56v-8q-28 37 -72 37q-31 0 -52 -34
q-26 -41 -26 -170q0 -213 78 -213q40 0 72 35v-6q-12 -34 -51 -57.5t-87 -23.5q-34 0 -64 12.5t-58 41t-44 82.5t-16 129q0 136 53 195q54 60 129 60zM561 510v-443q0 -41 27 -41q24 0 48 45h6q-12 -39 -47 -60t-83 -21q-62 0 -89 26t-27 87v368q72 5 165 39z" />
    <glyph glyph-name="agrave.ss01" horiz-adv-x="658" 
d="M439 551l-2 -5q-147 55 -218 176l105 60q34 -133 115 -231zM228 510q46 0 86 -24t52 -56v-8q-28 37 -72 37q-31 0 -52 -34q-26 -41 -26 -170q0 -213 78 -213q40 0 72 35v-6q-12 -34 -51 -57.5t-87 -23.5q-34 0 -64 12.5t-58 41t-44 82.5t-16 129q0 136 53 195
q54 60 129 60zM561 510v-443q0 -41 27 -41q24 0 48 45h6q-12 -39 -47 -60t-83 -21q-62 0 -89 26t-27 87v368q72 5 165 39z" />
    <glyph glyph-name="amacron.ss01" horiz-adv-x="658" 
d="M170 645v35h317v-35h-317zM228 510q46 0 86 -24t52 -56v-8q-28 37 -72 37q-31 0 -52 -34q-26 -41 -26 -170q0 -213 78 -213q40 0 72 35v-6q-12 -34 -51 -57.5t-87 -23.5q-34 0 -64 12.5t-58 41t-44 82.5t-16 129q0 136 53 195q54 60 129 60zM561 510v-443q0 -41 27 -41
q24 0 48 45h6q-12 -39 -47 -60t-83 -21q-62 0 -89 26t-27 87v368q72 5 165 39z" />
    <glyph glyph-name="aogonek.ss01" horiz-adv-x="658" 
d="M228 510q46 0 86 -24t52 -56v-8q-28 37 -72 37q-31 0 -52 -34q-26 -41 -26 -170q0 -213 78 -213q40 0 72 35v-6q-12 -34 -51 -57.5t-87 -23.5q-34 0 -64 12.5t-58 41t-44 82.5t-16 129q0 136 53 195q54 60 129 60zM594 10q-83 -62 -83 -123q0 -39 30 -53.5t50 11.5
q0 -43 -28 -69t-71 -26q-42 0 -71 26.5t-29 69.5q0 41 34 79.5t93 64.5h-7q-62 0 -89 26t-27 87v368q72 5 165 39v-443q0 -41 27 -41q24 0 48 45h6q-10 -38 -48 -61z" />
    <glyph glyph-name="aring.ss01" horiz-adv-x="658" 
d="M402 586q-30 -29 -73 -29t-73 29q-30 30 -30 73t30 72q30 30 73 30t73 -30q30 -29 30 -72t-30 -73zM388 659q0 26 -17 43.5t-42 17.5t-42 -17.5t-17 -43.5q0 -25 17 -42.5t42 -17.5t42 17.5t17 42.5zM228 510q46 0 86 -24t52 -56v-8q-28 37 -72 37q-31 0 -52 -34
q-26 -41 -26 -170q0 -213 78 -213q40 0 72 35v-6q-12 -34 -51 -57.5t-87 -23.5q-34 0 -64 12.5t-58 41t-44 82.5t-16 129q0 136 53 195q54 60 129 60zM561 510v-443q0 -41 27 -41q24 0 48 45h6q-12 -39 -47 -60t-83 -21q-62 0 -89 26t-27 87v368q72 5 165 39z" />
    <glyph glyph-name="atilde.ss01" horiz-adv-x="658" 
d="M176 579h-6q-28 25 -28 68q0 39 24.5 62t73.5 23q44 0 116 -28q74 -27 99 -27q42 0 42 32q0 13 -16 32h6q28 -25 28 -65t-24.5 -64t-73.5 -24q-43 0 -116 27q-72 28 -99 28q-42 0 -42 -32q0 -13 16 -32zM228 510q46 0 86 -24t52 -56v-8q-28 37 -72 37q-31 0 -52 -34
q-26 -41 -26 -170q0 -213 78 -213q40 0 72 35v-6q-12 -34 -51 -57.5t-87 -23.5q-34 0 -64 12.5t-58 41t-44 82.5t-16 129q0 136 53 195q54 60 129 60zM561 510v-443q0 -41 27 -41q24 0 48 45h6q-12 -39 -47 -60t-83 -21q-62 0 -89 26t-27 87v368q72 5 165 39z" />
    <glyph glyph-name="e.ss01" horiz-adv-x="562" 
d="M300 -10q-102 0 -181 71q-77 72 -77 192q0 119 75 187q74 68 171 70v-6q-45 -4 -60 -55q-15 -49 -15 -192q0 -104 42 -164t111 -60q79 0 147 53v-6q-37 -46 -97 -68q-59 -22 -116 -22zM273 252v6q51 4 86 47t35 100q0 41 -17 68t-49 31v6q82 0 138 -35q57 -35 57 -97
q0 -42 -40 -72q-72 -54 -210 -54z" />
    <glyph glyph-name="eacute.ss01" horiz-adv-x="562" 
d="M201 546l-2 5q81 98 115 231l105 -60q-71 -121 -218 -176zM300 -10q-102 0 -181 71q-77 72 -77 192q0 119 75 187q74 68 171 70v-6q-45 -4 -60 -55q-15 -49 -15 -192q0 -104 42 -164t111 -60q79 0 147 53v-6q-37 -46 -97 -68q-59 -22 -116 -22zM273 252v6q51 4 86 47
t35 100q0 41 -17 68t-49 31v6q82 0 138 -35q57 -35 57 -97q0 -42 -40 -72q-72 -54 -210 -54z" />
    <glyph glyph-name="ecaron.ss01" horiz-adv-x="562" 
d="M327 564h-36q-57 119 -175 204l3 6q116 -22 190 -86q79 68 190 86l3 -6q-116 -85 -175 -204zM213 257q0 -104 42 -164t111 -60q79 0 147 53v-6q-37 -46 -97 -68q-59 -22 -116 -22q-102 0 -181 71q-77 72 -77 192q0 119 75 187q74 68 171 70v-6q-45 -4 -60 -55
q-15 -49 -15 -192zM273 252v6q51 4 86 47t35 100q0 41 -17 68t-49 31v6q82 0 138 -35q57 -35 57 -97q0 -42 -40 -72q-72 -54 -210 -54z" />
    <glyph glyph-name="ecircumflex.ss01" horiz-adv-x="562" 
d="M307 643q-74 -64 -190 -86l-3 6q118 85 175 204h36q59 -119 175 -204l-3 -6q-111 18 -190 86zM213 257q0 -104 42 -164t111 -60q79 0 147 53v-6q-37 -46 -97 -68q-59 -22 -116 -22q-102 0 -181 71q-77 72 -77 192q0 119 75 187q74 68 171 70v-6q-45 -4 -60 -55
q-15 -49 -15 -192zM273 252v6q51 4 86 47t35 100q0 41 -17 68t-49 31v6q82 0 138 -35q57 -35 57 -97q0 -42 -40 -72q-72 -54 -210 -54z" />
    <glyph glyph-name="edieresis.ss01" horiz-adv-x="562" 
d="M92 660q0 34 24 55t61 21q38 0 63 -21t25 -55q0 -36 -24.5 -58.5t-62.5 -22.5t-62 22.5t-24 58.5zM355 660q0 34 24 55t62 21t61.5 -21t23.5 -55q0 -37 -23.5 -59t-61.5 -22t-62 22.5t-24 58.5zM300 -10q-102 0 -181 71q-77 72 -77 192q0 119 75 187q74 68 171 70v-6
q-45 -4 -60 -55q-15 -49 -15 -192q0 -104 42 -164t111 -60q79 0 147 53v-6q-37 -46 -97 -68q-59 -22 -116 -22zM273 252v6q51 4 86 47t35 100q0 41 -17 68t-49 31v6q82 0 138 -35q57 -35 57 -97q0 -42 -40 -72q-72 -54 -210 -54z" />
    <glyph glyph-name="edotaccent.ss01" horiz-adv-x="562" 
d="M207 660q0 39 28.5 63t73.5 24t73.5 -24t28.5 -63q0 -40 -28.5 -64t-73.5 -24t-73.5 24t-28.5 64zM300 -10q-102 0 -181 71q-77 72 -77 192q0 119 75 187q74 68 171 70v-6q-45 -4 -60 -55q-15 -49 -15 -192q0 -104 42 -164t111 -60q79 0 147 53v-6q-37 -46 -97 -68
q-59 -22 -116 -22zM273 252v6q51 4 86 47t35 100q0 41 -17 68t-49 31v6q82 0 138 -35q57 -35 57 -97q0 -42 -40 -72q-72 -54 -210 -54z" />
    <glyph glyph-name="egrave.ss01" horiz-adv-x="562" 
d="M419 551l-2 -5q-147 55 -218 176l105 60q34 -133 115 -231zM300 -10q-102 0 -181 71q-77 72 -77 192q0 119 75 187q74 68 171 70v-6q-45 -4 -60 -55q-15 -49 -15 -192q0 -104 42 -164t111 -60q79 0 147 53v-6q-37 -46 -97 -68q-59 -22 -116 -22zM273 252v6q51 4 86 47
t35 100q0 41 -17 68t-49 31v6q82 0 138 -35q57 -35 57 -97q0 -42 -40 -72q-72 -54 -210 -54z" />
    <glyph glyph-name="emacron.ss01" horiz-adv-x="562" 
d="M150 645v35h317v-35h-317zM300 -10q-102 0 -181 71q-77 72 -77 192q0 119 75 187q74 68 171 70v-6q-45 -4 -60 -55q-15 -49 -15 -192q0 -104 42 -164t111 -60q79 0 147 53v-6q-37 -46 -97 -68q-59 -22 -116 -22zM273 252v6q51 4 86 47t35 100q0 41 -17 68t-49 31v6
q82 0 138 -35q57 -35 57 -97q0 -42 -40 -72q-72 -54 -210 -54z" />
    <glyph glyph-name="eogonek.ss01" horiz-adv-x="562" 
d="M213 257q0 -104 42 -164t111 -60q79 0 147 53v-6q-29 -36 -82 -62q-86 -62 -86 -125q0 -39 30 -53.5t50 11.5q0 -43 -28 -69t-71 -26q-42 0 -71 26.5t-29 69.5q0 40 32.5 78t89.5 64q-20 -4 -48 -4q-102 0 -181 71q-77 72 -77 192q0 119 75 187q74 68 171 70v-6
q-45 -4 -60 -55q-15 -49 -15 -192zM394 405q0 41 -17 68t-49 31v6q82 0 138 -35q57 -35 57 -97q0 -42 -40 -72q-72 -54 -210 -54v6q51 4 86 47t35 100z" />
    <glyph glyph-name="f.ss01" horiz-adv-x="365" 
d="M196 633q0 -62 40 -111q41 -48 127 -48l-11 -15h-98v-490q0 -90 -46 -148.5t-120 -70.5v6q59 23 59 96q0 87 -58 129v478h-65l11 15h54v42q0 90 46 148.5t120 70.5v-6q-59 -23 -59 -96zM295 729v6q153 -6 153 -98q0 -39 -25 -63.5t-62 -24.5q-74 0 -101 67
q32 0 51.5 16.5t19.5 41.5q0 45 -36 55zM83 -131q-32 0 -51.5 -16.5t-19.5 -41.5q0 -45 36 -55v-6q-153 6 -153 98q0 39 25.5 63.5t61.5 24.5q74 0 101 -67z" />
    <glyph glyph-name="g.ss01" horiz-adv-x="643" 
d="M367 430v-8q-28 37 -72 37q-31 0 -52 -34q-26 -41 -26 -170q0 -213 78 -213q40 0 72 35v-6q-12 -34 -51 -57.5t-87 -23.5q-34 0 -64 12.5t-58 41t-44 82.5t-16 129q0 136 53 195q54 60 129 60q46 0 86 -24t52 -56zM397 -148v619q71 0 165 39v-520q0 -110 -71 -175
t-191 -65v6q47 0 72 25.5t25 70.5zM260 -244v-6q-42 1 -85 13q-42 10 -71 36.5t-29 60.5q0 33 25 54.5t64 21.5q36 0 66 -19t41 -48q-32 0 -52 -17.5t-20 -42.5q0 -38 61 -53z" />
    <glyph glyph-name="gbreve.ss01" horiz-adv-x="643" 
d="M180 768h6q24 -51 85 -70.5t122 0t85 70.5h6q-8 -81 -50 -127.5t-102 -46.5t-102 46.5t-50 127.5zM367 430v-8q-28 37 -72 37q-31 0 -52 -34q-26 -41 -26 -170q0 -213 78 -213q40 0 72 35v-6q-12 -34 -51 -57.5t-87 -23.5q-34 0 -64 12.5t-58 41t-44 82.5t-16 129
q0 136 53 195q54 60 129 60q46 0 86 -24t52 -56zM397 -148v619q71 0 165 39v-520q0 -110 -71 -175t-191 -65v6q47 0 72 25.5t25 70.5zM260 -244v-6q-42 1 -85 13q-42 10 -71 36.5t-29 60.5q0 33 25 54.5t64 21.5q36 0 66 -19t41 -48q-32 0 -52 -17.5t-20 -42.5q0 -38 61 -53
z" />
    <glyph glyph-name="gcommaaccent.ss01" horiz-adv-x="643" 
d="M434 810l1 -3q-87 -48 -87 -126q0 -39 30 -53.5t50 11.5q0 -43 -28 -69t-71 -26q-42 0 -71 26.5t-29 69.5q0 56 58 107q59 51 147 63zM367 430v-8q-28 37 -72 37q-31 0 -52 -34q-26 -41 -26 -170q0 -213 78 -213q40 0 72 35v-6q-12 -34 -51 -57.5t-87 -23.5
q-34 0 -64 12.5t-58 41t-44 82.5t-16 129q0 136 53 195q54 60 129 60q46 0 86 -24t52 -56zM397 -148v619q71 0 165 39v-520q0 -110 -71 -175t-191 -65v6q47 0 72 25.5t25 70.5zM260 -244v-6q-42 1 -85 13q-42 10 -71 36.5t-29 60.5q0 33 25 54.5t64 21.5q36 0 66 -19t41 -48
q-32 0 -52 -17.5t-20 -42.5q0 -38 61 -53z" />
    <glyph glyph-name="gdotaccent.ss01" horiz-adv-x="643" 
d="M230 660q0 39 28.5 63t73.5 24t73.5 -24t28.5 -63q0 -40 -28.5 -64t-73.5 -24t-73.5 24t-28.5 64zM367 430v-8q-28 37 -72 37q-31 0 -52 -34q-26 -41 -26 -170q0 -213 78 -213q40 0 72 35v-6q-12 -34 -51 -57.5t-87 -23.5q-34 0 -64 12.5t-58 41t-44 82.5t-16 129
q0 136 53 195q54 60 129 60q46 0 86 -24t52 -56zM397 -148v619q71 0 165 39v-520q0 -110 -71 -175t-191 -65v6q47 0 72 25.5t25 70.5zM260 -244v-6q-42 1 -85 13q-42 10 -71 36.5t-29 60.5q0 33 25 54.5t64 21.5q36 0 66 -19t41 -48q-32 0 -52 -17.5t-20 -42.5q0 -38 61 -53
z" />
    <glyph glyph-name="i.ss01" horiz-adv-x="356" 
d="M274 657q0 -40 -28.5 -64t-73.5 -24t-73.5 24t-28.5 64q0 39 28.5 63t73.5 24t73.5 -24t28.5 -63zM256 510v-418q0 -38 5 -52t22 -14q24 0 50 45h6q-33 -81 -131 -81q-76 0 -97 30q-20 31 -20 99v293q0 28 -17 40.5t-58 12.5l1 6q145 0 239 39z" />
    <glyph glyph-name="dotlessi.ss01" horiz-adv-x="356" 
d="M256 510v-418q0 -38 5 -52t22 -14q24 0 50 45h6q-33 -81 -131 -81q-76 0 -97 30q-20 31 -20 99v293q0 28 -17 40.5t-58 12.5l1 6q145 0 239 39z" />
    <glyph glyph-name="iacute.ss01" horiz-adv-x="358" 
d="M71 546l-2 5q81 98 115 231l105 -60q-71 -121 -218 -176zM256 510v-418q0 -38 5 -52t22 -14q24 0 50 45h6q-33 -81 -131 -81q-76 0 -97 30q-20 31 -20 99v293q0 28 -17 40.5t-58 12.5l1 6q145 0 239 39z" />
    <glyph glyph-name="icircumflex.ss01" horiz-adv-x="358" 
d="M159 767h36q59 -119 175 -204l-3 -6q-111 18 -190 86q-74 -64 -190 -86l-3 6q118 85 175 204zM283 26q24 0 50 45h6q-33 -81 -131 -81q-76 0 -97 30q-20 31 -20 99v293q0 28 -17 40.5t-58 12.5l1 6q145 0 239 39v-418q0 -38 5 -52t22 -14z" />
    <glyph glyph-name="idieresis.ss01" horiz-adv-x="358" 
d="M-38 660q0 34 24 55t61 21q38 0 63 -21t25 -55q0 -36 -24.5 -58.5t-62.5 -22.5t-62 22.5t-24 58.5zM225 660q0 34 24 55t62 21t61.5 -21t23.5 -55q0 -37 -23.5 -59t-61.5 -22t-62 22.5t-24 58.5zM256 510v-418q0 -38 5 -52t22 -14q24 0 50 45h6q-33 -81 -131 -81
q-76 0 -97 30q-20 31 -20 99v293q0 28 -17 40.5t-58 12.5l1 6q145 0 239 39z" />
    <glyph glyph-name="i.loclTRK.ss01" horiz-adv-x="358" 
d="M77 660q0 39 28.5 63t73.5 24t73.5 -24t28.5 -63q0 -40 -28.5 -64t-73.5 -24t-73.5 24t-28.5 64zM256 510v-418q0 -38 5 -52t22 -14q24 0 50 45h6q-33 -81 -131 -81q-76 0 -97 30q-20 31 -20 99v293q0 28 -17 40.5t-58 12.5l1 6q145 0 239 39z" />
    <glyph glyph-name="igrave.ss01" horiz-adv-x="358" 
d="M289 551l-2 -5q-147 55 -218 176l105 60q34 -133 115 -231zM256 510v-418q0 -38 5 -52t22 -14q24 0 50 45h6q-33 -81 -131 -81q-76 0 -97 30q-20 31 -20 99v293q0 28 -17 40.5t-58 12.5l1 6q145 0 239 39z" />
    <glyph glyph-name="imacron.ss01" horiz-adv-x="358" 
d="M20 645v35h317v-35h-317zM256 510v-418q0 -38 5 -52t22 -14q24 0 50 45h6q-33 -81 -131 -81q-76 0 -97 30q-20 31 -20 99v293q0 28 -17 40.5t-58 12.5l1 6q145 0 239 39z" />
    <glyph glyph-name="iogonek.ss01" horiz-adv-x="358" 
d="M77 660q0 39 28.5 63t73.5 24t73.5 -24t28.5 -63q0 -40 -28.5 -64t-73.5 -24t-73.5 24t-28.5 64zM290 10q-82 -61 -82 -123q0 -39 30 -53.5t50 11.5q0 -43 -28 -69t-71 -26q-42 0 -71 26.5t-29 69.5q0 41 34 79.5t93 64.5h-8q-76 0 -97 30q-20 31 -20 99v293
q0 28 -17 40.5t-58 12.5l1 6q145 0 239 39v-418q0 -38 5 -52t22 -14q24 0 50 45h6q-16 -41 -49 -61z" />
    <glyph glyph-name="itilde.ss01" horiz-adv-x="358" 
d="M26 579h-6q-28 25 -28 68q0 39 24.5 62t73.5 23q44 0 116 -28q74 -27 99 -27q42 0 42 32q0 13 -16 32h6q28 -25 28 -65t-24.5 -64t-73.5 -24q-43 0 -116 27q-72 28 -99 28q-42 0 -42 -32q0 -13 16 -32zM256 510v-418q0 -38 5 -52t22 -14q24 0 50 45h6q-33 -81 -131 -81
q-76 0 -97 30q-20 31 -20 99v293q0 28 -17 40.5t-58 12.5l1 6q145 0 239 39z" />
    <glyph glyph-name="k.ss01" horiz-adv-x="680" 
d="M259 735v-667q0 -63 76 -63l1 -5h-317l-1 5q77 0 75 54v579q0 30 -17 42t-58 12l4 4q144 0 237 39zM690 71h6q-4 -37 -38 -59t-88 -22q-120 0 -184 112l-76 128q56 29 86.5 66.5t30.5 74.5q0 29 -18 46t-43 17q-44 0 -71 -47v8q27 53 72.5 85t93.5 32q49 0 80.5 -30
t31.5 -77q0 -93 -130 -138l94 -132q76 -109 106 -109q38 0 47 45z" />
    <glyph glyph-name="kcommaaccent.ss01" horiz-adv-x="680" 
d="M335 5l1 -5h-317l-1 5q77 0 75 54v579q0 30 -17 42t-58 12l4 4q144 0 237 39v-667q0 -63 76 -63zM690 71h6q-4 -37 -38 -59t-88 -22q-120 0 -184 112l-76 128q56 29 86.5 66.5t30.5 74.5q0 29 -18 46t-43 17q-44 0 -71 -47v8q27 53 72.5 85t93.5 32q49 0 80.5 -30
t31.5 -77q0 -93 -130 -138l94 -132q76 -109 106 -109q38 0 47 45zM343 -44q42 0 71 -26.5t29 -69.5q0 -56 -58 -107q-59 -51 -147 -63l-1 3q87 48 87 126q0 39 -30 53.5t-50 -11.5q0 43 28 69t71 26z" />
    <glyph glyph-name="l.ss01" horiz-adv-x="345" 
d="M194 0q-74 0 -96 40q-17 35 -17 86v524q0 28 -17 40.5t-58 12.5v6q146 0 240 39l1 -671q0 -18 7.5 -29.5t19.5 -11.5q22 0 49 45h6q-33 -81 -135 -81z" />
    <glyph glyph-name="lacute.ss01" horiz-adv-x="345" 
d="M37 770v5q101 72 170 194l86 -85q-98 -98 -256 -114zM194 0q-74 0 -96 40q-17 35 -17 86v524q0 28 -17 40.5t-58 12.5v6q146 0 240 39l1 -671q0 -18 7.5 -29.5t19.5 -11.5q22 0 49 45h6q-33 -81 -135 -81z" />
    <glyph glyph-name="lcaron.ss01" horiz-adv-x="345" 
d="M311 511h-6q33 103 33 274h101q-7 -173 -128 -274zM194 0q-74 0 -96 40q-17 35 -17 86v524q0 28 -17 40.5t-58 12.5v6q146 0 240 39l1 -671q0 -18 7.5 -29.5t19.5 -11.5q22 0 49 45h6q-33 -81 -135 -81z" />
    <glyph glyph-name="lcommaaccent.ss01" horiz-adv-x="345" 
d="M194 0q-74 0 -96 40q-17 35 -17 86v524q0 28 -17 40.5t-58 12.5v6q146 0 240 39l1 -671q0 -18 7.5 -29.5t19.5 -11.5q22 0 49 45h6q-33 -81 -135 -81zM66 -310l-1 3q87 48 87 126q0 39 -30 53.5t-50 -11.5q0 43 28 69t71 26q42 0 71 -26.5t29 -69.5q0 -56 -58 -107
q-59 -51 -147 -63z" />
    <glyph glyph-name="ldot.ss01" horiz-adv-x="525" 
d="M194 0q-74 0 -96 40q-17 35 -17 86v524q0 28 -17 40.5t-58 12.5v6q146 0 240 39l1 -671q0 -18 7.5 -29.5t19.5 -11.5q22 0 49 45h6q-33 -81 -135 -81zM346 305q0 34 24 55t61 21q38 0 63 -21t25 -55q0 -36 -24.5 -58.5t-62.5 -22.5t-62 22.5t-24 58.5z" />
    <glyph glyph-name="lslash.ss01" horiz-adv-x="345" 
d="M323 81h6q-33 -81 -135 -81q-74 0 -96 40q-17 35 -17 86v161l-69 -46v24l69 46v339q0 28 -17 40.5t-58 12.5v6q146 0 240 39v-326l77 51v-24l-76 -51v-321q0 -18 7.5 -29.5t19.5 -11.5q22 0 49 45z" />
    <glyph glyph-name="m.ss01" horiz-adv-x="1004" 
d="M264 510v-453q0 -51 75 -51v-6h-315v6q75 0 75 51v355q0 28 -16.5 40.5t-57.5 12.5v6q145 0 239 39zM441 510q71 0 110.5 -35.5t39.5 -105.5v-312q0 -51 74 -51v-6h-309v6q75 0 75 51v312q0 85 -70 85q-42 0 -66 -30v6q20 35 58.5 57.5t87.5 22.5zM757 116v253
q0 85 -70 85q-42 0 -66 -30v6q20 35 58.5 57.5t87.5 22.5q71 0 110.5 -35.5t39.5 -105.5v-302q0 -18 7 -29.5t18 -11.5q23 0 49 45h6q-18 -44 -50 -62.5t-82 -18.5q-73 0 -92 40q-16 33 -16 86z" />
    <glyph glyph-name="n.ss01" horiz-adv-x="696" 
d="M340 0h-316v6q75 0 75 51v355q0 28 -16.5 40.5t-57.5 12.5v6q145 0 240 39v-453q0 -51 75 -51v-6zM545 -10q-74 0 -96 40q-16 33 -16 86v253q0 40 -18.5 62.5t-49.5 22.5q-39 0 -69 -31v6q22 35 63 58t85 23q73 0 114.5 -35.5t41.5 -105.5l-1 -302q0 -18 7.5 -29.5
t19.5 -11.5q23 0 50 45h6q-34 -81 -137 -81z" />
    <glyph glyph-name="nacute.ss01" horiz-adv-x="696" 
d="M240 546l-2 5q81 98 115 231l105 -60q-71 -121 -218 -176zM340 0h-316v6q75 0 75 51v355q0 28 -16.5 40.5t-57.5 12.5v6q145 0 240 39v-453q0 -51 75 -51v-6zM545 -10q-74 0 -96 40q-16 33 -16 86v253q0 40 -18.5 62.5t-49.5 22.5q-39 0 -69 -31v6q22 35 63 58t85 23
q73 0 114.5 -35.5t41.5 -105.5l-1 -302q0 -18 7.5 -29.5t19.5 -11.5q23 0 50 45h6q-34 -81 -137 -81z" />
    <glyph glyph-name="napostrophe.ss01" horiz-adv-x="696" 
d="M69 735q35 0 58 -24t23 -63q0 -45 -45 -96q-44 -50 -117 -80l-3 9q57 45 57 97q0 31 -18.5 48t-49.5 18q6 44 31 67.5t64 23.5zM340 0h-316v6q75 0 75 51v355q0 28 -16.5 40.5t-57.5 12.5v6q145 0 240 39v-453q0 -51 75 -51v-6zM545 -10q-74 0 -96 40q-16 33 -16 86v253
q0 40 -18.5 62.5t-49.5 22.5q-39 0 -69 -31v6q22 35 63 58t85 23q73 0 114.5 -35.5t41.5 -105.5l-1 -302q0 -18 7.5 -29.5t19.5 -11.5q23 0 50 45h6q-34 -81 -137 -81z" />
    <glyph glyph-name="ncaron.ss01" horiz-adv-x="696" 
d="M366 564h-36q-57 119 -175 204l3 6q116 -22 190 -86q79 68 190 86l3 -6q-116 -85 -175 -204zM265 510v-453q0 -51 75 -51v-6h-316v6q75 0 75 51v355q0 28 -16.5 40.5t-57.5 12.5v6q145 0 240 39zM676 71h6q-34 -81 -137 -81q-74 0 -96 40q-16 33 -16 86v253
q0 40 -18.5 62.5t-49.5 22.5q-39 0 -69 -31v6q22 35 63 58t85 23q73 0 114.5 -35.5t41.5 -105.5l-1 -302q0 -18 7.5 -29.5t19.5 -11.5q23 0 50 45z" />
    <glyph glyph-name="ncommaaccent.ss01" horiz-adv-x="696" 
d="M340 0h-316v6q75 0 75 51v355q0 28 -16.5 40.5t-57.5 12.5v6q145 0 240 39v-453q0 -51 75 -51v-6zM545 -10q-74 0 -96 40q-16 33 -16 86v253q0 40 -18.5 62.5t-49.5 22.5q-39 0 -69 -31v6q22 35 63 58t85 23q73 0 114.5 -35.5t41.5 -105.5l-1 -302q0 -18 7.5 -29.5
t19.5 -11.5q23 0 50 45h6q-34 -81 -137 -81zM246 -310l-1 3q87 48 87 126q0 39 -30 53.5t-50 -11.5q0 43 28 69t71 26q42 0 71 -26.5t29 -69.5q0 -56 -58 -107q-59 -51 -147 -63z" />
    <glyph glyph-name="ntilde.ss01" horiz-adv-x="696" 
d="M195 579h-6q-28 25 -28 68q0 39 24.5 62t73.5 23q44 0 116 -28q73 -27 99 -27q42 0 42 32q0 13 -16 32h6q28 -25 28 -65t-24.5 -64t-73.5 -24q-42 0 -116 27q-72 28 -99 28q-42 0 -42 -32q0 -13 16 -32zM340 0h-316v6q75 0 75 51v355q0 28 -16.5 40.5t-57.5 12.5v6
q145 0 240 39v-453q0 -51 75 -51v-6zM545 -10q-74 0 -96 40q-16 33 -16 86v253q0 40 -18.5 62.5t-49.5 22.5q-39 0 -69 -31v6q22 35 63 58t85 23q73 0 114.5 -35.5t41.5 -105.5l-1 -302q0 -18 7.5 -29.5t19.5 -11.5q23 0 50 45h6q-34 -81 -137 -81z" />
    <glyph glyph-name="u.ss01" horiz-adv-x="690" 
d="M253 510v-379q0 -85 70 -85q44 0 75 31v-6q-51 -81 -162 -81q-148 0 -148 141v281q0 28 -16.5 40.5t-57.5 12.5v6q144 0 239 39zM593 510v-443q0 -41 27 -41q26 0 48 45h6q-12 -39 -48 -60t-88 -21q-51 0 -80.5 26.5t-28.5 71.5l-1 324q0 28 -16.5 40.5t-56.5 12.5v6
q125 0 238 39z" />
    <glyph glyph-name="uacute.ss01" horiz-adv-x="690" 
d="M237 546l-2 5q81 98 115 231l105 -60q-71 -121 -218 -176zM253 510v-379q0 -85 70 -85q44 0 75 31v-6q-51 -81 -162 -81q-148 0 -148 141v281q0 28 -16.5 40.5t-57.5 12.5v6q144 0 239 39zM593 510v-443q0 -41 27 -41q26 0 48 45h6q-12 -39 -48 -60t-88 -21
q-51 0 -80.5 26.5t-28.5 71.5l-1 324q0 28 -16.5 40.5t-56.5 12.5v6q125 0 238 39z" />
    <glyph glyph-name="ucircumflex.ss01" horiz-adv-x="690" 
d="M343 643q-74 -64 -190 -86l-3 6q118 85 175 204h36q59 -119 175 -204l-3 -6q-111 18 -190 86zM253 510v-379q0 -85 70 -85q44 0 75 31v-6q-51 -81 -162 -81q-148 0 -148 141v281q0 28 -16.5 40.5t-57.5 12.5v6q144 0 239 39zM668 71h6q-12 -39 -48 -60t-88 -21
q-51 0 -80.5 26.5t-28.5 71.5l-1 324q0 28 -16.5 40.5t-56.5 12.5v6q125 0 238 39v-443q0 -41 27 -41q26 0 48 45z" />
    <glyph glyph-name="udieresis.ss01" horiz-adv-x="690" 
d="M128 660q0 34 24 55t61 21q38 0 63 -21t25 -55q0 -36 -24.5 -58.5t-62.5 -22.5t-62 22.5t-24 58.5zM391 660q0 34 24 55t62 21t61.5 -21t23.5 -55q0 -37 -23.5 -59t-61.5 -22t-62 22.5t-24 58.5zM253 510v-379q0 -85 70 -85q44 0 75 31v-6q-51 -81 -162 -81
q-148 0 -148 141v281q0 28 -16.5 40.5t-57.5 12.5v6q144 0 239 39zM593 510v-443q0 -41 27 -41q26 0 48 45h6q-12 -39 -48 -60t-88 -21q-51 0 -80.5 26.5t-28.5 71.5l-1 324q0 28 -16.5 40.5t-56.5 12.5v6q125 0 238 39z" />
    <glyph glyph-name="ugrave.ss01" horiz-adv-x="690" 
d="M455 551l-2 -5q-147 55 -218 176l105 60q34 -133 115 -231zM253 510v-379q0 -85 70 -85q44 0 75 31v-6q-51 -81 -162 -81q-148 0 -148 141v281q0 28 -16.5 40.5t-57.5 12.5v6q144 0 239 39zM593 510v-443q0 -41 27 -41q26 0 48 45h6q-12 -39 -48 -60t-88 -21
q-51 0 -80.5 26.5t-28.5 71.5l-1 324q0 28 -16.5 40.5t-56.5 12.5v6q125 0 238 39z" />
    <glyph glyph-name="uhungarumlaut.ss01" horiz-adv-x="690" 
d="M162 547l-4 5q72 98 115 229l88 -45q-72 -118 -199 -189zM332 547l-4 5q72 98 115 229l88 -45q-72 -118 -199 -189zM253 510v-379q0 -85 70 -85q44 0 75 31v-6q-51 -81 -162 -81q-148 0 -148 141v281q0 28 -16.5 40.5t-57.5 12.5v6q144 0 239 39zM593 510v-443
q0 -41 27 -41q26 0 48 45h6q-12 -39 -48 -60t-88 -21q-51 0 -80.5 26.5t-28.5 71.5l-1 324q0 28 -16.5 40.5t-56.5 12.5v6q125 0 238 39z" />
    <glyph glyph-name="umacron.ss01" horiz-adv-x="690" 
d="M186 645v35h317v-35h-317zM253 510v-379q0 -85 70 -85q44 0 75 31v-6q-51 -81 -162 -81q-148 0 -148 141v281q0 28 -16.5 40.5t-57.5 12.5v6q144 0 239 39zM593 510v-443q0 -41 27 -41q26 0 48 45h6q-12 -39 -48 -60t-88 -21q-51 0 -80.5 26.5t-28.5 71.5l-1 324
q0 28 -16.5 40.5t-56.5 12.5v6q125 0 238 39z" />
    <glyph glyph-name="uogonek.ss01" horiz-adv-x="690" 
d="M253 510v-379q0 -85 70 -85q44 0 75 31v-6q-51 -81 -162 -81q-148 0 -148 141v281q0 28 -16.5 40.5t-57.5 12.5v6q144 0 239 39zM668 71h6q-11 -38 -44 -58q-87 -61 -87 -126q0 -39 30 -53.5t50 11.5q0 -43 -28 -69t-71 -26q-42 0 -71 26.5t-29 69.5q0 41 34 79.5
t94 64.5h-14q-51 0 -80.5 26.5t-28.5 71.5l-1 324q0 28 -16.5 40.5t-56.5 12.5v6q125 0 238 39v-443q0 -41 27 -41q26 0 48 45z" />
    <glyph glyph-name="uring.ss01" horiz-adv-x="690" 
d="M418 586q-30 -29 -73 -29t-73 29q-30 30 -30 73t30 72q30 30 73 30t73 -30q30 -29 30 -72t-30 -73zM404 659q0 26 -17 43.5t-42 17.5t-42 -17.5t-17 -43.5q0 -25 17 -42.5t42 -17.5t42 17.5t17 42.5zM253 510v-379q0 -85 70 -85q44 0 75 31v-6q-51 -81 -162 -81
q-148 0 -148 141v281q0 28 -16.5 40.5t-57.5 12.5v6q144 0 239 39zM593 510v-443q0 -41 27 -41q26 0 48 45h6q-12 -39 -48 -60t-88 -21q-51 0 -80.5 26.5t-28.5 71.5l-1 324q0 28 -16.5 40.5t-56.5 12.5v6q125 0 238 39z" />
    <glyph glyph-name="utilde.ss01" horiz-adv-x="690" 
d="M192 579h-6q-28 25 -28 68q0 39 24.5 62t73.5 23q44 0 116 -28q74 -27 99 -27q42 0 42 32q0 13 -16 32h6q28 -25 28 -65t-24.5 -64t-73.5 -24q-43 0 -116 27q-72 28 -99 28q-42 0 -42 -32q0 -13 16 -32zM253 510v-379q0 -85 70 -85q44 0 75 31v-6q-51 -81 -162 -81
q-148 0 -148 141v281q0 28 -16.5 40.5t-57.5 12.5v6q144 0 239 39zM593 510v-443q0 -41 27 -41q26 0 48 45h6q-12 -39 -48 -60t-88 -21q-51 0 -80.5 26.5t-28.5 71.5l-1 324q0 28 -16.5 40.5t-56.5 12.5v6q125 0 238 39z" />
    <glyph glyph-name="v.ss01" horiz-adv-x="555" 
d="M290 0h-6l-218 429q-12 25 -31 25q-24 0 -40 -31l-1 10q15 33 51.5 55t79.5 22q83 0 120 -75l131 -273zM469 334l-48 -84l-7 9q23 48 23 103q0 69 -48 69q-12 0 -30 -2q1 36 24 58.5t58 22.5q33 0 51 -17.5t18 -47.5q0 -19 -14 -55q-14 -35 -27 -56z" />
    <glyph glyph-name="w.ss01" horiz-adv-x="886" 
d="M126 510q85 0 119 -73l131 -274l-86 -163h-6l-218 431q-12 25 -31 25q-24 0 -40 -31l-1 10q12 31 49.5 53t82.5 22zM454 510q85 0 119 -73l131 -274l-86 -163h-6l-157 310l-30 -58l-7 9q18 37 24 74l-48 96q-12 25 -30 25q-25 0 -41 -31l-1 10q12 31 49.5 53t82.5 22z
M771 510q33 0 51 -17.5t18 -47.5q0 -19 -14 -55q-14 -35 -27 -56l-48 -84l-7 9q23 48 23 103q0 69 -48 69q-12 0 -30 -2q1 36 24 58.5t58 22.5z" />
    <glyph glyph-name="wacute.ss01" horiz-adv-x="886" 
d="M454 782l105 -60q-71 -121 -218 -176l-2 5q81 98 115 231zM126 510q85 0 119 -73l131 -274l-86 -163h-6l-218 431q-12 25 -31 25q-24 0 -40 -31l-1 10q12 31 49.5 53t82.5 22zM454 510q85 0 119 -73l131 -274l-86 -163h-6l-157 310l-30 -58l-7 9q18 37 24 74l-48 96
q-12 25 -30 25q-25 0 -41 -31l-1 10q12 31 49.5 53t82.5 22zM771 510q33 0 51 -17.5t18 -47.5q0 -19 -14 -55q-14 -35 -27 -56l-48 -84l-7 9q23 48 23 103q0 69 -48 69q-12 0 -30 -2q1 36 24 58.5t58 22.5z" />
    <glyph glyph-name="wcircumflex.ss01" horiz-adv-x="886" 
d="M447 643q-74 -64 -190 -86l-3 6q118 85 175 204h36q59 -119 175 -204l-3 -6q-111 18 -190 86zM126 510q85 0 119 -73l131 -274l-86 -163h-6l-218 431q-12 25 -31 25q-24 0 -40 -31l-1 10q12 31 49.5 53t82.5 22zM454 510q85 0 119 -73l131 -274l-86 -163h-6l-157 310
l-30 -58l-7 9q18 37 24 74l-48 96q-12 25 -30 25q-25 0 -41 -31l-1 10q12 31 49.5 53t82.5 22zM771 510q33 0 51 -17.5t18 -47.5q0 -19 -14 -55q-14 -35 -27 -56l-48 -84l-7 9q23 48 23 103q0 69 -48 69q-12 0 -30 -2q1 36 24 58.5t58 22.5z" />
    <glyph glyph-name="wdieresis.ss01" horiz-adv-x="886" 
d="M232 660q0 34 24 55t61 21q38 0 63 -21t25 -55q0 -36 -24.5 -58.5t-62.5 -22.5t-62 22.5t-24 58.5zM495 660q0 34 24 55t62 21t61.5 -21t23.5 -55q0 -37 -23.5 -59t-61.5 -22t-62 22.5t-24 58.5zM126 510q85 0 119 -73l131 -274l-86 -163h-6l-218 431q-12 25 -31 25
q-24 0 -40 -31l-1 10q12 31 49.5 53t82.5 22zM454 510q85 0 119 -73l131 -274l-86 -163h-6l-157 310l-30 -58l-7 9q18 37 24 74l-48 96q-12 25 -30 25q-25 0 -41 -31l-1 10q12 31 49.5 53t82.5 22zM771 510q33 0 51 -17.5t18 -47.5q0 -19 -14 -55q-14 -35 -27 -56l-48 -84
l-7 9q23 48 23 103q0 69 -48 69q-12 0 -30 -2q1 36 24 58.5t58 22.5z" />
    <glyph glyph-name="wgrave.ss01" horiz-adv-x="886" 
d="M559 551l-2 -5q-147 55 -218 176l105 60q34 -133 115 -231zM126 510q85 0 119 -73l131 -274l-86 -163h-6l-218 431q-12 25 -31 25q-24 0 -40 -31l-1 10q12 31 49.5 53t82.5 22zM454 510q85 0 119 -73l131 -274l-86 -163h-6l-157 310l-30 -58l-7 9q18 37 24 74l-48 96
q-12 25 -30 25q-25 0 -41 -31l-1 10q12 31 49.5 53t82.5 22zM771 510q33 0 51 -17.5t18 -47.5q0 -19 -14 -55q-14 -35 -27 -56l-48 -84l-7 9q23 48 23 103q0 69 -48 69q-12 0 -30 -2q1 36 24 58.5t58 22.5z" />
    <glyph glyph-name="y.ss01" horiz-adv-x="564" 
d="M295 -2h-6l-219 431q-12 25 -30 25q-25 0 -41 -31l-1 10q13 33 50.5 55t82.5 22q85 0 119 -75l130 -274zM478 334l-48 -84l-7 9q23 48 23 103q0 69 -48 69q-12 0 -30 -2q1 36 24 58.5t58 22.5q33 0 51 -17.5t18 -47.5q0 -19 -14 -55q-14 -35 -27 -56zM96 -250
q-42 0 -70.5 26.5t-28.5 67.5q0 37 28 60.5t75 26.5q-4 -15 -4 -27q0 -26 14.5 -42t39.5 -16q22 0 51.5 26t55.5 68h7q-60 -112 -84 -143q-37 -45 -84 -47z" />
    <glyph glyph-name="yacute.ss01" horiz-adv-x="564" 
d="M194 546l-2 5q81 98 115 231l105 -60q-71 -121 -218 -176zM295 -2h-6l-219 431q-12 25 -30 25q-25 0 -41 -31l-1 10q13 33 50.5 55t82.5 22q85 0 119 -75l130 -274zM478 334l-48 -84l-7 9q23 48 23 103q0 69 -48 69q-12 0 -30 -2q1 36 24 58.5t58 22.5q33 0 51 -17.5
t18 -47.5q0 -19 -14 -55q-14 -35 -27 -56zM96 -250q-42 0 -70.5 26.5t-28.5 67.5q0 37 28 60.5t75 26.5q-4 -15 -4 -27q0 -26 14.5 -42t39.5 -16q22 0 51.5 26t55.5 68h7q-60 -112 -84 -143q-37 -45 -84 -47z" />
    <glyph glyph-name="ycircumflex.ss01" horiz-adv-x="564" 
d="M300 643q-74 -64 -190 -86l-3 6q118 85 175 204h36q59 -119 175 -204l-3 -6q-111 18 -190 86zM131 510q85 0 119 -75l130 -274l-85 -163h-6l-219 431q-12 25 -30 25q-25 0 -41 -31l-1 10q13 33 50.5 55t82.5 22zM450 510q33 0 51 -17.5t18 -47.5q0 -19 -14 -55
q-14 -35 -27 -56l-48 -84l-7 9q23 48 23 103q0 69 -48 69q-12 0 -30 -2q1 36 24 58.5t58 22.5zM150 -154q22 0 51.5 26t55.5 68h7q-60 -112 -84 -143q-37 -45 -84 -47q-42 0 -70.5 26.5t-28.5 67.5q0 37 28 60.5t75 26.5q-4 -15 -4 -27q0 -26 14.5 -42t39.5 -16z" />
    <glyph glyph-name="ydieresis.ss01" horiz-adv-x="564" 
d="M85 660q0 34 24 55t61 21q38 0 63 -21t25 -55q0 -36 -24.5 -58.5t-62.5 -22.5t-62 22.5t-24 58.5zM348 660q0 34 24 55t62 21t61.5 -21t23.5 -55q0 -37 -23.5 -59t-61.5 -22t-62 22.5t-24 58.5zM295 -2h-6l-219 431q-12 25 -30 25q-25 0 -41 -31l-1 10q13 33 50.5 55
t82.5 22q85 0 119 -75l130 -274zM478 334l-48 -84l-7 9q23 48 23 103q0 69 -48 69q-12 0 -30 -2q1 36 24 58.5t58 22.5q33 0 51 -17.5t18 -47.5q0 -19 -14 -55q-14 -35 -27 -56zM96 -250q-42 0 -70.5 26.5t-28.5 67.5q0 37 28 60.5t75 26.5q-4 -15 -4 -27q0 -26 14.5 -42
t39.5 -16q22 0 51.5 26t55.5 68h7q-60 -112 -84 -143q-37 -45 -84 -47z" />
    <glyph glyph-name="ygrave.ss01" horiz-adv-x="564" 
d="M412 551l-2 -5q-147 55 -218 176l105 60q34 -133 115 -231zM295 -2h-6l-219 431q-12 25 -30 25q-25 0 -41 -31l-1 10q13 33 50.5 55t82.5 22q85 0 119 -75l130 -274zM478 334l-48 -84l-7 9q23 48 23 103q0 69 -48 69q-12 0 -30 -2q1 36 24 58.5t58 22.5q33 0 51 -17.5
t18 -47.5q0 -19 -14 -55q-14 -35 -27 -56zM96 -250q-42 0 -70.5 26.5t-28.5 67.5q0 37 28 60.5t75 26.5q-4 -15 -4 -27q0 -26 14.5 -42t39.5 -16q22 0 51.5 26t55.5 68h7q-60 -112 -84 -143q-37 -45 -84 -47z" />
    <glyph glyph-name="uni1EF9.ss01" horiz-adv-x="564" 
d="M149 579h-6q-28 25 -28 68q0 39 24.5 62t73.5 23q44 0 116 -28q73 -27 99 -27q42 0 42 32q0 13 -16 32h6q28 -25 28 -65t-24.5 -64t-73.5 -24q-42 0 -116 27q-72 28 -99 28q-42 0 -42 -32q0 -13 16 -32zM295 -2h-6l-219 431q-12 25 -30 25q-25 0 -41 -31l-1 10
q13 33 50.5 55t82.5 22q85 0 119 -75l130 -274zM478 334l-48 -84l-7 9q23 48 23 103q0 69 -48 69q-12 0 -30 -2q1 36 24 58.5t58 22.5q33 0 51 -17.5t18 -47.5q0 -19 -14 -55q-14 -35 -27 -56zM96 -250q-42 0 -70.5 26.5t-28.5 67.5q0 37 28 60.5t75 26.5q-4 -15 -4 -27
q0 -26 14.5 -42t39.5 -16q22 0 51.5 26t55.5 68h7q-60 -112 -84 -143q-37 -45 -84 -47z" />
    <glyph glyph-name="z.ss01" horiz-adv-x="593" 
d="M51 277h-6q-2 121 29.5 177t105.5 56q76 0 136 -54q61 -53 116 -53q28 0 43.5 11.5t15.5 28.5q0 13 -10.5 23t-25.5 10q4 34 42 34q24 0 37 -16t13 -38q0 -62 -113 -139q-116 -79 -235 -115q60 26 137 72q79 47 116 84q-62 -38 -137 -38q-50 0 -110 19q-63 20 -78 20
q-31 0 -54 -23t-22 -59zM546 223h6q0 -233 -144 -233q-74 0 -137 53q-60 54 -116 54q-27 0 -42 -12t-15 -30q0 -14 10 -22.5t25 -8.5q0 -14 -11.5 -24t-27.5 -10q-23 0 -37.5 17.5t-14.5 45.5q0 56 61 90q61 36 139 36q64 0 133 -19t84 -19q31 0 56.5 22.5t30.5 59.5z" />
    <glyph glyph-name="zacute.ss01" horiz-adv-x="593" 
d="M352 782l105 -60q-71 -121 -218 -176l-2 5q81 98 115 231zM51 277h-6q-2 121 29.5 177t105.5 56q76 0 136 -54q61 -53 116 -53q28 0 43.5 11.5t15.5 28.5q0 13 -10.5 23t-25.5 10q4 34 42 34q24 0 37 -16t13 -38q0 -62 -113 -139q-116 -79 -235 -115q60 26 137 72
q79 47 116 84q-62 -38 -137 -38q-50 0 -110 19q-63 20 -78 20q-31 0 -54 -23t-22 -59zM546 223h6q0 -233 -144 -233q-74 0 -137 53q-60 54 -116 54q-27 0 -42 -12t-15 -30q0 -14 10 -22.5t25 -8.5q0 -14 -11.5 -24t-27.5 -10q-23 0 -37.5 17.5t-14.5 45.5q0 56 61 90
q61 36 139 36q64 0 133 -19t84 -19q31 0 56.5 22.5t30.5 59.5z" />
    <glyph glyph-name="zcaron.ss01" horiz-adv-x="593" 
d="M365 564h-36q-57 119 -175 204l3 6q116 -22 190 -86q79 68 190 86l3 -6q-116 -85 -175 -204zM51 277h-6q-2 121 29.5 177t105.5 56q76 0 136 -54q61 -53 116 -53q28 0 43.5 11.5t15.5 28.5q0 13 -10.5 23t-25.5 10q4 34 42 34q24 0 37 -16t13 -38q0 -62 -113 -139
q-116 -79 -235 -115q60 26 137 72q79 47 116 84q-62 -38 -137 -38q-50 0 -110 19q-63 20 -78 20q-31 0 -54 -23t-22 -59zM546 223h6q0 -233 -144 -233q-74 0 -137 53q-60 54 -116 54q-27 0 -42 -12t-15 -30q0 -14 10 -22.5t25 -8.5q0 -14 -11.5 -24t-27.5 -10
q-23 0 -37.5 17.5t-14.5 45.5q0 56 61 90q61 36 139 36q64 0 133 -19t84 -19q31 0 56.5 22.5t30.5 59.5z" />
    <glyph glyph-name="zdotaccent.ss01" horiz-adv-x="593" 
d="M245 660q0 39 28.5 63t73.5 24t73.5 -24t28.5 -63q0 -40 -28.5 -64t-73.5 -24t-73.5 24t-28.5 64zM51 277h-6q-2 121 29.5 177t105.5 56q76 0 136 -54q61 -53 116 -53q28 0 43.5 11.5t15.5 28.5q0 13 -10.5 23t-25.5 10q4 34 42 34q24 0 37 -16t13 -38q0 -62 -113 -139
q-116 -79 -235 -115q60 26 137 72q79 47 116 84q-62 -38 -137 -38q-50 0 -110 19q-63 20 -78 20q-31 0 -54 -23t-22 -59zM546 223h6q0 -233 -144 -233q-74 0 -137 53q-60 54 -116 54q-27 0 -42 -12t-15 -30q0 -14 10 -22.5t25 -8.5q0 -14 -11.5 -24t-27.5 -10
q-23 0 -37.5 17.5t-14.5 45.5q0 56 61 90q61 36 139 36q64 0 133 -19t84 -19q31 0 56.5 22.5t30.5 59.5z" />
    <glyph glyph-name="Q_u" horiz-adv-x="1502" 
d="M1000 -142q63 0 107.5 14.5t89.5 49.5l6 -1q-17 -65 -102 -113t-206 -48q-70 0 -133 28q-58 24 -101.5 60.5t-97.5 95.5q-53 59 -76 88q-75 96 -129 96q-50 0 -50 -52q0 -27 19.5 -49.5t51.5 -30.5v-6q-120 0 -222 93q-50 46 -79.5 114.5t-29.5 146.5q0 79 29.5 147
t78.5 111q101 88 218 88v-6q-140 -17 -140 -334q0 -200 53 -289q-2 16 -2 18q0 48 41.5 75t105.5 27q91 0 214 -114l105 -94q129 -115 249 -115zM564 350q0 317 -140 334v6q75 0 149 -38q75 -38 125 -115q52 -77 52 -178q0 -121 -98 -228q-47 39 -91 54q3 55 3 165zM1141 46
q39 0 69 31v-6q-20 -37 -60 -59t-95 -22q-148 0 -148 141v281q0 28 -16.5 40.5t-57.5 12.5v6q144 0 239 39v-379q0 -85 69 -85zM1480 71h6q-12 -39 -48 -60t-88 -21q-51 0 -80.5 26.5t-29.5 71.5v324q0 28 -16 40.5t-55 12.5v6q123 0 236 39v-443q0 -41 27 -41q24 0 48 45z
" />
    <glyph glyph-name="f_b" horiz-adv-x="1030" 
d="M331 729v6q117 -7 176 -39q55 14 96 39v-609q0 -68 -43 -102t-122 -34v595q0 60 -30 99.5t-77 44.5zM205 616q0 -63 42 -102.5t125 -39.5l-11 -15h-98v-402q0 -52 75 -52v-5h-315v5q75 0 75 52v402h-65l11 15h54v45q0 95 52 148.5t141 66.5v-6q-39 -10 -62.5 -40
t-23.5 -72zM778 510q39 0 73.5 -12.5t65.5 -40t49 -79.5t18 -123q0 -75 -18.5 -129t-49.5 -82.5t-65 -41t-73 -12.5q-42 0 -84 24q-41 24 -61 57v6q47 -35 83 -35q98 0 98 213q0 131 -31 170q-25 34 -67 34q-49 0 -83 -37v8q20 33 61 56q42 24 84 24z" />
    <glyph glyph-name="f_h" horiz-adv-x="1040" 
d="M603 735v-678q0 -51 75 -51v-6h-315v5q75 0 75 52v528q0 60 -30 99.5t-77 44.5v6q117 -7 176 -39q55 14 96 39zM372 474l-11 -15h-98v-402q0 -52 75 -52v-5h-315v5q75 0 75 52v402h-65l11 15h54v45q0 95 51.5 148.5t141.5 66.5v-6q-37 -10 -61.5 -45.5t-24.5 -78.5
q0 -52 41 -91q40 -39 126 -39zM953 369v-312q0 -51 75 -51v-6h-314v6q74 0 74 51v312q0 85 -79 85q-42 0 -76 -31v6q23 34 68.5 57.5t97.5 23.5q73 0 113.5 -35.5t40.5 -105.5z" />
    <glyph glyph-name="f_j" horiz-adv-x="690" 
d="M216 589q0 -49 34.5 -80.5t91.5 -34.5l-4 -15h-75v-402q0 -51 75 -51v-6h-315v6q75 0 75 51v402h-65l11 15h54v45q0 67 37 116q70 91 189 100v-6q-40 -8 -74 -45t-34 -95zM456 643q0 35 -25.5 59t-60.5 27v6q109 0 172 -31q66 -32 66 -82q0 -37 -24.5 -60t-64.5 -23
q-79 0 -105 47q18 2 30 18t12 39zM384 459l4 15q136 0 215 36v-540q0 -111 -67.5 -165.5t-188.5 -54.5v6q43 0 67 25.5t24 69.5v554q0 28 -12.5 41t-41.5 13z" />
    <glyph glyph-name="f_k" horiz-adv-x="1002" 
d="M372 474l-11 -15h-98v-402q0 -52 75 -52v-5h-315v5q75 0 75 52v402h-65l11 15h54v45q0 95 52 149t141 67v-6q-39 -10 -62.5 -40.5t-23.5 -72.5q0 -63 42 -102.5t125 -39.5zM603 735v-678q0 -51 75 -51v-6h-315v5q75 0 75 52v528q0 60 -30 99.5t-77 44.5v6q117 -7 176 -39
q55 14 96 39zM753 331l173 -268q17 -25 32 -37q3 -3 6 -5t6.5 -3.5t5.5 -3t6 -2.5t5.5 -1.5t6.5 -1t6.5 -1t8 -1.5t8.5 -1v-6q-33 -10 -100 -10q-61 0 -104.5 21t-76.5 76l-94 157q69 59 111 114t42 90q0 46 -59 46v6h256v-6q-34 0 -56 -18z" />
    <glyph glyph-name="Q_u.ss01" horiz-adv-x="1482" 
d="M374 -5v-6q-115 0 -217 91q-50 44 -79.5 114t-29.5 151q0 79 29.5 146.5t78.5 109.5q101 88 218 88v-6q-140 -15 -140 -338q0 -120 20 -202q20 -75 49 -108.5t71 -39.5zM424 -11v6q26 8 61 53q23 32 38 65q41 91 41 232q0 323 -140 338v6q117 0 218 -88
q49 -42 78.5 -109.5t29.5 -146.5q0 -81 -29.5 -151t-79.5 -114q-102 -91 -217 -91zM1052 510v-379q0 -85 69 -85q39 0 69 31v-6q-20 -37 -60 -59t-95 -22q-148 0 -148 141v281q0 28 -16.5 40.5t-57.5 12.5v6q144 0 239 39zM1385 510v-443q0 -41 27 -41q24 0 48 45h6
q-12 -39 -48 -60t-88 -21q-51 0 -80.5 26.5t-29.5 71.5v324q0 28 -16 40.5t-55 12.5v6q123 0 236 39zM890 -287q-121 0 -242 65q-16 9 -56.5 32t-62 34t-54.5 26t-61.5 21.5t-55.5 6.5q-62 0 -62 -33q0 -25 22 -31q0 -10 -10 -16.5t-23 -6.5q-24 0 -39 16.5t-15 42.5
q0 40 38.5 65t105.5 25q61 2 167.5 -30t217.5 -64t183 -30q144 0 225 66l7 -2q-54 -187 -285 -187z" />
    <glyph glyph-name="zero.osf" horiz-adv-x="648" 
d="M307 -3v-7q-89 0 -168 65q-40 34 -64 94.5t-24 135.5q0 76 23.5 135.5t63.5 92.5q78 63 169 63v-6q-30 -4 -48.5 -28t-30 -86t-11.5 -167q0 -152 23 -221q23 -66 67 -71zM345 -10v7q42 4 65 72q23 69 23 222q-1 105 -11.5 166t-28.5 85.5t-48 27.5v6q92 0 166 -62
q40 -33 63.5 -92.5t23.5 -135.5t-23.5 -136t-63.5 -94q-78 -66 -166 -66z" />
    <glyph glyph-name="one.osf" horiz-adv-x="384" 
d="M348 0h-296v6q71 0 71 48v373q0 64 -89 53v9q58 9 130 33q72 26 114 54v-522q0 -48 70 -48v-6z" />
    <glyph glyph-name="two.osf" horiz-adv-x="581" 
d="M147 328q-45 0 -72 27.5t-27 78.5q0 58 53 99q54 42 130 43v-6q-70 -15 -70 -87q0 -35 23 -57t57 -22q-6 -37 -31.5 -56.5t-62.5 -19.5zM175 196h-20q99 75 128 106q65 68 65 151q0 102 -77 117v6q125 -2 188 -39t63 -116q0 -86 -93 -132q-40 -21 -84 -37
q-26 -10 -94 -31q-54 -16 -76 -25zM394 -10q-26 0 -112 26q-84 26 -122 26q-74 0 -99 -42h-6q3 85 29 124t81 39q47 0 131 -9q90 -8 110 -8q52 0 77 12.5t33 50.5h6q0 -109 -22 -162q-24 -57 -106 -57z" />
    <glyph glyph-name="three.osf" horiz-adv-x="572" 
d="M147 354q-43 0 -71.5 26.5t-28.5 73.5q0 49 47 82.5t125 39.5v-6q-28 -7 -46 -29t-18 -50t24 -45t56 -17q0 -35 -24 -55t-64 -20zM286 241q93 -12 161 -58q70 -46 70 -123q0 -92 -72 -138q-71 -48 -185 -48v6q83 27 83 172q0 71 -37 123q-38 53 -108 63v6q72 6 108 58
q37 52 37 124q0 56 -22.5 96.5t-60.5 47.5v6q64 0 120 -14q55 -13 96 -53q41 -39 41 -100q0 -83 -78 -124q-69 -37 -153 -44zM235 21q-32 0 -56 -17t-24 -45q0 -27 18 -49t46 -30v-6q-72 4 -123 40q-49 34 -49 86q0 45 29 70.5t72 25.5q37 0 62 -21t25 -54z" />
    <glyph glyph-name="four.osf" horiz-adv-x="555" 
d="M58 97h-24q100 68 143 162q37 81 37 131q0 52 -28 80.5t-78 28.5q-12 0 -26 -3q20 36 62.5 58t92.5 22q61 0 101 -39.5t40 -102.5q0 -98 -99 -196q-99 -97 -221 -141zM544 68v-15h-115v-119q0 -48 71 -48v-6h-297v6q71 0 71 48v119h-240v15h240v75q99 81 150 168h5v-243
h115z" />
    <glyph glyph-name="five.osf" horiz-adv-x="575" 
d="M94 313h-6l2 234q50 29 112 29q36 0 93 -18q58 -18 92 -18q40 0 63.5 12.5t38.5 42.5q22 -37 22 -83q0 -56 -38 -88t-103 -32q-41 0 -94 10q-58 11 -80 11q-101 0 -102 -100zM253 -130v6q55 10 86 67t31 142q0 75 -44 131t-121 56q-59 0 -117 -16v7q90 26 187 26
q111 0 182 -60q71 -59 71 -152q0 -100 -73 -153.5t-202 -53.5zM217 -124v-6q-78 4 -129 51q-50 45 -50 110q0 48 32 81.5t75 33.5q44 0 71 -23.5t27 -64.5q-44 0 -70 -21.5t-26 -62.5q0 -39 19.5 -66t50.5 -32z" />
    <glyph glyph-name="six.osf" horiz-adv-x="600" 
d="M287 -4v-6q-116 5 -178.5 82t-62.5 212q0 81 34.5 154.5t91 124.5t127 84.5t144.5 42.5v-6q-231 -45 -232 -400q-1 -142 16.5 -209.5t59.5 -78.5zM327 -10v6q42 14 65 71q24 57 24 130q0 74 -23 129t-70 55q-28 0 -64 -14l1 6q42 27 115 27q94 0 146.5 -53.5t52.5 -142.5
q0 -95 -63.5 -151.5t-183.5 -62.5z" />
    <glyph glyph-name="seven.osf" horiz-adv-x="559" 
d="M43 330h-6q0 133 28 189q29 57 111 57q32 0 128 -26t128 -26q44 0 67.5 10t35.5 33h6q0 -178 -115 -178q-45 0 -137 16t-126 16q-54 0 -82.5 -19.5t-37.5 -71.5zM345 -120h-264q0 117 93 235q46 56 92 97q90 82 189 134l18 5q-98 -115 -147.5 -214t-49.5 -201
q0 -49 69 -49v-7z" />
    <glyph glyph-name="eight.osf" horiz-adv-x="620" 
d="M335 -10v6q98 12 98 105q0 30 -20 59t-51.5 53t-70 48.5t-77.5 51.5t-70.5 56t-51.5 67t-20 80q0 93 73 133q63 35 143 41v-6q-76 -21 -76 -86q0 -70 127 -143q52 -29 82.5 -49t71.5 -54t61 -71.5t19 -79.5q0 -55 -20.5 -96.5t-55.5 -65t-75.5 -35.5t-86.5 -14zM380 463
l-6 4q46 42 46 112q0 105 -91 105v6q91 0 153 -31q64 -30 64 -85q0 -53 -45.5 -82t-120.5 -29zM293 -4v-6q-112 0 -181 34t-69 114q0 62 54 99q56 38 122 42l7 -3q-30 -24 -42 -53.5t-12 -79.5q0 -60 32 -98.5t89 -48.5z" />
    <glyph glyph-name="nine.osf" horiz-adv-x="600" 
d="M225 166q-94 0 -146.5 53.5t-52.5 142.5q0 95 63.5 151.5t183.5 62.5v-6q-42 -13 -66 -71q-23 -58 -23 -130q0 -74 23 -129t70 -55q28 0 64 14l-1 -6q-42 -27 -115 -27zM157 -124v6q231 45 232 400q1 142 -16.5 209.5t-59.5 78.5v6q116 -5 178.5 -82t62.5 -212
q0 -81 -34.5 -154.5t-91 -124.5t-127 -84.5t-144.5 -42.5z" />
    <glyph glyph-name="ampersand.ss01" horiz-adv-x="759" 
d="M396 27q67 0 135 38t101 98l7 -2q-31 -76 -112 -124q-82 -47 -181 -47q-129 0 -215 47q-86 48 -86 138q0 41 24.5 76t65.5 57q79 43 164 54q-227 24 -227 164q0 60 38 98q66 66 209 66v-5q-37 -8 -58.5 -47t-21.5 -94q0 -74 38 -123t110 -55v-6q-73 -10 -120 -60
q-46 -49 -46 -115q0 -71 49 -114q50 -44 126 -44zM347 543q35 0 56.5 16.5t21.5 42.5q0 30 -18 52.5t-47 30.5v5q78 -5 125.5 -39t47.5 -84q0 -45 -26 -72t-71 -27q-39 0 -64 20.5t-25 54.5zM638 471q46 0 74.5 -28t28.5 -72q0 -53 -39 -87.5t-108 -49.5q-5 -2 -30 -6.5
t-30 -5.5q-42 -10 -53 -17q-50 -26 -31 -74l-3 -2q-54 24 -54 76q0 33 34 57q35 25 74 36q41 12 75 30t34 41q0 16 -10.5 26t-27.5 10q-6 0 -22 -2q0 30 24.5 49t63.5 19z" />
    <glyph glyph-name="caroncomb.alt" 
d="M-220 511h-6q33 103 33 274h101q-7 -173 -128 -274z" />
    <glyph glyph-name="uni0308.case" 
d="M-560 828q0 34 24 55t61 21q38 0 63 -21t25 -55q0 -36 -24.5 -58.5t-62.5 -22.5t-62 22.5t-24 58.5zM-297 828q0 34 24 55t62 21t61.5 -21t23.5 -55q0 -37 -23.5 -59t-61.5 -22t-62 22.5t-24 58.5z" />
    <glyph glyph-name="uni0307.case" 
d="M-211 689q0 34 24 55t61 21q38 0 63 -21t25 -55q0 -36 -24.5 -58.5t-62.5 -22.5t-62 22.5t-24 58.5z" />
    <glyph glyph-name="gravecomb.case" 
d="M-38 735v-5q-158 16 -256 114l86 85q69 -122 170 -194z" />
    <glyph glyph-name="acutecomb.case" 
d="M-297 730v5q101 72 170 194l86 -85q-98 -98 -256 -114z" />
    <glyph glyph-name="uni030B.case" 
d="M-447 599l-3 6q100 83 171 192l73 -67q-104 -96 -241 -131zM-249 599l-3 6q100 83 171 192l73 -67q-104 -96 -241 -131z" />
    <glyph glyph-name="uni0302.case" 
d="M-40 736l-3 -6q-100 21 -170 84q-70 -63 -170 -84l-3 6q117 86 155 181h36q41 -98 155 -181z" />
    <glyph glyph-name="uni030C.case" 
d="M-36 793l3 -6q-114 -83 -155 -181h-36q-38 95 -155 181l3 6q100 -21 170 -84q70 63 170 84z" />
    <glyph glyph-name="uni0306.case" 
d="M-344 824h6q24 -51 85 -70.5t122 0t85 70.5h6q-8 -76 -49.5 -116.5t-102.5 -40.5t-102.5 40.5t-49.5 116.5z" />
    <glyph glyph-name="uni030A.case" 
d="M-70 755q-30 -29 -73 -29t-73 29q-30 30 -30 73q0 44 30 72q30 30 73 30t73 -30q30 -28 30 -72q0 -43 -30 -73zM-84 828q0 26 -17 43.5t-42 17.5t-42 -17.5t-17 -43.5q0 -25 17 -42.5t42 -17.5t42 17.5t17 42.5z" />
    <glyph glyph-name="tildecomb.case" 
d="M-367 744h-6q-28 24 -28 68q0 39 24.5 62t73.5 23q44 0 116 -28q73 -27 99 -27q42 0 42 32q0 13 -16 32h6q28 -24 28 -65q0 -40 -24.5 -64t-73.5 -24q-42 0 -116 27q-72 28 -99 28q-42 0 -42 -32q0 -13 16 -32z" />
    <glyph glyph-name="uni0304.case" 
d="M-372 810v35h317v-35h-317z" />
    <glyph glyph-name="uni0335.case" 
d="M0 277h-395v25h395v-25z" />
    <glyph glyph-name="uni0336.case" 
d="M0 483h-761v25h761v-25z" />
    <glyph glyph-name="uni0337.case" 
d="M37 458l-388 -245v27l388 244v-26z" />
    <glyph glyph-name="uni0338.case" 
d="M-644 -11h-39l648 700h35z" />
    <glyph glyph-name="caron.alt" horiz-adv-x="234" 
d="M36 481h-6q33 103 33 274h101q-7 -173 -128 -274z" />
    <glyph glyph-name="acute.case" horiz-adv-x="356" 
d="M59 730v5q101 72 170 194l86 -85q-98 -98 -256 -114z" />
    <glyph glyph-name="breve.case" horiz-adv-x="384" 
d="M40 794h6q24 -51 85 -70.5t122 0t85 70.5h6q-8 -76 -49.5 -116.5t-102.5 -40.5t-102.5 40.5t-49.5 116.5z" />
    <glyph glyph-name="caron.case" horiz-adv-x="426" 
d="M390 793l3 -6q-114 -83 -155 -181h-36q-38 95 -155 181l3 6q100 -21 170 -84q70 63 170 84z" />
    <glyph glyph-name="circumflex.case" horiz-adv-x="426" 
d="M386 607l-3 -6q-100 21 -170 84q-70 -63 -170 -84l-3 6q117 86 155 181h36q41 -98 155 -181z" />
    <glyph glyph-name="dieresis.case" horiz-adv-x="600" 
d="M40 679q0 34 24 55t61 21q38 0 63 -21t25 -55q0 -36 -24.5 -58.5t-62.5 -22.5t-62 22.5t-24 58.5zM303 679q0 34 24 55t62 21t61.5 -21t23.5 -55q0 -37 -23.5 -59t-61.5 -22t-62 22.5t-24 58.5z" />
    <glyph glyph-name="dotaccent.case" horiz-adv-x="253" 
d="M42 689q0 34 24 55t61 21q38 0 63 -21t25 -55q0 -36 -24.5 -58.5t-62.5 -22.5t-62 22.5t-24 58.5z" />
    <glyph glyph-name="grave.case" horiz-adv-x="376" 
d="M338 735v-5q-158 16 -256 114l86 85q69 -122 170 -194z" />
    <glyph glyph-name="hungarumlaut.case" horiz-adv-x="522" 
d="M75 599l-3 6q100 83 171 192l73 -67q-104 -96 -241 -131zM273 599l-3 6q100 83 171 192l73 -67q-104 -96 -241 -131z" />
    <glyph glyph-name="macron.case" horiz-adv-x="397" 
d="M25 673v35h317v-35h-317z" />
    <glyph glyph-name="ring.case" horiz-adv-x="286" 
d="M216 610q-30 -29 -73 -29t-73 29q-30 30 -30 73t30 72q30 30 73 30t73 -30q30 -29 30 -72t-30 -73zM202 683q0 26 -17 43.5t-42 17.5t-42 -17.5t-17 -43.5q0 -25 17 -42.5t42 -17.5t42 17.5t17 42.5z" />
    <glyph glyph-name="tilde.case" horiz-adv-x="453" 
d="M86 594h-6q-28 24 -28 68q0 39 24.5 62t73.5 23q44 0 116 -28q74 -27 99 -27q42 0 42 32q0 13 -16 32h6q28 -24 28 -65q0 -40 -24.5 -64t-73.5 -24q-43 0 -116 27q-72 28 -99 28q-42 0 -42 -32q0 -13 16 -32z" />
    <glyph glyph-name="IJacute" horiz-adv-x="775" 
d="M66 730v5q101 72 170 194l86 -85q-98 -98 -256 -114zM461 730v5q101 72 170 194l86 -85q-98 -98 -256 -114zM348 330h-320v6q75 0 75 51v236q0 49 -75 49v8h320v-8q-75 0 -75 -49v-236q0 -51 75 -51v-6zM428 -10v8q41 11 58 65q8 21 12 60q4 35 4 63q1 16 1 71v365
q0 50 -75 50v8h320v-8q-75 0 -75 -50v-365q0 -79 -24 -133q-44 -104 -221 -134zM391 -2v-8q-61 3 -108 44q-45 40 -45 109q0 47 31.5 76.5t77.5 29.5q35 0 59.5 -22.5t24.5 -52.5q-41 0 -68 -23t-27 -60q0 -32 15.5 -58t39.5 -35z" />
    <glyph glyph-name="ijacute" horiz-adv-x="708" 
d="M59 548l-2 5q81 98 115 231l105 -60q-71 -121 -218 -176zM418 546l-2 5q81 98 115 231l105 -60q-71 -121 -218 -176zM26 466v6q144 0 239 39v-454q0 -51 75 -51v-6h-315v6q75 0 75 51v356q0 28 -16.5 40.5t-57.5 12.5zM374 466v6q144 0 239 39v-541q0 -111 -67.5 -165.5
t-188.5 -54.5v6q43 0 67 25.5t24 69.5v562q0 28 -16.5 40.5t-57.5 12.5z" />
    </font>
</defs>
</svg>
